<?xml version="1.0" encoding="utf-8"?>
<svg xmlns="http://www.w3.org/2000/svg"
	xmlns:xlink="http://www.w3.org/1999/xlink"
	width="48px" height="79px" viewBox="0 0 48 79">
<path fillRule="evenodd" d="M 47.94 76.2C 47.78 76.59 47.64 76.66 47.23 76.52 46.45 76.26 45.81 75.31 45.81 74.37 45.8 73.71 45.88 73.04 45.83 72.39 45.68 70.6 45.52 68.81 45.29 67.03 45.01 64.81 44.66 62.61 44.34 60.4 44.31 60.24 44.3 60.01 44.2 59.92 43.69 59.49 43.76 58.9 43.78 58.36 43.85 56.09 44 53.81 44.06 51.53 44.1 50.19 43.98 48.85 44 47.5 44.03 45.35 44.12 43.2 44.17 41.04 44.21 39.34 44.27 37.64 44.25 35.95 44.22 34.07 44.08 32.2 44.02 30.33 43.97 29.09 43.97 27.85 43.94 26.61 43.93 25.78 43.9 24.94 43.87 24.11 43.83 22.46 43.77 20.81 43.74 19.17 43.74 18.64 43.79 18.1 43.87 17.58 44.13 15.81 44.46 14.05 44.7 12.28 44.92 10.62 45.07 8.95 45.24 7.29 45.35 6.15 45.43 5.01 45.52 3.88 45.55 3.5 45.56 3.12 45.55 2.74 45.52 2.13 45.36 1.95 44.76 1.79 44.66 1.77 44.55 1.79 44.46 1.76 44.07 1.63 43.79 1.39 43.68 0.98 43.6 0.66 43.79 0.17 44.05 0.05 44.4-0.1 44.67 0.1 44.85 0.34 45.24 0.83 45.61 1.34 45.94 1.87 46.06 2.07 46.08 2.35 46.09 2.59 46.16 3.81 46.17 5.03 46.27 6.24 46.44 8.28 46.66 10.32 46.85 12.37 46.94 13.35 46.96 14.34 47.11 15.31 47.31 16.58 47.11 17.83 47.14 19.09 47.18 20.92 47.24 22.74 47.26 24.57 47.28 27 47.28 29.43 47.29 31.87 47.29 33.01 47.29 34.15 47.27 35.29 47.26 36.5 47.21 37.71 47.2 38.92 47.2 39.4 47.33 39.88 47.34 40.36 47.4 43.15 47.46 45.94 47.48 48.73 47.5 51.16 47.47 53.6 47.47 56.04 47.47 57.05 47.49 58.06 47.5 59.08 47.5 59.44 47.51 59.78 47.1 59.98 46.97 60.05 46.9 60.31 46.88 60.49 46.84 61.07 46.83 61.66 46.82 62.24 46.79 64.22 46.76 66.2 46.74 68.17 46.73 69.65 46.74 71.11 46.52 72.58 46.41 73.31 46.47 74.04 46.72 74.81 47.67 74.71 48.25 75.4 47.94 76.2ZM 47.56 75.93C 47.36 75.65 47.25 75.5 47.15 75.36 47.09 75.4 47.03 75.45 46.97 75.49 46.97 75.75 47.1 75.88 47.56 75.93ZM 44.29 0.72C 44.28 0.72 44.2 0.81 44.16 0.86 44.25 0.94 44.34 1.02 44.44 1.1 44.48 1.05 44.53 1 44.58 0.95 44.48 0.87 44.39 0.79 44.29 0.72ZM 46.1 68.92C 46.31 65.99 46.52 63.07 46.27 60.17 45.77 60.17 45.33 60.17 44.8 60.17 45.24 63.14 45.67 66.03 46.1 68.92ZM 44.69 16.59C 44.35 17.51 44.26 18.47 44.27 19.44 44.28 20.12 44.32 20.8 44.32 21.49 44.35 23.41 44.34 25.34 44.39 27.27 44.44 29.27 44.49 31.28 44.63 33.28 44.83 36.14 44.57 39.01 44.58 41.87 44.59 44.13 44.48 46.38 44.44 48.64 44.37 51.84 44.31 55.03 44.24 58.23 44.21 59.21 44.5 59.51 45.64 59.5 45.66 59.29 45.69 59.12 45.69 58.94 45.68 57.01 45.67 55.09 45.66 53.16 45.65 51.15 45.67 49.15 45.63 47.14 45.57 44.2 45.47 41.26 45.4 38.32 45.38 37.03 45.38 35.74 45.4 34.46 45.43 32.2 45.48 29.95 45.53 27.7 45.53 27.55 45.53 27.39 45.53 27.24 45.53 24.73 45.53 22.22 45.52 19.71 45.52 18.52 45.5 17.34 45.5 16.15 44.85 16.16 44.84 16.16 44.69 16.59ZM 45.78 7.46C 45.44 10.07 45.08 12.81 44.72 15.63 45.37 15.59 45.94 15.56 46.55 15.52 46.6 14.47 45.92 7.84 45.78 7.46ZM 47.07 59.23C 47.07 57.68 47.09 56.14 47.07 54.59 47.03 50.9 46.97 47.2 46.93 43.5 46.9 40.59 46.89 37.68 46.87 34.76 46.84 31.52 46.81 28.28 46.77 25.03 46.77 24.65 46.74 24.27 46.74 23.9 46.7 22.35 46.67 20.81 46.64 19.26 46.63 18.38 46.62 17.49 46.61 16.6 46.6 16.25 46.43 16.1 46.03 16.18 46.01 16.34 45.98 16.52 45.98 16.69 45.96 19.07 45.96 21.45 45.95 23.84 45.93 25.69 45.91 27.54 45.89 29.39 45.88 31.75 45.86 34.1 45.86 36.46 45.85 38.31 45.86 40.15 45.85 42 45.85 42.53 45.81 43.07 45.83 43.6 45.9 45.37 46.02 47.14 46.05 48.91 46.1 51.75 46.08 54.59 46.11 57.43 46.11 58.05 46.19 58.68 46.24 59.31 46.53 59.28 46.75 59.26 47.07 59.23ZM 30.27 16.43C 30.1 16.43 29.96 16.3 29.96 16.13 29.96 15.96 30.1 15.82 30.27 15.82 30.44 15.82 30.58 15.96 30.58 16.13 30.58 16.3 30.44 16.43 30.27 16.43ZM 34.2 57.24C 34.19 57.58 34.26 57.92 34.3 58.36 34 58.91 33.79 61.44 33.99 61.86 33.83 62.47 33.68 62.96 33.56 63.47 33.26 64.67 33 65.89 32.67 67.09 32.37 68.14 31.75 69.03 31.08 69.89 30.95 70.06 30.85 70.26 30.71 70.51 30.16 70.35 29.57 70.17 28.92 69.97 28.54 70.28 27.96 70.39 27.41 70.4 26.78 70.4 26.46 69.89 26.15 69.41 25.21 67.96 24.66 66.37 24.34 64.68 24.06 63.21 23.65 61.77 23.42 60.29 23.12 58.34 22.94 56.37 22.71 54.41 22.63 53.68 22.55 52.95 22.47 52.22 22.13 49.04 22.09 45.85 22.26 42.65 22.34 41.18 22.32 39.71 22.4 38.24 22.52 36.19 22.66 34.14 22.82 32.1 22.96 30.38 23.14 28.67 23.31 26.95 23.45 25.59 23.62 24.23 23.75 22.87 23.81 22.27 23.82 21.66 23.88 21.05 24.05 19.42 24.24 17.79 24.42 16.14 23.64 16.07 22.88 16.04 22.13 15.93 20.4 15.69 19.09 14.69 17.9 13.51 17.64 13.24 17.61 12.74 17.48 12.39 18.03 11.77 18.5 11.73 19.04 12.05 19.84 12.53 20.7 12.82 21.61 12.99 22.67 13.19 23.34 12.71 23.57 11.69 23.65 11.31 23.54 11.03 23.29 10.8 22.72 10.24 22.04 9.98 21.26 10.25 20.4 10.54 19.55 10.9 18.7 11.23 18.56 11.29 18.42 11.36 18.28 11.41 17.77 11.59 17.53 11.53 17.35 11.2 17.16 10.86 17.26 10.34 17.58 10.1 17.84 9.9 18.11 9.68 18.41 9.55 19.92 8.89 21.39 8.09 23.06 7.93 23.81 7.86 24.58 8.02 25.34 8.09 27.31 8.3 28.56 9.58 29.73 10.98 29.93 11.22 30.14 11.38 30.44 11.5 31.52 11.93 31.52 12.72 30.96 13.28 30.45 13.78 30.43 14.33 30.49 14.93 30.52 15.28 30.49 15.53 30.04 15.56 29.78 15.3 29.93 14.99 29.93 14.7 29.94 14.4 29.96 14.1 29.98 13.77 29.74 13.71 29.55 13.67 29.35 13.63 29.1 15.74 29.17 17.82 29.35 19.88 29.54 22.05 29.8 24.22 30.03 26.39 30.12 27.28 30.32 27.4 31.31 27.06 31.24 26.33 31.18 25.58 31.09 24.83 30.91 23.27 30.71 21.71 30.52 20.15 30.4 19.28 30.28 18.4 30.17 17.52 30.14 17.34 30.11 17.15 30.16 16.99 30.19 16.87 30.34 16.77 30.55 16.54 30.65 17.32 30.72 17.91 30.8 18.5 31 20.01 31.2 21.52 31.39 23.03 31.5 23.88 31.58 24.74 31.69 25.59 31.86 26.78 32.06 27.96 32.23 29.15 32.49 30.95 32.75 32.75 32.99 34.56 33.16 35.94 33.21 37.34 33.49 38.71 33.63 39.42 33.54 40.14 33.72 40.84 33.77 41.05 33.86 41.26 33.92 41.47 33.96 41.61 34.01 41.76 33.99 41.89 33.82 43.08 33.89 44.25 34.26 45.39 34.06 46.1 34.01 46.8 34.35 47.49 34.04 48.04 34.21 48.63 34.21 49.21 34.22 49.96 34.23 50.72 34.26 51.47 34.28 51.79 34.38 52.11 34.43 52.43 34.45 52.55 34.47 52.68 34.46 52.8 34.41 53.3 34.3 53.8 34.33 54.29 34.39 55.28 34.24 56.26 34.2 57.24ZM 23.42 15C 23.38 14.86 23.32 14.72 23.27 14.61 21.21 14.52 20.61 14.33 20.22 13.47 21.24 13.85 22.14 14.2 23.13 13.89 23.13 13.74 23.13 13.58 23.13 13.36 22.25 13.67 21.43 13.52 20.63 13.26 20.08 13.07 19.55 12.82 19.02 12.6 18.74 12.48 18.48 12.28 18.19 12.56 18.46 14.03 21.53 15.67 23.46 15.36 23.44 15.24 23.45 15.12 23.42 15ZM 33.58 57.7C 33.64 57.51 33.69 57.31 33.74 57.12 33.68 57.11 33.62 57.1 33.56 57.09 33.51 57.28 33.47 57.47 33.42 57.66 33.48 57.67 33.53 57.69 33.58 57.7ZM 33.42 55.14C 32.81 55.84 32.78 55.96 33.07 56.68 33.79 55.84 33.82 55.66 33.42 55.14ZM 33.24 52.6C 32.97 53.02 33.16 53.31 33.45 53.61 33.73 53.06 33.73 53.06 33.24 52.6ZM 32.48 46.58C 32.15 47.08 32.32 47.36 32.6 47.65 33 47.26 32.64 47 32.48 46.58ZM 32.4 44.57C 32.4 44.85 32.4 45.03 32.4 45.29 32.69 44.94 32.69 44.94 32.4 44.57ZM 29.1 31.41C 28.67 31.81 28.88 32.23 29.04 32.66 29.59 32.03 29.59 32.01 29.1 31.41ZM 29.01 29.27C 28.9 29.48 28.79 29.67 28.66 29.91 28.82 30.01 28.97 30.11 29.13 30.2 29.36 29.69 29.36 29.69 29.01 29.27ZM 29.4 34.41C 29.86 34.06 29.8 33.74 29.5 33.33 29.15 33.71 29.24 34.03 29.4 34.41ZM 29.53 63.52C 30.07 63.02 30.07 63.01 29.62 62.09 29.12 62.56 29.28 63.03 29.53 63.52ZM 29.75 66.3C 29.69 66.04 29.63 65.78 29.56 65.5 29.31 65.85 29.31 65.85 29.75 66.3ZM 32.01 61.57C 32.47 60.99 32.46 60.86 31.95 60.37 31.65 61 31.65 61 32.01 61.57ZM 32.15 64.46C 32.6 63.89 32.24 63.51 32 63.07 31.52 63.61 31.89 63.99 32.15 64.46ZM 32.66 57.71C 32.96 57.3 32.63 57.02 32.49 56.67 32.18 57.17 32.18 57.21 32.66 57.71ZM 32.67 60.37C 32.98 59.89 32.81 59.6 32.59 59.26 32.19 59.65 32.4 59.95 32.67 60.37ZM 32.01 44.15C 32.22 43.68 32.22 43.68 31.94 43.33 31.64 43.6 31.76 43.85 32.01 44.15ZM 31.92 45.74C 31.92 45.88 31.92 46.03 31.92 46.18 31.97 46.18 32.02 46.19 32.06 46.19 32.09 46.05 32.12 45.9 32.15 45.76 32.07 45.75 32 45.74 31.92 45.74ZM 30.65 35.65C 30.6 35.68 30.55 35.71 30.49 35.74 30.54 36 30.58 36.26 31.05 36.48 30.87 36.1 30.76 35.87 30.65 35.65ZM 31.09 33.64C 31.42 33.3 31.3 33.03 30.99 32.71 30.69 33.12 30.83 33.37 31.09 33.64ZM 29.75 59.76C 29.69 59.77 29.64 59.78 29.58 59.79 29.6 59.99 29.62 60.18 29.64 60.37 29.73 60.36 29.81 60.36 29.9 60.35 29.85 60.15 29.8 59.96 29.75 59.76ZM 29.94 55.62C 29.93 55.45 29.91 55.28 29.9 55.11 29.86 55.11 29.81 55.11 29.77 55.11 29.76 55.28 29.75 55.45 29.74 55.63 29.81 55.62 29.87 55.62 29.94 55.62ZM 29.65 38.83C 29.92 38.55 29.99 38.32 29.65 38.02 29.65 38.31 29.65 38.54 29.65 38.83ZM 29.8 40.46C 29.8 40.81 29.8 41.09 29.8 41.45 30.19 41.08 30.05 40.81 29.8 40.46ZM 31.39 53.9C 31.03 54.26 31.09 54.58 31.41 54.95 31.71 54.57 31.65 54.25 31.39 53.9ZM 31.57 51.01C 31.38 51.49 30.94 51.8 31.34 52.35 31.62 51.95 32 51.66 31.57 51.01ZM 31.34 56.44C 31.27 56.46 31.19 56.47 31.12 56.49 31.19 56.72 31.26 56.96 31.36 57.28 31.72 56.86 31.5 56.66 31.34 56.44ZM 30.99 49.81C 30.96 50.31 30.44 50.62 30.93 51.22 31.01 50.72 31.52 50.41 30.99 49.81ZM 30.31 41.71C 30.04 42.09 30.17 42.4 30.46 42.78 30.73 42.17 30.73 42.17 30.31 41.71ZM 30.09 39.04C 29.93 39.59 30.1 39.91 30.44 40.35 30.58 39.78 30.42 39.46 30.09 39.04ZM 29.96 45.08C 29.96 45.54 29.96 45.95 29.96 46.46 30.49 45.82 30.48 45.71 29.96 45.08ZM 30.57 44.96C 30.81 44.6 30.61 44.39 30.33 44.2 30.41 44.46 30.49 44.71 30.57 44.96ZM 30.86 41.6C 31.19 41.12 31.19 41.12 30.63 40.67 30.72 41.05 30.78 41.29 30.86 41.6ZM 30.62 47.38C 30.85 47.08 30.91 46.86 30.69 46.56 30.43 46.83 30.29 47.04 30.62 47.38ZM 30.93 53.61C 30.96 53.22 30.98 52.98 31 52.75 30.64 53.13 30.64 53.13 30.93 53.61ZM 30.6 55.04C 30.67 55.4 30.72 55.63 30.76 55.87 30.82 55.86 30.88 55.84 30.94 55.83 30.99 55.4 30.99 55.4 30.6 55.04ZM 30.65 48.9C 30.15 49.41 30.12 49.51 30.37 50.02 30.54 49.65 30.82 49.35 30.65 48.9ZM 30 47.75C 29.95 48.14 29.91 48.41 29.87 48.69 29.93 48.69 29.99 48.7 30.05 48.7 30.15 48.43 30.49 48.18 30 47.75ZM 30.46 54.53C 30.43 54.31 30.39 54.08 30.34 53.72 30.12 54.22 30.12 54.22 30.46 54.53ZM 30.19 37.73C 30.63 37.18 30.63 37.13 30.15 36.5 29.81 36.95 29.85 37.34 30.19 37.73ZM 30.81 37.89C 30.41 38.56 30.41 38.59 30.89 39.16 31.29 38.74 31.14 38.35 30.81 37.89ZM 30.9 43.01C 30.72 43.5 30.72 43.5 31.07 44.01 31.32 43.6 31.15 43.32 30.9 43.01ZM 31.38 40.56C 31.73 40.17 31.75 39.81 31.38 39.4 31.05 39.81 31.03 40.17 31.38 40.56ZM 31.48 42.07C 31.43 42.08 31.38 42.1 31.33 42.11 31.29 42.55 31.29 42.55 31.69 42.92 31.6 42.54 31.54 42.31 31.48 42.07ZM 31.47 44.41C 31.22 44.69 31.29 44.94 31.53 45.21 31.77 44.91 31.8 44.66 31.47 44.41ZM 31.61 48.63C 31.26 49.04 31.32 49.31 31.57 49.6 31.9 49.31 31.78 49.04 31.61 48.63ZM 31.98 53.83C 32.45 53.16 32.73 53.04 32.14 52.27 31.57 53.04 31.55 53.24 31.98 53.83ZM 31.94 56.29C 32.36 55.94 32.18 55.63 31.88 55.2 31.68 55.67 31.61 55.99 31.94 56.29ZM 32.05 58.82C 32.37 58.35 32.19 58.03 31.92 57.63 31.6 58.11 31.8 58.41 32.05 58.82ZM 31.41 64.19C 31.09 64.68 31.16 64.97 31.69 65.46 31.87 64.96 31.68 64.58 31.41 64.19ZM 31.47 62.76C 31.85 62.28 31.63 61.95 31.39 61.57 30.98 62.01 31.23 62.35 31.47 62.76ZM 31.41 60.12C 31.87 59.63 31.71 59.17 31.39 58.69 30.88 59.37 30.88 59.43 31.41 60.12ZM 30.9 62.71C 30.49 63.21 30.49 63.23 30.97 63.73 31.29 63.36 31.08 63.06 30.9 62.71ZM 30.92 61.22C 31.14 60.73 30.98 60.42 30.64 60.14 30.54 60.53 30.6 60.87 30.92 61.22ZM 30.72 58.49C 31.16 57.92 31.16 57.92 30.76 57.31 30.49 57.68 30.37 58.04 30.72 58.49ZM 30.27 51.56C 30.27 51.78 30.27 51.99 30.27 52.28 30.6 52 30.58 51.79 30.27 51.56ZM 30.21 56.13C 30.15 56.48 30.11 56.74 30.07 57.01 30.15 57.02 30.23 57.03 30.31 57.04 30.42 56.77 30.67 56.51 30.21 56.13ZM 30.18 59.44C 30.25 59.43 30.31 59.42 30.37 59.4 30.33 59.19 30.29 58.97 30.25 58.76 30.17 58.77 30.1 58.78 30.02 58.8 30.07 59.01 30.13 59.23 30.18 59.44ZM 30.3 62.3C 30.56 61.69 30.52 61.46 30.12 61.06 29.89 61.48 30.14 61.83 30.3 62.3ZM 30.05 50.85C 30 50.74 29.95 50.62 29.9 50.51 29.86 50.52 29.82 50.54 29.78 50.56 29.83 50.67 29.88 50.79 29.93 50.9 29.97 50.89 30.01 50.87 30.05 50.85ZM 29.84 52.94C 29.84 53.07 29.84 53.2 29.84 53.33 29.87 53.33 29.91 53.33 29.95 53.34 29.97 53.21 30 53.09 30.02 52.97 29.96 52.96 29.9 52.95 29.84 52.94ZM 29.45 35.36C 29.48 35.76 29.49 36 29.52 36.37 29.89 35.97 29.97 35.72 29.45 35.36ZM 29.82 31.4C 30.24 30.89 29.89 30.66 29.67 30.35 29.23 30.79 29.57 31.05 29.82 31.4ZM 30.01 34.69C 30.06 34.83 30.12 34.97 30.18 35.11 30.23 35.08 30.28 35.06 30.33 35.04 30.27 34.9 30.22 34.76 30.16 34.62 30.11 34.64 30.06 34.66 30.01 34.69ZM 30.45 32.53C 30.75 32.09 30.75 32.09 30.34 31.54 29.96 31.97 30.11 32.26 30.45 32.53ZM 30.56 33.79C 30.49 33.82 30.43 33.85 30.36 33.88 30.44 34.04 30.52 34.21 30.6 34.38 30.66 34.35 30.71 34.33 30.77 34.3 30.7 34.13 30.63 33.96 30.56 33.79ZM 31.07 31.52C 31.47 31.02 31.61 30.78 31.09 30.34 30.57 30.98 30.57 30.98 31.07 31.52ZM 31.02 34.84C 30.87 35.21 31 35.42 31.29 35.6 31.52 35.2 31.31 35.03 31.02 34.84ZM 31.11 37.08C 31.21 37.34 31.31 37.61 31.4 37.88 31.54 37.44 31.54 37.44 31.11 37.08ZM 31.78 34.73C 32.03 34.3 31.85 34.1 31.59 33.86 31.28 34.24 31.47 34.45 31.78 34.73ZM 31.67 36.04C 31.46 36.48 31.6 36.74 31.93 37.01 32.05 36.54 32.05 36.54 31.67 36.04ZM 31.73 38.52C 31.78 38.77 31.82 39.03 31.87 39.28 32.23 38.97 32.11 38.72 31.73 38.52ZM 31.9 40.73C 31.64 41.18 31.59 41.51 31.97 41.84 32.26 41.46 32.29 41.13 31.9 40.73ZM 31.82 47.77C 31.9 48 31.98 48.22 32.05 48.45 32.11 48.44 32.17 48.42 32.23 48.4 32.28 48.12 32.17 47.9 31.82 47.77ZM 32.08 49.98C 31.76 50.3 31.89 50.59 32.13 50.9 32.41 50.57 32.42 50.28 32.08 49.98ZM 32.65 49.02C 32.3 49.36 32.49 49.55 32.65 49.75 32.71 49.73 32.76 49.72 32.82 49.7 32.76 49.47 32.71 49.24 32.65 49.02ZM 32.63 51.24C 32.36 51.65 32.54 51.91 32.78 52.27 33.11 51.81 32.89 51.57 32.63 51.24ZM 32.75 53.65C 32.12 54.6 32.12 54.61 32.61 55.24 33.24 54.43 33.24 54.4 32.75 53.65ZM 33.27 59.28C 33.54 58.78 33.46 58.46 33.07 58.15 32.8 58.59 32.95 58.9 33.27 59.28ZM 33.35 61.58C 33.4 61.16 33.45 60.82 33.5 60.35 32.89 60.97 32.87 61.08 33.35 61.58ZM 32.69 63.2C 33.13 62.55 33.12 62.45 32.59 61.9 32.2 62.34 32.3 62.75 32.69 63.2ZM 32.17 66.95C 32.21 66.56 32.64 66.27 32.14 65.9 31.74 66.33 31.74 66.33 32.17 66.95ZM 31.36 68.62C 31.72 68.08 32.06 67.56 31.48 66.96 30.76 67.76 30.75 67.89 31.36 68.62ZM 30.66 69.56C 30.81 69.32 30.88 69.2 30.97 69.07 30.83 68.92 30.71 68.78 30.57 68.63 30.25 68.93 30.5 69.17 30.66 69.56ZM 30.65 66.96C 31.3 66.24 31.32 66.06 30.82 65.28 30.44 65.82 30.16 66.34 30.65 66.96ZM 30.24 63.83C 29.71 64.43 29.7 64.49 30.03 65.17 30.63 64.77 30.68 64.51 30.24 63.83ZM 30.08 67.09C 30.01 67.1 29.93 67.1 29.86 67.11 29.92 67.41 29.99 67.71 30.08 68.15 30.46 67.64 30.23 67.37 30.08 67.09ZM 29.82 69.69C 29.82 69.7 29.95 69.71 29.95 69.7 29.98 69.56 29.99 69.43 30.01 69.29 29.93 69.29 29.84 69.28 29.75 69.28 29.77 69.42 29.79 69.56 29.82 69.69ZM 29.32 69.13C 29.48 68.81 29.59 68.56 29.71 68.32 29.67 68.29 29.63 68.27 29.59 68.24 29.4 68.36 29.21 68.48 28.97 68.64 29.08 68.8 29.19 68.94 29.32 69.13ZM 28.9 67.83C 29.35 67.12 29.35 67.08 28.9 66.54 28.9 66.96 28.9 67.32 28.9 67.83ZM 28.89 60.3C 29.02 58.66 29.18 57.02 29.28 55.38 29.35 54.14 29.35 52.9 29.39 51.66 29.43 50.17 29.53 48.68 29.49 47.2 29.46 45.64 29.54 44.08 29.37 42.51 29.17 40.78 29.21 39.02 29.12 37.28 29.08 36.42 29 35.56 28.88 34.71 28.74 33.81 28.55 32.92 28.37 32.02 28.28 31.59 28.15 31.16 28.05 30.73 27.85 31.92 27.75 33.08 27.66 34.24 27.54 35.88 27.36 37.52 27.33 39.16 27.3 41.34 27.39 43.52 27.44 45.69 27.46 46.93 27.46 48.18 27.53 49.42 27.69 52.2 27.88 54.98 28.09 57.76 28.2 59.11 28.38 60.46 28.53 61.81 28.61 61.8 28.69 61.8 28.77 61.79 28.81 61.29 28.85 60.79 28.89 60.3ZM 28.21 28.17C 28.27 28.54 28.31 28.81 28.38 29.25 28.75 28.64 28.75 28.64 28.21 28.17ZM 28.58 68.97C 28.53 68.29 28.4 67.61 28.44 66.93 28.52 65.61 28.56 64.32 28.3 63 27.67 59.68 27.56 56.3 27.31 52.94 27.19 51.27 27.14 49.6 27.07 47.93 26.99 45.93 26.9 43.93 26.86 41.92 26.82 39.64 26.85 37.36 27.13 35.09 27.36 33.15 27.47 31.2 27.58 29.25 27.63 28.37 27.63 27.47 27.53 26.59 27.36 25.21 27.06 23.85 26.86 22.47 26.7 21.4 26.62 20.32 26.5 19.24 26.48 19.24 26.46 19.24 26.44 19.25 26.43 19.32 26.41 19.39 26.41 19.47 26.3 21.34 26.21 23.22 26.09 25.09 26.02 26.02 25.86 26.95 25.79 27.88 25.62 30.08 25.49 32.29 25.32 34.49 25.25 35.47 25.06 36.45 25.02 37.44 24.95 39.06 24.95 40.68 24.94 42.3 24.93 44.1 24.93 45.9 24.95 47.7 24.98 50.05 24.99 52.41 25.11 54.76 25.27 58.08 25.66 61.38 26.42 64.62 26.7 65.82 27.07 67.01 27.45 68.19 27.62 68.71 27.91 69.18 28.58 69.37 28.58 69.17 28.58 69.07 28.58 68.97ZM 24.31 22.23C 24.13 23.99 23.92 25.75 23.75 27.52 23.72 27.82 23.81 28.13 23.86 28.49 23.47 28.64 23.54 29.07 23.51 29.42 23.27 32.17 23.05 34.93 22.86 37.68 22.77 39.05 22.75 40.42 22.72 41.79 22.69 43.96 22.67 46.14 22.66 48.32 22.66 49.29 22.67 50.25 22.75 51.21 22.85 52.42 23.07 53.62 23.17 54.84 23.47 58.59 24.23 62.26 25.14 65.91 25.43 67.1 25.96 68.19 26.64 69.21 26.89 69.58 27.17 69.91 27.69 69.76 27.43 69.22 27.13 68.75 26.96 68.24 26.1 65.71 25.52 63.11 25.23 60.46 24.96 57.94 24.74 55.42 24.62 52.89 24.49 50.38 24.49 47.87 24.46 45.36 24.45 44.05 24.46 42.73 24.51 41.41 24.59 39.51 24.5 37.61 24.76 35.72 24.86 34.92 24.94 34.11 24.98 33.3 25.11 30.77 25.31 28.24 25.57 25.72 25.81 23.45 25.84 21.17 25.95 18.89 25.98 18.21 25.95 17.53 25.95 16.81 25.66 16.7 25.34 16.58 24.94 16.43 24.86 16.98 24.76 17.45 24.71 17.92 24.57 19.35 24.45 20.79 24.31 22.23ZM 29.43 13.1C 29.87 13.27 30.27 13.31 30.55 12.91 30.65 12.77 30.7 12.51 30.63 12.36 30.54 12.15 30.32 12.04 30.05 12.15 29.81 12.24 29.55 12.32 29.27 12.42 29.33 12.68 29.38 12.89 29.43 13.1ZM 29.45 11.74C 27.98 9.25 25.8 8.31 23.18 8.51 21.28 8.65 19.56 9.51 17.94 10.5 17.85 10.55 17.84 10.73 17.79 10.85 17.82 10.9 17.86 10.95 17.89 11 18.49 10.78 19.1 10.57 19.7 10.33 20.22 10.13 20.73 9.88 21.27 9.75 22.08 9.56 22.86 9.74 23.49 10.3 23.78 10.55 23.97 10.92 24.2 11.22 24.65 10.97 25.06 10.62 25.53 10.51 25.99 10.4 26.5 10.54 27.09 10.57 26.56 10.09 26.02 9.8 25.42 9.69 24.74 9.58 24.06 9.51 23.38 9.46 23.16 9.45 23.04 9.4 23.03 9.18 23.02 8.93 23.19 8.78 23.41 8.81 24.29 8.94 25.19 9 26.02 9.26 26.61 9.44 27.17 9.83 27.63 10.25 28.12 10.69 28.78 11 29.02 11.69 29.03 11.74 29.22 11.72 29.45 11.74ZM 28.95 20.87C 28.83 19.56 28.72 18.25 28.7 16.94 28.67 15.83 28.77 14.72 28.83 13.61 28.87 12.95 28.81 12.29 28.26 11.88 27.57 11.35 26.76 11.02 25.86 11.04 25.66 11.04 25.44 11.1 25.28 11.21 23.83 12.11 23.48 13.42 23.91 14.95 23.95 15.09 24.05 15.25 24.16 15.32 24.66 15.62 25.15 16.04 25.69 16.14 26.56 16.3 26.8 16.8 26.84 17.54 26.86 17.77 26.91 17.99 26.94 18.22 27.05 19.3 27.14 20.38 27.26 21.46 27.41 22.72 27.56 23.97 27.77 25.22 27.89 25.96 28 26.72 28.39 27.41 28.65 27.42 28.9 27.45 29.16 27.44 29.28 27.44 29.4 27.39 29.55 27.36 29.57 27.23 29.6 27.18 29.59 27.14 29.38 25.05 29.15 22.96 28.95 20.87ZM 29.81 28.29C 29.33 28.67 29.33 28.67 29.71 29.17 30.12 28.69 30.12 28.69 29.81 28.29ZM 30.45 29.15C 29.85 29.82 29.85 29.91 30.47 30.38 30.59 30.17 30.71 29.95 30.83 29.73 30.7 29.52 30.58 29.34 30.45 29.15ZM 31.32 28.01C 30.72 28.54 30.72 28.54 31.08 29.05 31.5 28.54 31.51 28.5 31.32 28.01ZM 31.73 29.22C 31.43 29.78 31.43 29.78 31.87 30.24 31.82 29.84 31.78 29.58 31.73 29.22ZM 31.68 31.57C 31.37 31.9 31.28 32.24 31.6 32.71 32.04 32.12 32.04 32.12 31.68 31.57ZM 32.3 32.99C 31.93 33.37 31.93 33.37 32.34 33.76 32.33 33.44 32.31 33.22 32.3 32.99ZM 31.97 35.15C 32.12 35.52 32.24 35.82 32.41 36.25 32.74 35.44 32.69 35.35 31.97 35.15ZM 32.38 37.36C 32.12 37.75 32.14 38.02 32.46 38.29 32.9 37.93 32.62 37.68 32.38 37.36ZM 32.6 40.56C 32.73 40.11 32.73 40.11 32.44 39.66 32.17 40.1 32.17 40.11 32.6 40.56ZM 32.48 42.18C 32.05 42.49 32.3 42.82 32.43 43.15 32.89 42.68 32.89 42.68 32.48 42.18ZM 33.22 40.92C 32.69 41.46 32.69 41.47 33.22 42.01 33.22 41.63 33.22 41.33 33.22 40.92ZM 33.27 42.93C 33.02 43.45 32.62 43.79 33.09 44.31 33.22 43.87 33.53 43.55 33.27 42.93ZM 33.53 45.36C 32.62 45.76 32.62 45.77 33.09 46.68 33.52 46.05 33.56 45.93 33.53 45.36ZM 33.23 48.85C 33.23 48.52 33.23 48.29 33.23 48.06 33.16 48.05 33.1 48.05 33.04 48.05 32.83 48.3 32.8 48.53 33.23 48.85ZM 33.71 49.16C 33.18 49.52 33.77 49.88 33.52 50.2 33.36 50.24 33.18 50.28 32.9 50.35 33.04 50.66 33.15 50.91 33.28 51.2 33.85 50.56 33.75 49.9 33.71 49.16ZM 26.54 14.24C 26.07 14.25 25.61 13.75 25.6 13.24 25.6 12.64 26.02 12.3 26.73 12.3 27.2 12.3 27.63 12.7 27.62 13.13 27.62 13.58 26.98 14.23 26.54 14.24ZM 26.44 12.76C 26.15 13.18 26.12 13.42 26.37 13.54 26.71 13.7 26.88 13.47 27.07 13.14 26.81 12.99 26.62 12.87 26.44 12.76ZM 24.6 28.8C 24.5 28.72 24.31 28.64 24.31 28.56 24.32 28.45 24.46 28.34 24.54 28.24 24.61 28.28 24.68 28.33 24.75 28.37 24.7 28.51 24.65 28.66 24.6 28.8ZM 24.38 29.72C 24.34 29.93 24.22 30.12 24.07 30.47 23.93 30.22 23.78 30.07 23.81 29.97 23.87 29.78 24.03 29.61 24.15 29.43 24.23 29.53 24.4 29.64 24.38 29.72ZM 24.42 31.08C 24.16 31.28 24.01 31.4 23.82 31.54 23.75 31.41 23.66 31.32 23.67 31.25 23.7 31.1 23.79 30.97 23.85 30.83 24.01 30.9 24.16 30.97 24.42 31.08ZM 24.02 33.44C 24 33.44 23.98 33.45 23.96 33.45 23.99 33.64 24.05 33.82 24.04 34.01 24.04 34.09 23.88 34.22 23.8 34.21 23.72 34.21 23.56 34.05 23.57 33.99 23.68 33.57 23.6 33.18 23.49 32.78 23.47 32.71 23.6 32.6 23.66 32.51 23.75 32.58 23.9 32.63 23.92 32.72 23.98 32.95 23.99 33.2 24.02 33.44ZM 23.82 34.84C 23.75 34.94 23.68 35.05 23.61 35.15 23.54 35.1 23.47 35.05 23.4 35 23.49 34.9 23.58 34.8 23.66 34.71 23.71 34.75 23.77 34.8 23.82 34.84ZM 23.88 35.16C 24.03 35.33 24.18 35.45 24.16 35.49 23.99 35.9 23.78 36.29 23.55 36.74 22.97 36.02 23.74 35.72 23.88 35.16ZM 23.56 39.08C 23.54 39.16 23.41 39.22 23.31 39.25 23.28 39.26 23.16 39.11 23.17 39.05 23.19 38.96 23.28 38.88 23.39 38.73 23.48 38.9 23.59 39.01 23.56 39.08ZM 23.56 44.67C 23.57 44.76 23.52 44.86 23.49 44.96 23.43 44.92 23.37 44.88 23.31 44.84 23.25 44.74 23.19 44.64 23.12 44.55 23.22 44.49 23.31 44.43 23.41 44.37 23.46 44.47 23.54 44.56 23.56 44.67ZM 23.38 47.55C 23.6 47.66 23.7 47.81 23.53 48.02 23.48 48.08 23.31 48.12 23.28 48.08 23.09 47.88 23.1 47.68 23.38 47.55ZM 23.7 52.32C 23.65 52.34 23.6 52.36 23.54 52.38 23.44 52.26 23.33 52.13 23.18 51.96 23.37 51.88 23.51 51.81 23.75 51.71 23.73 51.98 23.72 52.15 23.7 52.32ZM 23.49 49.59C 23.43 49.51 23.33 49.44 23.32 49.36 23.32 49.3 23.43 49.2 23.5 49.18 23.56 49.16 23.65 49.24 23.79 49.31 23.65 49.44 23.57 49.51 23.49 49.59ZM 23.79 41.33C 23.52 41 23.55 40.81 23.99 40.7 24.16 40.99 24.08 41.17 23.79 41.33ZM 23.73 37.68C 23.81 37.75 23.95 37.83 23.95 37.91 23.95 38 23.82 38.08 23.72 38.21 23.62 38.09 23.5 38 23.52 37.95 23.55 37.85 23.66 37.77 23.73 37.68ZM 23.46 43.41C 23.4 43.27 23.35 43.14 23.29 43.01 23.37 42.98 23.45 42.94 23.53 42.91 23.59 43.03 23.65 43.15 23.68 43.28 23.68 43.31 23.53 43.36 23.46 43.41ZM 23.92 40.29C 23.93 40.38 23.86 40.48 23.78 40.68 23.61 40.38 23.5 40.27 23.51 40.18 23.52 40.11 23.68 40.06 23.77 40 23.82 40.1 23.9 40.19 23.92 40.29ZM 24.1 53.52C 23.95 53.62 23.86 53.74 23.77 53.73 23.68 53.73 23.6 53.6 23.51 53.52 23.6 53.45 23.67 53.31 23.76 53.31 23.85 53.3 23.95 53.42 24.1 53.52ZM 24.34 32.03C 24.42 32.18 24.51 32.27 24.51 32.36 24.51 32.42 24.36 32.55 24.33 32.54 24.23 32.5 24.12 32.41 24.09 32.32 24.08 32.26 24.22 32.17 24.34 32.03ZM 14.54 63.97C 14.5 64.78 14.55 65.59 14.47 66.39 14.31 68.17 14.11 69.95 13.88 71.73 13.77 72.5 13.54 73.26 13.4 74.04 13.16 75.37 12.52 76.52 11.81 77.63 10.84 79.18 10.26 79.09 8.5 78.9 8.21 78.87 7.93 78.85 7.65 78.82 7.37 78.58 7.1 78.27 6.76 78.09 5.91 77.64 5.67 76.79 5.32 76.02 5.14 75.6 5.06 75.14 4.92 74.71 4.83 74.4 4.76 74.06 4.59 73.79 4.41 73.51 4.37 73.31 4.45 72.96 4.54 72.6 4.37 72.17 4.3 71.78 3.78 68.91 3.34 66.03 3.26 63.11 3.17 60.22 3.09 57.33 3.13 54.45 3.17 52.27 3.36 50.1 3.55 47.93 3.7 46.09 3.96 44.26 4.13 42.42 4.23 41.36 4.24 40.3 4.32 39.24 4.43 37.8 4.57 36.36 4.69 34.92 4.92 32.29 5.1 29.67 4.62 27.04 4.33 25.41 4.42 23.75 4.68 22.12 4.96 20.42 4.62 18.83 3.75 17.37 3.07 16.21 2.3 15.11 1.63 13.95 0.97 12.81 0.41 11.62 0.09 10.34-0 9.98-0.06 9.58-0 9.22 0.16 8.12 0.34 7.02 0.6 5.94 0.85 4.86 1.58 4.12 2.53 3.6 3.09 3.29 3.74 3.29 4.36 3.36 4.84 3.42 5.2 3.77 5.25 4.27 5.33 4.97 5.36 5.68 5.36 6.38 5.35 7.22 5.29 8.06 5.25 8.89 5.18 10.25 5.77 11.32 6.63 12.32 7.61 13.45 8.54 14.63 9.47 15.8 10.39 16.96 10.73 18.38 11.19 19.75 11.68 21.17 11.93 22.63 11.97 24.14 12.01 26.09 12.15 28.03 12.21 29.99 12.26 31.88 12.26 33.79 12.3 35.69 12.31 36.25 12.19 36.85 12.63 37.34 12.66 37.36 12.66 37.43 12.64 37.47 12.28 38.49 12.65 39.49 12.76 40.49 12.8 40.83 12.78 41.18 12.83 41.52 12.97 42.47 13.17 43.41 13.29 44.36 13.4 45.23 13.45 46.11 13.52 46.98 13.57 47.58 13.6 47.64 14.04 48.02 13.6 48.85 13.77 49.71 14 50.57 14.02 50.66 14.08 50.77 14.06 50.86 13.84 52.08 14.38 53.25 14.33 54.48 14.29 55.33 14.39 56.2 14.44 57.06 14.47 57.56 14.52 58.06 14.57 58.57 14.58 58.69 14.65 58.83 14.61 58.94 14.24 60.04 14.58 61.16 14.51 62.26 14.49 62.56 14.68 62.87 14.75 63.1 14.67 63.43 14.55 63.7 14.54 63.97ZM 13.58 60.77C 13.23 61.48 13.23 61.48 13.74 61.75 13.83 61.42 14.17 61.08 13.58 60.77ZM 8.76 61.53C 8.85 61.37 8.87 61.2 8.9 61.03 9.12 59.97 8.87 58.88 9.08 57.82 9.15 57.45 9.17 57.07 9.2 56.69 9.22 56.4 9.2 56.12 8.81 55.96 8.92 57.86 8.58 59.69 8.76 61.53ZM 10.78 71.33C 11.16 70.47 11.16 70.47 10.69 70.11 10.19 70.83 10.19 70.83 10.78 71.33ZM 10.79 73.2C 11.04 72.85 11.04 72.85 10.91 72.51 10.79 72.71 10.48 72.86 10.79 73.2ZM 13.43 65.05C 13.5 64.72 13.94 64.45 13.41 64.05 13.06 64.73 13.06 64.73 13.43 65.05ZM 13.42 67.27C 13.53 66.88 13.63 66.54 13.72 66.2 13.1 66.71 13.07 66.83 13.42 67.27ZM 13.26 63.05C 13.57 62.34 13.57 62.34 12.99 62.01 12.69 62.42 12.8 62.74 13.26 63.05ZM 9.07 41.7C 9.59 41.15 9.59 41.15 9.02 40.82 9.04 41.14 9.05 41.42 9.07 41.7ZM 8.94 52.88C 8.94 53.73 8.94 54.59 8.94 55.45 9.22 54.59 9.09 53.73 8.94 52.88ZM 9.42 44.11C 9.65 43.68 9.82 43.36 10.01 43.02 9.83 42.86 9.68 42.73 9.51 42.59 9.22 43.07 9.09 43.5 9.42 44.11ZM 9.7 68.24C 10.02 67.62 10.02 67.62 9.44 67.27 9.33 67.54 9.25 67.74 9.15 67.98 9.35 68.07 9.53 68.16 9.7 68.24ZM 9.12 68.64C 9.11 68.93 9.09 69.22 9.08 69.51 9.35 69.26 9.52 69 9.35 68.68 9.27 68.67 9.2 68.66 9.12 68.64ZM 10.05 64.48C 10.13 64.22 10.2 64.01 9.8 63.86 9.64 64.17 9.5 64.45 9.34 64.76 9.79 64.94 9.95 64.81 10.05 64.48ZM 9.27 65.08C 9.27 65.54 9.27 65.84 9.27 66.14 9.43 65.84 9.87 65.56 9.27 65.08ZM 10.79 60.25C 10.88 60.01 10.96 59.79 11.07 59.49 10.9 59.34 10.74 59.19 10.53 58.99 10.08 59.71 10.08 59.71 10.79 60.25ZM 10.9 62.36C 11.02 62 11.42 61.74 10.91 61.34 10.79 61.69 10.44 61.95 10.9 62.36ZM 10.23 55.82C 10.58 55.11 10.56 55.03 9.91 54.61 9.6 55.26 9.6 55.26 10.23 55.82ZM 9.72 58.28C 9.49 58.58 9.49 58.89 9.66 59.33 10.12 58.66 10.12 58.66 9.72 58.28ZM 10.33 56.95C 10 57.43 10 57.43 10.29 57.95 10.68 57.32 10.68 57.32 10.33 56.95ZM 10.44 62.66C 10.21 63 9.99 63.24 10.4 63.59 10.47 63.26 10.74 63.04 10.44 62.66ZM 9.92 60.35C 9.79 60.65 9.69 60.89 9.56 61.17 9.77 61.32 9.96 61.46 10.15 61.59 10.57 60.88 10.57 60.88 9.92 60.35ZM 9.43 61.72C 9.43 62.1 9.43 62.47 9.43 62.89 10.04 62.38 10.04 62.28 9.43 61.72ZM 9.7 53.78C 9.82 53.43 10.17 53.15 9.93 52.52 9.76 53.02 9.63 53.37 9.51 53.72 9.57 53.74 9.64 53.76 9.7 53.78ZM 9.57 50.63C 9.57 50.92 9.57 51.19 9.57 51.62 10.02 50.92 10.02 50.92 9.57 50.63ZM 10.2 50.27C 10.52 49.87 10.49 49.59 10.08 49.39 9.91 49.64 9.75 49.88 9.55 50.17 9.8 50.21 9.99 50.24 10.2 50.27ZM 10.35 51.32C 10.23 51.58 10.01 51.82 10.33 52.17 10.7 51.58 10.7 51.58 10.35 51.32ZM 10.44 53.2C 10.32 53.52 10.24 53.74 10.16 53.97 10.25 54.09 10.32 54.2 10.41 54.28 10.51 54.38 10.62 54.45 10.74 54.54 11.11 53.86 11.11 53.86 10.44 53.2ZM 11.02 51.96C 10.91 52.19 10.81 52.4 10.68 52.66 10.87 52.87 11.04 53.08 11.23 53.3 11.7 52.52 11.69 52.49 11.02 51.96ZM 10.85 50.16C 10.69 50.46 10.48 50.72 10.92 50.95 11.08 50.67 11.37 50.43 10.85 50.16ZM 10.94 55.62C 10.51 56.17 10.51 56.17 10.82 56.59 11.24 55.98 11.24 55.98 10.94 55.62ZM 10.97 57.73C 10.88 57.96 10.78 58.19 10.67 58.44 10.85 58.65 11 58.83 11.17 59.03 11.78 58.29 11.74 58.11 10.97 57.73ZM 11.44 60.09C 11.15 60.69 11.15 60.69 11.46 60.99 11.77 60.51 11.77 60.51 11.44 60.09ZM 11.62 61.99C 11.24 62.83 11.24 62.83 11.88 63.34 11.98 63.11 12.09 62.9 12.21 62.65 12.02 62.44 11.86 62.25 11.62 61.99ZM 11.1 63.41C 10.69 64.06 10.7 64.08 11.35 64.51 11.68 63.94 11.68 63.94 11.1 63.41ZM 10.54 64.57C 10.43 64.83 10.34 65.04 10.23 65.29 10.41 65.46 10.58 65.62 10.76 65.79 11.16 65.12 11.16 65.12 10.54 64.57ZM 10.07 65.97C 9.69 66.67 9.69 66.67 10.22 66.96 10.56 66.36 10.56 66.36 10.07 65.97ZM 9.47 46.35C 9.74 46.14 9.76 45.97 9.39 45.83 9.43 46.05 9.45 46.2 9.47 46.35ZM 9.51 48.52C 10.13 48.1 10.16 47.94 9.72 47.44 9.65 47.82 9.59 48.12 9.51 48.52ZM 9.95 45.5C 10.23 45.19 10.14 45 9.8 44.81 9.56 45.16 9.66 45.34 9.95 45.5ZM 10.28 47.26C 10.47 46.95 10.6 46.7 10.16 46.48 9.97 46.9 9.97 46.9 10.28 47.26ZM 10.67 49.1C 11.03 48.74 10.92 48.46 10.49 48.2 10.28 48.72 10.28 48.72 10.67 49.1ZM 10.71 46.25C 10.99 45.89 10.94 45.69 10.59 45.53 10.43 45.91 10.43 45.91 10.71 46.25ZM 10.87 47.24C 10.61 47.58 10.7 47.84 11.13 48.04 11.42 47.5 11.42 47.5 10.87 47.24ZM 11.27 49.1C 11.19 49.36 10.89 49.64 11.43 49.86 11.71 49.35 11.71 49.35 11.27 49.1ZM 11.53 50.9C 11.25 51.42 11.25 51.42 11.79 52 12.11 51.26 12.11 51.26 11.53 50.9ZM 11.41 54.27C 11.23 54.64 10.93 54.93 11.46 55.3 11.67 54.91 11.83 54.61 11.41 54.27ZM 11.55 56.29C 11.44 56.55 11.33 56.8 11.22 57.05 11.44 57.29 11.62 57.49 11.86 57.75 12.32 56.89 12.32 56.89 11.55 56.29ZM 12.06 58.83C 11.62 59.42 11.62 59.42 12.05 59.8 12.15 59.48 12.46 59.21 12.06 58.83ZM 12.16 60.9C 11.79 61.52 11.79 61.52 12.24 61.97 12.28 62.02 12.35 62.03 12.42 62.06 12.48 61.97 12.52 61.91 12.55 61.84 12.61 61.73 12.65 61.61 12.72 61.42 12.52 61.23 12.35 61.07 12.16 60.9ZM 12.54 63.09C 12.12 63.87 12.13 63.87 12.76 64.28 12.86 64.08 12.95 63.88 13.07 63.64 12.89 63.46 12.73 63.28 12.54 63.09ZM 12.9 65.36C 12.45 66.05 12.45 66.05 12.85 66.37 12.88 66.04 13.33 65.79 12.9 65.36ZM 12.43 68.64C 12.33 68.98 12.26 69.18 12.2 69.39 12.25 69.42 12.31 69.45 12.37 69.48 12.59 69.29 12.72 69.09 12.43 68.64ZM 12.31 67.55C 12.54 67.07 12.54 67.07 12.28 66.69 11.96 67.04 11.86 67.32 12.31 67.55ZM 12.21 65.59C 12.55 64.85 12.54 64.81 11.94 64.46 11.65 65.08 11.65 65.08 12.21 65.59ZM 11.44 65.63C 11.02 66.2 11.02 66.2 11.61 66.73 12.01 66.14 12.01 66.14 11.44 65.63ZM 10.85 66.88C 10.55 67.47 10.55 67.47 11.07 67.94 11.51 67.28 11.5 67.22 10.85 66.88ZM 10.39 68.09C 10.01 68.64 10.01 68.64 10.53 69.12 10.9 68.5 10.9 68.5 10.39 68.09ZM 9.85 69.31C 9.48 70.05 9.48 70.05 9.89 70.44 10.44 69.7 10.44 69.7 9.85 69.31ZM 10.21 42.43C 10.34 41.97 10.34 41.97 9.85 41.66 9.6 42.1 10.02 42.18 10.21 42.43ZM 9.99 44.21C 10.14 44.33 10.25 44.42 10.4 44.54 10.81 43.74 10.81 43.74 10.29 43.48 10.19 43.72 10.09 43.96 9.99 44.21ZM 10.99 43.19C 11.16 42.78 11.16 42.78 10.78 42.6 10.55 42.87 10.69 43.03 10.99 43.19ZM 11.25 45.22C 11.36 44.9 11.76 44.6 11.22 44.23 10.76 44.91 10.76 44.93 11.25 45.22ZM 11.3 46.33C 11.21 46.72 11.21 46.72 11.54 47.03 11.78 46.6 11.78 46.6 11.3 46.33ZM 11.9 48.81C 12.2 48.45 12.06 48.24 11.75 48.06 11.44 48.37 11.54 48.59 11.9 48.81ZM 12.24 50.71C 12.5 50.19 12.5 50.19 12.06 49.82 11.73 50.32 11.73 50.32 12.24 50.71ZM 11.95 53.01C 11.62 53.69 11.62 53.69 11.96 54.04 12.35 53.45 12.35 53.45 11.95 53.01ZM 12.1 55.15C 11.73 55.77 11.73 55.77 12.43 56.47 12.55 56.21 12.65 55.97 12.75 55.75 12.56 55.55 12.43 55.4 12.29 55.26 12.24 55.21 12.16 55.19 12.1 55.15ZM 12.64 57.43C 12.48 57.81 12.05 58.1 12.51 58.58 12.69 58.2 13.13 57.91 12.64 57.43ZM 12.68 59.58C 12.29 60.44 12.3 60.48 12.96 60.85 13.26 60.25 13.26 60.25 12.68 59.58ZM 12.87 67.65C 12.7 67.87 12.57 68.09 12.91 68.47 12.99 68.14 13.04 67.92 13.09 67.7 13.01 67.68 12.94 67.67 12.87 67.65ZM 12.56 70.6C 12.18 71.06 12.27 71.42 12.71 71.78 12.82 71.49 12.93 71.23 13.06 70.93 12.95 70.85 12.87 70.78 12.79 70.73 12.73 70.69 12.66 70.66 12.56 70.6ZM 12.06 71.8C 11.67 72.58 11.67 72.58 12.17 72.89 12.5 72.32 12.5 72.32 12.06 71.8ZM 11.92 70.64C 12.11 70.41 12.24 70.21 11.96 69.94 11.86 70.15 11.58 70.36 11.92 70.64ZM 11.82 68.76C 12.09 68.28 12.09 68.28 11.75 67.84 11.42 68.41 11.42 68.41 11.82 68.76ZM 11.22 69.01C 10.9 69.52 10.9 69.52 11.36 69.87 11.65 69.52 11.59 69.25 11.22 69.01ZM 10.29 75.96C 10.12 76.24 9.88 76.49 10.35 76.82 10.54 76.48 10.77 76.21 10.29 75.96ZM 10.08 74.74C 10.62 74.09 10.63 74.04 10.24 73.56 10.2 73.98 9.83 74.24 10.08 74.74ZM 10.28 72.43C 10.56 72.07 10.55 71.77 10.06 71.51 9.76 72.12 9.76 72.12 10.28 72.43ZM 9.57 72.7C 9.14 73.54 9.14 73.54 9.52 73.95 10.07 73.21 10.07 73.14 9.57 72.7ZM 9.41 71.59C 9.68 71.04 9.68 71.04 9.27 70.78 8.96 71.24 8.96 71.24 9.41 71.59ZM 8.79 72.02C 8.79 72.42 8.79 72.7 8.79 73.05 9.19 72.38 9.19 72.38 8.79 72.02ZM 8.86 74.2C 8.66 74.56 8.49 74.85 8.98 75.08 9.18 74.76 9.37 74.48 8.86 74.2ZM 8.73 38.97C 8.81 39.36 8.86 39.61 8.93 39.94 9.33 39.27 9.33 39.27 8.73 38.97ZM 8.94 38.34C 9.1 38.35 9.26 38.34 9.45 38.34 9.35 38.09 9.27 37.9 9.18 37.7 8.99 37.71 8.83 37.73 8.62 37.74 8.63 38.03 8.57 38.29 8.94 38.34ZM 9.38 40.21C 9.56 40.34 9.71 40.45 9.86 40.57 10.03 40.12 10.03 40.12 9.72 39.66 9.57 39.9 9.48 40.05 9.38 40.21ZM 10.37 39.62C 10.47 39.4 10.52 39.29 10.6 39.11 10.36 39.12 10.21 39.14 9.97 39.15 10.12 39.32 10.21 39.42 10.37 39.62ZM 10.54 40.5C 10.06 41.14 10.06 41.14 10.69 41.55 10.8 41.36 10.9 41.17 11.03 40.94 10.85 40.78 10.7 40.65 10.54 40.5ZM 11.26 40.38C 11.62 39.82 11.62 39.82 11.24 39.44 10.69 39.99 10.69 40 11.26 40.38ZM 11.47 41.42C 11.01 41.89 11.01 41.89 11.46 42.32 11.59 41.97 11.91 41.7 11.47 41.42ZM 11.63 43.22C 11.35 43.56 11.4 43.78 11.82 43.97 12.03 43.63 12.11 43.38 11.63 43.22ZM 11.93 44.99C 11.78 45.28 11.67 45.52 11.56 45.73 11.72 45.93 11.83 46.08 12.02 46.33 12.16 45.79 12.59 45.44 11.93 44.99ZM 12.2 47.13C 12.01 47.45 11.88 47.65 12.24 47.79 12.29 47.8 12.37 47.74 12.49 47.69 12.4 47.52 12.33 47.37 12.2 47.13ZM 12.68 49.66C 12.91 49.29 12.98 49.03 12.52 48.89 12.35 49.27 12.35 49.27 12.68 49.66ZM 13.12 51.58C 13.4 51.17 13.36 50.89 12.95 50.7 12.66 51.2 12.66 51.2 13.12 51.58ZM 12.52 51.75C 12.12 52.44 12.12 52.44 12.54 52.8 12.97 52.15 12.97 52.15 12.52 51.75ZM 12.73 53.81C 12.22 54.58 12.22 54.58 12.93 55.14 13.04 54.88 13.15 54.64 13.27 54.39 13.09 54.19 12.94 54.03 12.73 53.81ZM 13.14 56.15C 13.02 56.56 12.65 56.86 13.08 57.21 13.55 56.63 13.55 56.63 13.14 56.15ZM 13.29 58.25C 12.77 59.1 12.77 59.12 13.38 59.66 14.03 58.87 14.02 58.7 13.29 58.25ZM 13.46 68.5C 13.33 68.93 13.33 68.93 13.7 69.13 13.73 68.87 13.9 68.58 13.46 68.5ZM 13.08 69.48C 12.78 70.01 12.78 70.01 13.2 70.38 13.52 69.85 13.52 69.85 13.08 69.48ZM 13.36 71.77C 13.33 71.76 13.29 71.75 13.26 71.74 13.21 71.89 13.15 72.03 13.12 72.19 13.11 72.21 13.2 72.27 13.31 72.36 13.33 72.12 13.34 71.94 13.36 71.77ZM 12.92 73.57C 13 73.38 13.08 73.18 13.12 72.98 13.13 72.91 13.04 72.81 12.94 72.63 12.78 72.86 12.72 72.92 12.71 72.98 12.68 73.16 12.67 73.35 12.68 73.53 12.68 73.55 12.91 73.59 12.92 73.57ZM 12.34 74.67C 12.45 74.45 12.77 74.26 12.34 73.96 12 74.48 12 74.48 12.34 74.67ZM 11.82 75.77C 11.94 75.56 12 75.36 11.62 75.26 11.5 75.53 11.38 75.79 11.25 76.05 11.66 76.3 11.71 75.98 11.82 75.77ZM 11.58 74.16C 11.98 73.49 11.98 73.49 11.43 73.19 11.27 73.52 11.04 73.86 11.58 74.16ZM 11.31 72.19C 11.55 71.79 11.75 71.5 11.59 71.02 11.28 71.37 11.08 71.66 11.31 72.19ZM 10.92 74.48C 10.89 74.84 10.3 75.16 10.82 75.62 11.32 74.98 11.33 74.93 10.92 74.48ZM 11.18 76.92C 11.18 76.88 11.07 76.84 10.98 76.77 10.9 76.94 10.83 77.09 10.71 77.36 11.19 77.19 11.2 77.18 11.18 76.92ZM 10.04 78.24C 10.32 78.43 10.6 78.47 10.75 78.1 10.66 78.17 10.58 78.23 10.5 78.29 10.23 78.01 9.96 77.72 9.69 77.43 9.52 77.7 9.57 77.94 10.04 78.24ZM 9.61 75.95C 9.85 75.48 9.85 75.48 9.65 75.09 9.43 75.36 9.19 75.59 9.61 75.95ZM 9.14 77.11C 9.41 76.79 9.49 76.54 9.04 76.26 8.88 76.59 8.74 76.85 9.14 77.11ZM 8.45 78.1C 8.53 78.15 8.71 78.15 8.78 78.09 8.85 78.03 8.89 77.86 8.86 77.76 8.82 77.63 8.71 77.52 8.55 77.29 8.44 77.53 8.34 77.66 8.32 77.8 8.31 77.89 8.37 78.05 8.45 78.1ZM 8.3 76.3C 8.65 75.76 8.65 75.76 8.3 75.49 8.3 75.73 8.3 75.94 8.3 76.3ZM 7.59 77.34C 7.59 76.8 7.53 76.38 7.6 75.97 7.84 74.4 8.14 72.83 8.38 71.26 8.5 70.48 8.6 69.69 8.56 68.91 8.54 68.56 8.51 68.25 8.61 67.9 8.68 67.66 8.66 67.38 8.61 67.12 8.57 66.86 8.37 66.62 8.36 66.37 8.27 64.78 8.17 63.18 8.16 61.59 8.15 60.17 8.27 58.75 8.3 57.33 8.33 56.19 8.31 55.05 8.34 53.91 8.37 52.95 8.44 51.99 8.52 51.03 8.64 49.42 8.81 47.81 8.89 46.2 8.93 45.39 8.86 44.57 8.78 43.77 8.65 42.51 8.45 41.26 8.3 40.01 8.18 38.93 8.09 37.85 7.98 36.73 7.66 36.8 7.4 36.78 7.4 36.38 7.4 36.29 7.33 36.21 7.29 36.13 7.28 36.13 7.28 36.12 7.27 36.12 7.28 36.12 7.28 36.12 7.28 36.11 7.28 36.11 7.3 36.13 7.3 36.13 7.3 36.13 7.3 36.13 7.3 36.13 7.3 36.13 7.3 36.13 7.3 36.13 7.03 35.54 7.68 35.78 7.85 35.53 7.6 33.92 7.57 32.25 7.2 30.5 6.47 31.11 6.96 31.81 6.76 32.36 6.95 32.47 7.17 32.52 7.21 32.63 7.31 32.93 7.06 32.94 6.85 32.95 6.86 33.07 6.83 33.21 6.89 33.29 6.94 33.37 7.1 33.37 7.26 33.41 7.07 33.8 7.49 34.22 7.01 34.61 6.89 34.31 6.79 34.07 6.67 33.77 6.64 33.92 6.61 34.01 6.6 34.1 6.45 35.46 6.32 36.82 6.16 38.18 6.01 39.56 5.81 40.94 5.67 42.33 5.49 44.04 5.39 45.76 5.17 47.47 4.89 49.56 4.93 51.67 4.8 53.76 4.77 54.2 5.06 54.71 4.91 55.07 4.69 55.63 4.79 56.16 4.75 56.7 4.57 59.16 4.59 61.61 4.88 64.06 5.03 65.37 5.12 66.68 5.24 67.99 5.5 70.64 5.72 73.3 6.64 75.83 6.82 76.34 6.97 76.89 7.59 77.34ZM 6.88 28.43C 6.84 28.95 6.64 29.5 7.1 29.95 7.15 29.43 7.16 28.91 6.88 28.43ZM 5.13 35.5C 5.06 36.11 5.05 36.65 5.71 37.03 5.89 35.65 6.15 34.3 6.23 32.95 6.33 31.26 6.29 29.55 6.3 27.86 6.3 27.67 6.24 27.46 6.14 27.3 5.84 26.83 5.51 26.39 5.19 25.94 5.14 25.95 5.09 25.96 5.05 25.97 5.09 26.35 5.12 26.72 5.17 27.1 5.24 27.62 5.36 28.15 5.38 28.68 5.46 30.96 5.37 33.24 5.13 35.5ZM 4.65 42.04C 4.56 42.47 4.53 42.88 5.02 43.13 5.15 42.38 5.15 42.38 4.65 42.04ZM 6.52 77.07C 6.28 76.59 6.29 75.99 5.75 75.68 5.96 76.18 5.99 76.77 6.52 77.07ZM 5.48 73.89C 5.39 73.38 5.57 72.91 4.96 72.66 5 73.12 4.98 73.53 5.48 73.89ZM 5.04 71.88C 5.17 71.53 5.03 71.36 4.7 71.22 4.62 71.56 4.76 71.73 5.04 71.88ZM 5 70.5C 5 70 4.95 69.61 4.39 69.53 4.41 70.38 4.41 70.38 5 70.5ZM 4.22 68.65C 4.44 68.68 4.59 68.7 4.75 68.72 4.75 68.35 4.75 68.06 4.75 67.69 4.51 67.62 4.33 67.57 4.05 67.5 4.11 67.94 4.16 68.29 4.22 68.65ZM 4.55 66.97C 4.63 66.34 4.63 66.34 3.96 65.9 3.85 66.61 3.92 66.74 4.55 66.97ZM 4.44 65.45C 4.59 64.82 4.36 64.41 3.76 64.1 3.71 64.75 3.86 65.2 4.44 65.45ZM 4.25 63.68C 4.4 63.12 3.97 62.97 3.76 62.64 3.5 63.24 3.99 63.34 4.25 63.68ZM 3.62 56.11C 3.51 56.77 3.49 57.32 4.08 57.71 4.39 56.71 4.39 56.7 3.62 56.11ZM 4.13 61.99C 4.3 61.59 4.1 61.32 3.79 61.1 3.53 61.56 3.53 61.56 4.13 61.99ZM 4.08 60.49C 4.2 60.03 4.21 59.66 3.6 59.49 3.51 59.99 3.6 60.32 4.08 60.49ZM 3.51 58.23C 3.66 58.48 3.81 58.73 4.03 59.1 4.26 58.45 4.06 58.23 3.51 58.23ZM 4.19 55.92C 4.22 55.25 4.38 54.66 3.64 54.37 3.42 54.99 3.65 55.44 4.19 55.92ZM 4.25 53.97C 4.37 53.4 4.04 53.21 3.76 52.94 3.54 53.47 3.94 53.64 4.25 53.97ZM 4.28 52.47C 4.32 52.21 4.31 51.95 4.39 51.72 4.53 51.25 4.39 50.99 3.91 50.91 3.58 51.63 3.66 52.01 4.28 52.47ZM 4.37 50.6C 4.57 50.04 4.4 49.74 3.91 49.46 3.93 49.92 4.07 50.22 4.37 50.6ZM 4.4 48.94C 4.57 48.16 4.57 48.16 3.99 47.82 3.98 48.26 3.78 48.73 4.4 48.94ZM 4.64 47.45C 4.82 46.9 4.41 46.75 4.18 46.5 3.89 47.02 4.46 47.07 4.64 47.45ZM 4.29 45.06C 4.09 45.61 4.39 45.86 4.71 46.17 4.88 45.68 4.74 45.35 4.29 45.06ZM 4.82 44.84C 5.05 44.04 5.03 44 4.49 43.61 4.24 44.08 4.48 44.42 4.82 44.84ZM 5.22 41.71C 5.03 41.03 5.03 41.03 4.57 40.89 4.79 41.16 4.96 41.38 5.22 41.71ZM 4.59 39.61C 4.87 40.02 5.06 40.29 5.25 40.57 5.32 40.02 5.32 40.02 4.59 39.61ZM 5.57 39.5C 5.48 38.97 5.24 38.67 4.84 38.48 5.12 38.75 5 39.28 5.57 39.5ZM 4.91 37.39C 5.04 37.54 5.16 37.7 5.28 37.85 5.33 37.82 5.37 37.78 5.41 37.75 5.3 37.59 5.18 37.44 5.07 37.28 5.01 37.32 4.96 37.35 4.91 37.39ZM 0.64 8.44C 0.45 8.97 0.44 9.54 0.61 10.11 0.78 10.64 0.95 11.17 1.17 11.67 1.49 12.39 1.8 13.11 2.2 13.79 2.87 14.94 3.6 16.07 4.31 17.2 4.96 18.24 5.24 19.4 5.28 20.6 5.32 21.55 5.24 22.51 5.22 23.46 5.21 23.94 5.12 24.43 5.46 24.84 5.27 23.95 5.46 23.14 6.11 22.48 6.66 21.9 7.14 21.95 7.6 22.58 8.15 23.33 8.04 24.79 7.37 25.46 6.88 25.94 6.58 25.99 5.95 25.69 5.86 25.64 5.78 25.59 5.69 25.54 5.96 25.99 6.13 26.56 6.52 26.85 7.33 27.48 7.57 28.28 7.66 29.23 7.91 31.8 8.21 34.36 8.49 36.98 8.77 37.02 9.03 37.07 9.26 37.11 9.33 37 9.38 36.96 9.38 36.92 9.46 34.77 9.57 32.62 9.61 30.47 9.62 29.49 9.48 28.5 9.42 27.52 9.32 25.84 9.01 24.21 8.57 22.59 8.35 21.79 7.94 21.3 7.14 21.1 6.52 20.94 6.12 20.54 6.03 19.89 5.87 18.81 5.32 17.9 4.81 16.97 4.07 15.61 3.38 14.23 2.7 12.85 2.43 12.31 2.26 11.73 1.8 11.29 1.64 11.14 1.52 10.92 1.44 10.71 1.16 9.96 0.91 9.19 0.64 8.44ZM 6.82 24.71C 6.6 24.38 6.32 24.1 5.96 23.67 5.8 24.36 5.87 24.82 6.26 25.16 6.38 25.26 6.66 25.18 6.87 25.18 6.86 25.02 6.9 24.82 6.82 24.71ZM 7.28 24.38C 7.5 23.38 7.42 23.09 6.86 22.65 6.68 22.8 6.49 22.95 6.24 23.15 6.58 23.56 6.91 23.94 7.28 24.38ZM 10.16 24.57C 10.11 24.13 10.06 23.74 10.01 23.3 9.78 23.3 9.59 23.3 9.34 23.3 9.42 23.68 9.47 24.03 9.55 24.36 9.63 24.7 9.86 24.67 10.16 24.57ZM 2.36 10.76C 2.29 10.67 2.23 10.57 2.16 10.48 2.12 10.5 2.08 10.52 2.04 10.54 2.09 10.65 2.15 10.76 2.2 10.86 2.25 10.83 2.31 10.79 2.36 10.76ZM 2.85 6.92C 2.77 6.1 2.83 5.27 2.83 4.41 2.72 4.49 2.53 4.56 2.45 4.69 2.17 5.16 1.87 5.63 1.67 6.14 1.32 7.07 1.09 8.03 1.35 9.04 1.45 9.41 1.59 9.84 2.03 9.84 2.51 9.85 2.61 9.39 2.68 9.03 2.81 8.33 2.92 7.65 2.85 6.92ZM 2.98 11C 2.84 11.12 2.79 11.37 2.74 11.57 2.72 11.65 2.81 11.76 2.84 11.85 3.42 13.43 4.28 14.86 5.06 16.34 5.49 17.14 6.02 17.91 6.28 18.77 6.84 20.59 6.53 20.11 8.08 20.81 8.1 20.81 8.13 20.8 8.25 20.8 8.55 20.28 8.5 19.73 8.38 19.18 8.01 17.49 7.11 16.06 6.12 14.68 5.52 13.84 4.85 13.05 4.23 12.23 3.97 11.89 3.73 11.54 3.48 11.19 3.35 11.02 3.17 10.84 2.98 11ZM 4.36 4.08C 4.17 3.86 3.9 3.97 3.74 4.11 3.58 4.24 3.44 4.46 3.42 4.65 3.36 5.21 3.31 5.77 3.34 6.32 3.41 7.61 3.37 8.89 3.15 10.17 3.14 10.23 3.17 10.3 3.19 10.4 3.39 10.45 3.58 10.5 3.8 10.56 3.83 10.4 3.85 10.27 3.87 10.15 4.02 9.02 4.18 7.9 4.33 6.77 4.42 6.04 4.52 5.31 4.58 4.58 4.59 4.42 4.47 4.21 4.36 4.08ZM 11.34 22.29C 11.1 21.36 10.91 20.41 10.6 19.5 10.13 18.11 9.61 16.73 8.63 15.58 7.83 14.63 7.05 13.65 6.21 12.74 5.25 11.71 4.62 10.58 4.74 9.13 4.75 9.03 4.67 8.93 4.63 8.83 4.47 9.22 4.43 9.6 4.4 9.97 4.34 11.01 4.52 11.96 5.25 12.79 6.46 14.17 7.54 15.64 8.29 17.33 8.85 18.57 9.27 19.84 8.82 21.22 8.79 21.29 8.78 21.37 8.77 21.44 8.74 21.98 9.08 22.61 9.46 22.66 10.06 22.75 10.67 22.79 11.34 22.85 11.34 22.59 11.37 22.43 11.34 22.29ZM 11.44 23.47C 11.13 23.47 10.88 23.47 10.63 23.47 10.63 23.87 10.63 24.26 10.63 24.66 10.97 24.66 11.23 24.66 11.54 24.66 11.5 24.24 11.47 23.87 11.44 23.47ZM 11.94 36.89C 11.87 35.85 11.77 34.82 11.75 33.78 11.69 31.21 11.67 28.63 11.63 26.05 11.62 25.83 11.58 25.62 11.55 25.35 10.98 25.31 10.45 25.26 9.82 25.21 9.82 25.58 9.8 25.88 9.83 26.17 9.95 27.68 10.14 29.18 10.44 30.68 10.87 32.86 11.21 35.06 11.59 37.28 12 37.31 11.95 37.09 11.94 36.89ZM 9.91 37.21C 10.29 37.23 10.6 37.26 11.06 37.29 10.79 35.55 10.54 33.95 10.29 32.34 10.24 32.34 10.19 32.35 10.14 32.35 10.07 33.95 9.99 35.54 9.91 37.21ZM 11.93 37.93C 11.25 37.88 10.59 37.83 9.93 37.79 9.84 38.01 9.77 38.19 9.65 38.51 10.43 38.46 11.09 38.42 11.74 38.36 12.04 38.33 12.03 38.15 11.93 37.93ZM 12.08 40.1C 11.83 40.47 11.48 40.73 11.93 41.21 12.15 40.83 12.31 40.54 12.08 40.1ZM 12.25 42.99C 12.33 42.62 12.39 42.34 12.46 41.99 11.81 42.34 11.77 42.52 12.25 42.99ZM 12.51 43.87C 12.11 44.54 12.11 44.54 12.55 44.75 12.76 44.26 12.76 44.26 12.51 43.87ZM 12.77 45.93C 12.32 46.53 12.32 46.53 12.66 46.93 12.99 46.34 12.99 46.34 12.77 45.93ZM 12.9 47.99C 12.66 48.31 12.7 48.52 13.08 48.67 13.28 48.36 13.27 48.14 12.9 47.99ZM 13.45 49.58C 13.04 50.18 13.04 50.18 13.52 50.45 13.5 50.17 13.48 49.92 13.45 49.58ZM 13.62 52.51C 13.04 52.54 13.07 53.01 12.93 53.31 13.1 53.54 13.24 53.73 13.4 53.94 13.76 53.42 13.75 52.99 13.62 52.51ZM 13.35 55.74C 13.38 55.85 13.54 55.91 13.78 56.1 13.81 55.58 13.84 55.21 13.87 54.74 13.47 55.14 13.27 55.5 13.35 55.74ZM 13.9 57.2C 13.43 57.74 13.43 57.74 13.98 58.03 13.95 57.75 13.92 57.5 13.9 57.2ZM 2.08 8.69C 2.1 9.08 2.09 9.08 1.64 9.09 1.4 7.76 1.73 6.24 2.47 5.85 2.44 6.13 2.46 6.31 2.4 6.46 2.11 7.18 2.04 7.92 2.08 8.69ZM 7.73 35.09C 7.65 35.2 7.6 35.35 7.55 35.34 7.35 35.33 7.13 35.3 6.94 35.23 6.86 35.2 6.81 35.06 6.75 34.97 6.79 34.93 6.83 34.89 6.87 34.84 7.13 34.92 7.4 35 7.73 35.09ZM 6.7 36.1C 6.95 36.11 7.11 36.12 7.27 36.12 7.14 36.3 7.03 36.65 6.7 36.1Z" fill="rgb(59,59,59)"/></svg>