<?xml version="1.0" encoding="utf-8"?>
<svg xmlns="http://www.w3.org/2000/svg"
	xmlns:xlink="http://www.w3.org/1999/xlink"
	width="58px" height="97px" viewBox="0 0 58 97">
<path fillRule="evenodd" d="M 57.9 93.56C 57.71 94.04 57.53 94.13 57.05 93.96 56.1 93.64 55.33 92.47 55.33 91.31 55.32 90.5 55.41 89.69 55.35 88.89 55.17 86.69 54.98 84.49 54.7 82.3 54.36 79.58 53.94 76.88 53.55 74.17 53.52 73.96 53.51 73.68 53.38 73.57 52.76 73.04 52.85 72.32 52.87 71.66 52.96 68.87 53.14 66.07 53.22 63.28 53.26 61.63 53.13 59.98 53.15 58.33 53.18 55.68 53.28 53.04 53.34 50.39 53.39 48.31 53.48 46.22 53.44 44.14 53.41 41.84 53.24 39.54 53.16 37.24 53.11 35.72 53.11 34.2 53.08 32.68 53.06 31.65 53.02 30.63 52.99 29.6 52.93 27.58 52.86 25.56 52.83 23.54 52.83 22.89 52.89 22.23 52.98 21.58 53.31 19.41 53.7 17.25 53.99 15.07 54.26 13.04 54.44 10.99 54.64 8.95 54.77 7.56 54.87 6.16 54.98 4.76 55.01 4.3 55.03 3.83 55.01 3.36 54.98 2.62 54.79 2.39 54.06 2.2 53.94 2.17 53.81 2.2 53.7 2.16 53.23 2 52.89 1.71 52.76 1.21 52.66 0.82 52.89 0.21 53.21 0.07 53.62-0.12 53.95 0.12 54.18 0.41 54.64 1.02 55.09 1.64 55.49 2.3 55.64 2.54 55.66 2.89 55.67 3.19 55.75 4.68 55.77 6.18 55.89 7.66 56.09 10.17 56.35 12.68 56.58 15.19 56.69 16.39 56.71 17.61 56.9 18.81 57.14 20.36 56.9 21.9 56.93 23.44 56.99 25.68 57.05 27.93 57.08 30.17 57.11 33.15 57.11 36.14 57.11 39.13 57.12 40.53 57.12 41.93 57.1 43.33 57.08 44.82 57.01 46.31 57.01 47.8 57.01 48.38 57.16 48.97 57.18 49.56 57.25 52.98 57.32 56.41 57.35 59.83 57.37 62.82 57.33 65.81 57.33 68.81 57.33 70.05 57.36 71.3 57.37 72.54 57.37 72.98 57.39 73.4 56.89 73.65 56.73 73.73 56.64 74.06 56.62 74.28 56.57 74.99 56.56 75.71 56.55 76.43 56.52 78.85 56.48 81.28 56.46 83.71 56.44 85.52 56.45 87.32 56.18 89.12 56.05 90.02 56.13 90.92 56.42 91.85 57.58 91.73 58.27 92.58 57.9 93.56ZM 57.45 93.24C 57.2 92.89 57.07 92.71 56.94 92.53 56.87 92.58 56.8 92.64 56.73 92.7 56.73 93.01 56.88 93.17 57.45 93.24ZM 53.49 0.89C 53.48 0.88 53.39 1 53.34 1.06 53.45 1.16 53.56 1.26 53.67 1.36 53.73 1.3 53.78 1.23 53.84 1.17 53.73 1.08 53.62 0.97 53.49 0.89ZM 55.67 84.63C 55.94 81.03 56.18 77.45 55.88 73.88 55.28 73.88 54.75 73.88 54.11 73.88 54.64 77.52 55.16 81.08 55.67 84.63ZM 53.97 20.38C 53.57 21.5 53.46 22.68 53.47 23.87 53.48 24.71 53.53 25.55 53.54 26.39 53.56 28.75 53.55 31.12 53.61 33.48 53.67 35.94 53.74 38.41 53.9 40.86 54.15 44.38 53.83 47.9 53.85 51.41 53.86 54.18 53.73 56.96 53.67 59.73 53.59 63.65 53.52 67.57 53.43 71.5 53.4 72.71 53.74 73.07 55.12 73.06 55.15 72.8 55.18 72.59 55.18 72.38 55.18 70.01 55.16 67.64 55.15 65.27 55.14 62.81 55.16 60.35 55.11 57.89 55.05 54.28 54.92 50.67 54.84 47.06 54.81 45.48 54.81 43.89 54.83 42.31 54.87 39.54 54.93 36.78 54.99 34.01 54.99 33.82 54.99 33.64 54.99 33.45 54.99 30.37 54.99 27.28 54.98 24.2 54.98 22.74 54.96 21.29 54.95 19.84 54.17 19.84 54.16 19.84 53.97 20.38ZM 55.29 9.16C 54.88 12.36 54.45 15.73 54.01 19.19 54.79 19.15 55.48 19.1 56.22 19.06 56.28 17.77 55.47 9.63 55.29 9.16ZM 56.86 72.73C 56.86 70.83 56.87 68.93 56.85 67.04 56.8 62.49 56.73 57.95 56.68 53.41 56.64 49.84 56.63 46.26 56.61 42.69 56.57 38.7 56.53 34.72 56.49 30.74 56.49 30.27 56.46 29.81 56.45 29.34 56.41 27.45 56.37 25.55 56.33 23.65 56.31 22.57 56.3 21.48 56.29 20.39 56.28 19.95 56.07 19.77 55.6 19.87 55.58 20.07 55.53 20.28 55.53 20.49 55.52 23.42 55.51 26.34 55.49 29.27 55.48 31.54 55.44 33.82 55.43 36.09 55.41 38.98 55.39 41.87 55.39 44.77 55.38 47.04 55.39 49.31 55.38 51.57 55.38 52.23 55.33 52.88 55.36 53.53 55.44 55.71 55.59 57.88 55.62 60.06 55.68 63.54 55.66 67.03 55.69 70.51 55.7 71.28 55.79 72.05 55.85 72.83 56.2 72.8 56.47 72.77 56.86 72.73ZM 36.57 20.18C 36.37 20.18 36.2 20.01 36.2 19.81 36.2 19.6 36.37 19.43 36.57 19.43 36.77 19.43 36.94 19.6 36.94 19.81 36.94 20.01 36.77 20.18 36.57 20.18ZM 41.32 70.28C 41.3 70.7 41.39 71.12 41.44 71.66 41.07 72.34 40.82 75.44 41.06 75.95 40.86 76.7 40.69 77.31 40.54 77.93 40.18 79.41 39.86 80.9 39.46 82.37 39.11 83.67 38.35 84.76 37.55 85.82 37.39 86.03 37.28 86.28 37.1 86.58 36.44 86.38 35.73 86.16 34.94 85.92 34.48 86.3 33.78 86.43 33.11 86.44 32.36 86.45 31.97 85.81 31.6 85.22 30.46 83.44 29.8 81.49 29.41 79.42 29.07 77.62 28.58 75.84 28.31 74.04 27.94 71.64 27.72 69.22 27.45 66.81 27.34 65.91 27.25 65.02 27.15 64.12 26.74 60.21 26.69 56.29 26.9 52.37 27 50.57 26.98 48.76 27.08 46.96 27.21 44.44 27.38 41.93 27.58 39.41 27.75 37.3 27.96 35.2 28.17 33.09 28.34 31.42 28.54 29.76 28.7 28.08 28.78 27.34 28.78 26.59 28.86 25.85 29.06 23.85 29.29 21.85 29.51 19.83 28.56 19.74 27.65 19.7 26.74 19.57 24.66 19.27 23.07 18.03 21.64 16.59 21.32 16.26 21.28 15.64 21.13 15.21 21.79 14.46 22.37 14.41 23.01 14.8 23.97 15.39 25.02 15.74 26.12 15.95 27.39 16.19 28.2 15.61 28.48 14.35 28.58 13.89 28.44 13.55 28.15 13.26 27.46 12.58 26.64 12.26 25.7 12.58 24.65 12.95 23.63 13.39 22.6 13.79 22.43 13.86 22.27 13.95 22.09 14.02 21.48 14.23 21.19 14.16 20.97 13.75 20.75 13.34 20.86 12.7 21.25 12.4 21.57 12.15 21.89 11.89 22.25 11.73 24.07 10.92 25.85 9.93 27.87 9.74 28.77 9.66 29.7 9.85 30.62 9.94 32.99 10.19 34.51 11.77 35.92 13.49 36.16 13.78 36.41 13.97 36.78 14.12 38.08 14.66 38.08 15.62 37.4 16.31 36.79 16.93 36.76 17.6 36.83 18.33 36.88 18.77 36.84 19.08 36.3 19.1 35.98 18.79 36.16 18.41 36.17 18.05 36.18 17.68 36.2 17.32 36.22 16.91 35.93 16.84 35.71 16.79 35.46 16.73 35.15 19.33 35.24 21.88 35.46 24.42 35.69 27.08 36 29.74 36.28 32.4 36.39 33.49 36.63 33.64 37.82 33.23 37.74 32.33 37.67 31.41 37.56 30.49 37.34 28.58 37.1 26.66 36.87 24.75 36.73 23.67 36.58 22.59 36.44 21.51 36.42 21.3 36.38 21.06 36.43 20.86 36.47 20.71 36.65 20.6 36.91 20.32 37.03 21.27 37.12 22 37.21 22.72 37.45 24.57 37.69 26.42 37.93 28.28 38.06 29.33 38.15 30.38 38.29 31.43 38.49 32.88 38.73 34.34 38.94 35.79 39.25 38 39.57 40.22 39.85 42.43 40.06 44.13 40.12 45.85 40.45 47.53 40.63 48.41 40.51 49.29 40.73 50.15 40.8 50.41 40.9 50.66 40.98 50.92 41.02 51.09 41.08 51.27 41.06 51.44 40.85 52.9 40.94 54.33 41.38 55.73 41.14 56.61 41.09 57.47 41.49 58.31 41.12 58.99 41.32 59.71 41.33 60.42 41.34 61.35 41.35 62.28 41.39 63.2 41.41 63.6 41.53 63.99 41.6 64.38 41.62 64.53 41.64 64.68 41.62 64.83 41.57 65.44 41.44 66.06 41.47 66.67 41.54 67.88 41.37 69.08 41.32 70.28ZM 28.3 18.42C 28.26 18.25 28.18 18.08 28.12 17.94 25.64 17.83 24.91 17.6 24.44 16.54 25.67 17 26.76 17.44 27.95 17.06 27.95 16.87 27.95 16.68 27.95 16.41 26.89 16.78 25.9 16.61 24.93 16.28 24.27 16.06 23.63 15.75 22.99 15.47 22.66 15.33 22.33 15.08 21.98 15.42 22.32 17.23 26.02 19.25 28.34 18.87 28.33 18.72 28.34 18.56 28.3 18.42ZM 40.57 70.85C 40.63 70.61 40.7 70.37 40.76 70.13 40.69 70.12 40.61 70.11 40.54 70.1 40.48 70.33 40.43 70.57 40.38 70.8 40.44 70.82 40.5 70.83 40.57 70.85ZM 40.37 67.71C 39.64 68.57 39.6 68.72 39.95 69.6 40.82 68.56 40.86 68.34 40.37 67.71ZM 40.15 64.59C 39.83 65.11 40.06 65.45 40.4 65.83 40.74 65.15 40.74 65.15 40.15 64.59ZM 39.24 57.2C 38.84 57.81 39.04 58.15 39.38 58.51 39.87 58.03 39.43 57.72 39.24 57.2ZM 39.15 54.73C 39.15 55.07 39.15 55.29 39.15 55.61 39.5 55.18 39.5 55.18 39.15 54.73ZM 35.15 38.57C 34.64 39.06 34.9 39.57 35.08 40.1 35.75 39.33 35.75 39.3 35.15 38.57ZM 35.05 35.94C 34.91 36.2 34.78 36.43 34.62 36.73 34.82 36.86 35 36.97 35.19 37.09 35.47 36.45 35.47 36.45 35.05 35.94ZM 35.52 42.25C 36.07 41.83 36.01 41.43 35.64 40.92 35.22 41.4 35.32 41.79 35.52 42.25ZM 35.68 78C 36.32 77.38 36.33 77.37 35.79 76.24 35.18 76.81 35.38 77.4 35.68 78ZM 35.94 81.41C 35.87 81.09 35.79 80.78 35.71 80.42 35.41 80.85 35.41 80.85 35.94 81.41ZM 38.67 75.6C 39.22 74.89 39.21 74.73 38.6 74.13 38.24 74.9 38.24 74.9 38.67 75.6ZM 38.84 79.15C 39.38 78.45 38.94 77.98 38.66 77.44 38.08 78.1 38.52 78.57 38.84 79.15ZM 39.45 70.86C 39.82 70.36 39.42 70.02 39.25 69.58 38.87 70.2 38.88 70.25 39.45 70.86ZM 39.47 74.13C 39.84 73.54 39.63 73.18 39.37 72.76 38.88 73.24 39.14 73.62 39.47 74.13ZM 38.67 54.21C 38.92 53.64 38.92 53.64 38.58 53.21 38.23 53.54 38.37 53.85 38.67 54.21ZM 38.57 56.16C 38.57 56.34 38.57 56.52 38.57 56.7 38.62 56.71 38.68 56.71 38.73 56.72 38.77 56.54 38.8 56.37 38.84 56.19 38.75 56.18 38.66 56.17 38.57 56.16ZM 38.19 59.72C 37.76 60.22 37.84 60.54 38.14 60.91 38.54 60.55 38.4 60.21 38.19 59.72ZM 37.03 43.77C 36.97 43.81 36.9 43.85 36.84 43.89 36.89 44.21 36.94 44.53 37.51 44.8 37.29 44.33 37.16 44.05 37.03 43.77ZM 37.57 41.31C 37.96 40.88 37.82 40.56 37.43 40.17 37.07 40.67 37.25 40.97 37.57 41.31ZM 37.92 66.18C 37.49 66.63 37.56 67.02 37.95 67.48 38.31 67.01 38.24 66.61 37.92 66.18ZM 38.14 62.64C 37.91 63.23 37.38 63.6 37.86 64.28 38.19 63.79 38.66 63.43 38.14 62.64ZM 37.86 69.3C 37.77 69.32 37.68 69.34 37.6 69.36 37.68 69.65 37.77 69.94 37.89 70.33 38.32 69.82 38.05 69.57 37.86 69.3ZM 37.44 61.16C 37.4 61.78 36.78 62.16 37.37 62.89 37.46 62.28 38.08 61.9 37.44 61.16ZM 36.62 51.22C 36.29 51.68 36.45 52.06 36.8 52.53 37.12 51.78 37.12 51.78 36.62 51.22ZM 36.35 47.94C 36.16 48.62 36.37 49.01 36.78 49.54 36.95 48.85 36.76 48.45 36.35 47.94ZM 36.19 57.05C 36.83 56.27 36.83 56.12 36.19 55.35 36.19 55.91 36.19 56.42 36.19 57.05ZM 36.09 59.78C 36.16 59.79 36.23 59.8 36.3 59.8 36.43 59.47 36.83 59.17 36.24 58.64 36.18 59.11 36.14 59.45 36.09 59.78ZM 36.94 55.2C 37.22 54.76 36.98 54.5 36.64 54.28 36.74 54.59 36.84 54.89 36.94 55.2ZM 37 58.17C 37.27 57.81 37.34 57.54 37.08 57.17 36.77 57.5 36.6 57.76 37 58.17ZM 37.28 51.08C 37.68 50.49 37.68 50.49 37.01 49.94 37.12 50.4 37.19 50.7 37.28 51.08ZM 37.33 52.81C 37.11 53.41 37.11 53.41 37.54 54.04 37.84 53.54 37.63 53.2 37.33 52.81ZM 37.37 65.82C 37.4 65.35 37.43 65.06 37.45 64.77 37.02 65.24 37.02 65.24 37.37 65.82ZM 36.97 67.58C 37.06 68.02 37.11 68.31 37.17 68.6 37.23 68.59 37.3 68.57 37.37 68.55 37.44 68.02 37.44 68.02 36.97 67.58ZM 37.03 60.05C 36.42 60.67 36.39 60.79 36.69 61.42 36.9 60.96 37.23 60.59 37.03 60.05ZM 36.8 66.96C 36.76 66.68 36.72 66.41 36.66 65.97 36.39 66.57 36.39 66.57 36.8 66.96ZM 36.57 63.31C 36.57 63.58 36.57 63.84 36.57 64.2 36.96 63.85 36.94 63.59 36.57 63.31ZM 36.49 68.93C 36.43 69.35 36.38 69.67 36.32 70 36.42 70.01 36.52 70.03 36.62 70.04 36.75 69.71 37.05 69.39 36.49 68.93ZM 36.46 72.99C 36.54 72.97 36.62 72.96 36.7 72.94 36.65 72.68 36.59 72.41 36.54 72.15 36.45 72.16 36.36 72.18 36.27 72.19 36.33 72.46 36.4 72.72 36.46 72.99ZM 36.6 76.5C 36.92 75.75 36.87 75.47 36.39 74.98 36.11 75.5 36.41 75.92 36.6 76.5ZM 36.3 62.44C 36.24 62.3 36.19 62.16 36.13 62.02 36.08 62.04 36.03 62.06 35.98 62.08 36.04 62.22 36.1 62.36 36.17 62.5 36.21 62.48 36.26 62.46 36.3 62.44ZM 36.05 65.01C 36.05 65.16 36.05 65.32 36.05 65.48 36.09 65.48 36.14 65.49 36.18 65.49 36.21 65.34 36.24 65.19 36.27 65.04 36.19 65.03 36.12 65.02 36.05 65.01ZM 36.13 67.66C 36.07 67.66 36.02 67.66 35.97 67.66 35.95 67.88 35.94 68.09 35.93 68.3 36.01 68.3 36.09 68.3 36.17 68.29 36.16 68.08 36.14 67.87 36.13 67.66ZM 35.94 73.38C 35.87 73.39 35.8 73.41 35.73 73.42 35.76 73.66 35.78 73.89 35.81 74.13 35.91 74.12 36.02 74.11 36.13 74.1 36.07 73.86 36.01 73.62 35.94 73.38ZM 35.82 47.68C 36.15 47.34 36.23 47.06 35.82 46.68 35.82 47.04 35.82 47.32 35.82 47.68ZM 36 49.68C 36 50.11 36 50.45 36 50.9 36.48 50.45 36.3 50.11 36 49.68ZM 36.47 46.33C 37.01 45.65 37.01 45.6 36.42 44.81 36.01 45.38 36.06 45.85 36.47 46.33ZM 37.22 46.52C 36.73 47.35 36.74 47.39 37.32 48.08 37.8 47.57 37.62 47.1 37.22 46.52ZM 37.9 49.81C 38.33 49.33 38.35 48.88 37.91 48.38 37.51 48.88 37.48 49.32 37.9 49.81ZM 38.03 51.66C 37.97 51.68 37.91 51.69 37.85 51.71 37.8 52.25 37.8 52.25 38.28 52.7 38.17 52.24 38.1 51.95 38.03 51.66ZM 38.02 54.53C 37.72 54.88 37.8 55.18 38.09 55.51 38.38 55.15 38.41 54.84 38.02 54.53ZM 38.64 66.1C 39.2 65.27 39.54 65.12 38.82 64.18 38.14 65.12 38.12 65.37 38.64 66.1ZM 38.59 69.12C 39.1 68.69 38.87 68.31 38.51 67.78 38.27 68.36 38.19 68.75 38.59 69.12ZM 38.71 72.23C 39.1 71.64 38.88 71.26 38.56 70.77 38.17 71.35 38.41 71.73 38.71 72.23ZM 37.94 78.82C 37.56 79.42 37.64 79.77 38.28 80.38 38.5 79.76 38.27 79.3 37.94 78.82ZM 38.02 77.06C 38.48 76.48 38.21 76.06 37.92 75.6 37.43 76.14 37.73 76.56 38.02 77.06ZM 37.95 73.82C 38.5 73.22 38.3 72.66 37.93 72.07 37.31 72.9 37.31 72.97 37.95 73.82ZM 37.33 77C 36.83 77.62 36.83 77.63 37.41 78.26 37.8 77.8 37.55 77.43 37.33 77ZM 37.35 75.18C 37.62 74.58 37.42 74.19 37.02 73.85 36.89 74.32 36.97 74.74 37.35 75.18ZM 37.12 71.82C 37.64 71.11 37.64 71.11 37.17 70.37 36.83 70.82 36.68 71.26 37.12 71.82ZM 36.54 78.37C 35.89 79.11 35.88 79.18 36.28 80.02 37.01 79.54 37.06 79.21 36.54 78.37ZM 35.58 43.42C 35.61 43.91 35.63 44.21 35.66 44.66 36.11 44.17 36.21 43.87 35.58 43.42ZM 36.03 38.55C 36.53 37.93 36.11 37.65 35.84 37.27 35.32 37.81 35.73 38.12 36.03 38.55ZM 36.25 42.59C 36.32 42.76 36.39 42.94 36.46 43.11 36.52 43.08 36.58 43.05 36.64 43.03 36.57 42.85 36.51 42.68 36.44 42.51 36.38 42.54 36.31 42.57 36.25 42.59ZM 36.79 39.94C 37.15 39.4 37.15 39.4 36.66 38.73 36.2 39.26 36.38 39.61 36.79 39.94ZM 36.92 41.5C 36.84 41.53 36.76 41.57 36.68 41.6 36.77 41.8 36.87 42.01 36.97 42.21 37.04 42.18 37.11 42.15 37.17 42.12 37.09 41.91 37.01 41.7 36.92 41.5ZM 37.54 38.71C 38.02 38.09 38.18 37.79 37.56 37.25 36.93 38.04 36.93 38.04 37.54 38.71ZM 37.48 42.78C 37.3 43.24 37.45 43.49 37.81 43.71 38.08 43.22 37.83 43.01 37.48 42.78ZM 37.59 45.53C 37.7 45.86 37.82 46.19 37.94 46.51 38.1 45.97 38.1 45.97 37.59 45.53ZM 38.4 42.64C 38.69 42.12 38.47 41.87 38.16 41.58 37.79 42.05 38.02 42.31 38.4 42.64ZM 38.25 44.25C 38.01 44.79 38.18 45.12 38.57 45.45 38.72 44.87 38.72 44.87 38.25 44.25ZM 38.34 47.29C 38.39 47.61 38.44 47.92 38.5 48.24 38.94 47.85 38.79 47.55 38.34 47.29ZM 38.53 50.01C 38.23 50.56 38.16 50.97 38.62 51.37 38.98 50.91 39.01 50.5 38.53 50.01ZM 38.44 58.66C 38.53 58.94 38.63 59.22 38.72 59.49 38.79 59.47 38.86 59.45 38.93 59.43 38.99 59.09 38.86 58.82 38.44 58.66ZM 38.76 61.37C 38.36 61.77 38.52 62.11 38.82 62.5 39.15 62.09 39.17 61.74 38.76 61.37ZM 39.45 60.19C 39.02 60.6 39.25 60.84 39.45 61.08 39.51 61.07 39.58 61.05 39.65 61.03 39.58 60.75 39.51 60.47 39.45 60.19ZM 39.42 62.92C 39.1 63.42 39.31 63.74 39.6 64.18 40 63.62 39.73 63.32 39.42 62.92ZM 39.56 65.87C 38.8 67.04 38.8 67.05 39.39 67.82 40.15 66.84 40.16 66.8 39.56 65.87ZM 40.19 72.79C 40.52 72.17 40.42 71.79 39.95 71.41 39.63 71.95 39.81 72.32 40.19 72.79ZM 40.29 75.62C 40.35 75.1 40.4 74.68 40.47 74.11 39.73 74.86 39.71 75 40.29 75.62ZM 39.5 77.6C 40.02 76.8 40 76.68 39.37 76.01 38.9 76.55 39.02 77.05 39.5 77.6ZM 38.86 82.2C 38.91 81.73 39.44 81.38 38.82 80.91 38.34 81.45 38.34 81.45 38.86 82.2ZM 37.89 84.25C 38.32 83.59 38.73 82.96 38.03 82.22 37.16 83.2 37.15 83.37 37.89 84.25ZM 37.04 85.42C 37.22 85.12 37.31 84.97 37.41 84.81 37.25 84.62 37.1 84.45 36.94 84.27 36.55 84.64 36.85 84.93 37.04 85.42ZM 37.03 82.22C 37.81 81.34 37.83 81.12 37.24 80.16 36.77 80.83 36.44 81.46 37.03 82.22ZM 36.34 82.38C 36.25 82.39 36.16 82.4 36.07 82.41 36.15 82.77 36.23 83.14 36.34 83.68 36.81 83.06 36.52 82.72 36.34 82.38ZM 36.02 85.57C 36.03 85.59 36.18 85.59 36.18 85.58 36.22 85.42 36.24 85.25 36.26 85.08 36.15 85.08 36.05 85.07 35.94 85.07 35.97 85.24 35.99 85.41 36.02 85.57ZM 35.43 84.89C 35.61 84.48 35.75 84.19 35.89 83.89 35.84 83.86 35.8 83.82 35.75 83.79 35.52 83.94 35.29 84.09 35 84.28 35.14 84.47 35.26 84.65 35.43 84.89ZM 34.91 83.29C 35.46 82.42 35.46 82.37 34.91 81.71 34.91 82.21 34.91 82.66 34.91 83.29ZM 34.9 74.04C 35.06 72.03 35.25 70.01 35.37 68 35.46 66.48 35.46 64.95 35.5 63.43 35.55 61.6 35.67 59.78 35.63 57.95 35.59 56.04 35.69 54.12 35.48 52.2 35.24 50.07 35.29 47.92 35.18 45.77 35.13 44.72 35.04 43.66 34.89 42.62 34.73 41.51 34.49 40.42 34.27 39.32 34.16 38.79 34.02 38.27 33.89 37.74 33.65 39.19 33.52 40.62 33.42 42.04 33.27 44.06 33.05 46.07 33.02 48.09 32.98 50.76 33.1 53.43 33.15 56.11 33.18 57.63 33.17 59.16 33.26 60.68 33.46 64.09 33.68 67.51 33.94 70.92 34.07 72.58 34.29 74.24 34.47 75.9 34.57 75.89 34.67 75.88 34.76 75.87 34.81 75.26 34.85 74.65 34.9 74.04ZM 34.08 34.59C 34.15 35.04 34.2 35.38 34.29 35.92 34.73 35.17 34.73 35.17 34.08 34.59ZM 34.52 84.69C 34.46 83.86 34.31 83.02 34.36 82.19 34.45 80.57 34.5 78.98 34.19 77.36 33.43 73.28 33.29 69.14 33 65.01 32.86 62.96 32.79 60.91 32.7 58.85 32.6 56.4 32.5 53.94 32.45 51.48 32.41 48.68 32.44 45.88 32.78 43.09 33.06 40.71 33.19 38.31 33.32 35.92 33.38 34.83 33.39 33.73 33.26 32.66 33.06 30.96 32.69 29.29 32.45 27.6 32.26 26.28 32.16 24.95 32.02 23.63 31.99 23.63 31.97 23.63 31.94 23.63 31.93 23.73 31.91 23.82 31.91 23.91 31.78 26.21 31.67 28.51 31.52 30.81 31.44 31.95 31.24 33.09 31.16 34.24 30.95 36.94 30.8 39.64 30.6 42.35 30.51 43.56 30.28 44.76 30.23 45.97 30.15 47.96 30.15 49.95 30.14 51.94 30.13 54.15 30.12 56.36 30.15 58.57 30.19 61.46 30.19 64.36 30.34 67.24 30.54 71.32 31.01 75.36 31.92 79.34 32.26 80.83 32.71 82.28 33.17 83.73 33.37 84.36 33.72 84.94 34.53 85.18 34.53 84.93 34.53 84.81 34.52 84.69ZM 29.37 27.29C 29.16 29.46 28.91 31.62 28.7 33.79 28.67 34.16 28.78 34.55 28.83 34.98 28.36 35.16 28.44 35.7 28.41 36.13 28.13 39.51 27.85 42.89 27.63 46.27 27.51 47.95 27.49 49.63 27.46 51.31 27.42 53.98 27.39 56.66 27.39 59.34 27.39 60.52 27.4 61.71 27.5 62.88 27.62 64.37 27.88 65.85 27.99 67.33 28.36 71.94 29.28 76.45 30.37 80.93 30.73 82.39 31.37 83.73 32.19 84.98 32.49 85.44 32.83 85.84 33.46 85.65 33.14 84.99 32.78 84.42 32.58 83.79 31.54 80.68 30.84 77.49 30.49 74.24 30.16 71.15 29.9 68.04 29.74 64.94 29.59 61.86 29.59 58.78 29.56 55.7 29.54 54.08 29.55 52.47 29.62 50.85 29.71 48.52 29.61 46.18 29.91 43.86 30.04 42.88 30.14 41.88 30.19 40.89 30.34 37.78 30.59 34.68 30.9 31.58 31.18 28.8 31.22 25.99 31.35 23.19 31.39 22.36 31.36 21.53 31.36 20.64 31 20.51 30.61 20.36 30.14 20.18 30.03 20.85 29.92 21.42 29.86 22 29.69 23.77 29.55 25.53 29.37 27.29ZM 35.55 16.08C 36.08 16.29 36.57 16.35 36.91 15.86 37.03 15.68 37.08 15.36 37.01 15.18 36.9 14.92 36.63 14.79 36.31 14.91 36.01 15.03 35.7 15.13 35.36 15.25 35.43 15.57 35.49 15.83 35.55 16.08ZM 35.58 14.42C 33.8 11.36 31.17 10.21 28.01 10.45 25.72 10.63 23.64 11.68 21.69 12.89 21.58 12.96 21.56 13.18 21.51 13.32 21.54 13.38 21.58 13.45 21.62 13.51 22.36 13.24 23.09 12.98 23.81 12.69 24.44 12.44 25.05 12.13 25.71 11.98 26.68 11.74 27.62 11.97 28.38 12.65 28.73 12.96 28.97 13.41 29.24 13.78 29.78 13.47 30.28 13.05 30.85 12.91 31.4 12.77 32.02 12.94 32.73 12.98 32.09 12.39 31.45 12.03 30.71 11.9 29.9 11.76 29.08 11.68 28.26 11.62 27.99 11.6 27.84 11.55 27.83 11.28 27.82 10.96 28.02 10.79 28.29 10.82 29.35 10.97 30.43 11.05 31.44 11.37 32.15 11.59 32.83 12.08 33.39 12.59 33.97 13.13 34.77 13.51 35.06 14.36 35.08 14.41 35.3 14.39 35.58 14.42ZM 34.98 25.63C 34.83 24.02 34.7 22.41 34.67 20.8 34.64 19.44 34.76 18.07 34.84 16.71 34.88 15.9 34.8 15.09 34.15 14.59 33.31 13.94 32.33 13.54 31.24 13.56 31.01 13.56 30.74 13.64 30.55 13.76 28.79 14.87 28.37 16.48 28.89 18.36 28.94 18.53 29.06 18.73 29.2 18.82 29.8 19.18 30.39 19.69 31.04 19.82 32.09 20.01 32.38 20.62 32.43 21.54 32.45 21.82 32.52 22.09 32.55 22.37 32.68 23.7 32.79 25.03 32.94 26.35 33.12 27.89 33.3 29.44 33.55 30.97 33.7 31.87 33.83 32.81 34.3 33.66 34.62 33.68 34.92 33.7 35.23 33.7 35.37 33.7 35.52 33.64 35.7 33.6 35.73 33.44 35.76 33.38 35.75 33.32 35.5 30.76 35.21 28.19 34.98 25.63ZM 36.02 34.73C 35.43 35.21 35.43 35.21 35.9 35.82 36.39 35.23 36.39 35.23 36.02 34.73ZM 36.79 35.8C 36.06 36.62 36.06 36.73 36.81 37.31 36.96 37.04 37.1 36.78 37.25 36.5 37.09 36.25 36.94 36.03 36.79 35.8ZM 37.84 34.39C 37.12 35.05 37.12 35.05 37.55 35.67 38.05 35.05 38.07 34.99 37.84 34.39ZM 38.33 35.88C 37.97 36.57 37.97 36.57 38.5 37.13 38.44 36.65 38.39 36.32 38.33 35.88ZM 38.28 38.77C 37.9 39.17 37.79 39.59 38.18 40.16 38.71 39.44 38.71 39.44 38.28 38.77ZM 39.02 40.51C 38.57 40.98 38.57 40.98 39.07 41.45 39.05 41.06 39.04 40.79 39.02 40.51ZM 38.63 43.16C 38.81 43.61 38.95 43.98 39.16 44.52 39.55 43.52 39.5 43.4 38.63 43.16ZM 39.12 45.87C 38.81 46.35 38.83 46.69 39.21 47.02 39.74 46.57 39.41 46.27 39.12 45.87ZM 39.38 49.81C 39.54 49.26 39.54 49.26 39.2 48.7 38.86 49.24 38.86 49.25 39.38 49.81ZM 39.23 51.79C 38.71 52.17 39.02 52.58 39.18 52.98 39.74 52.41 39.74 52.41 39.23 51.79ZM 40.13 50.25C 39.5 50.91 39.5 50.92 40.13 51.58 40.13 51.12 40.13 50.74 40.13 50.25ZM 40.19 52.72C 39.89 53.36 39.4 53.76 39.97 54.4 40.13 53.87 40.51 53.47 40.19 52.72ZM 40.5 55.7C 39.41 56.19 39.41 56.2 39.97 57.32 40.5 56.54 40.54 56.4 40.5 55.7ZM 40.14 59.98C 40.14 59.57 40.14 59.29 40.14 59.01 40.06 59 39.99 59 39.91 59 39.65 59.3 39.63 59.6 40.14 59.98ZM 40.73 60.37C 40.09 60.8 40.79 61.25 40.5 61.64 40.3 61.69 40.08 61.74 39.74 61.82 39.91 62.2 40.05 62.51 40.21 62.87 40.9 62.08 40.78 61.27 40.73 60.37ZM 32.06 17.49C 31.5 17.5 30.94 16.89 30.94 16.26 30.94 15.53 31.44 15.1 32.29 15.1 32.86 15.1 33.38 15.59 33.37 16.13 33.37 16.68 32.6 17.48 32.06 17.49ZM 31.94 15.67C 31.59 16.18 31.57 16.48 31.87 16.63 32.27 16.82 32.47 16.54 32.7 16.14 32.39 15.95 32.17 15.81 31.94 15.67ZM 29.73 35.36C 29.6 35.26 29.38 35.17 29.38 35.07 29.38 34.94 29.55 34.81 29.65 34.67 29.73 34.73 29.82 34.78 29.9 34.84 29.84 35.01 29.79 35.19 29.73 35.36ZM 29.46 36.49C 29.41 36.75 29.27 36.99 29.08 37.42 28.91 37.11 28.73 36.92 28.77 36.81 28.85 36.57 29.04 36.36 29.18 36.14 29.28 36.26 29.48 36.4 29.46 36.49ZM 29.51 38.17C 29.19 38.42 29.02 38.55 28.79 38.73 28.7 38.56 28.59 38.45 28.61 38.37 28.64 38.19 28.75 38.02 28.82 37.85 29.01 37.94 29.2 38.03 29.51 38.17ZM 29.03 41.06C 29.01 41.07 28.98 41.07 28.95 41.07 28.99 41.3 29.06 41.53 29.05 41.76 29.05 41.86 28.86 42.02 28.76 42.01 28.66 42.01 28.47 41.81 28.48 41.74 28.61 41.23 28.52 40.74 28.38 40.25 28.36 40.17 28.52 40.03 28.59 39.92 28.7 40 28.88 40.07 28.91 40.17 28.98 40.46 28.99 40.76 29.03 41.06ZM 28.78 42.78C 28.7 42.91 28.62 43.04 28.53 43.17 28.45 43.1 28.36 43.04 28.28 42.97 28.38 42.85 28.49 42.74 28.59 42.62 28.66 42.67 28.72 42.73 28.78 42.78ZM 28.86 43.17C 29.04 43.38 29.22 43.53 29.2 43.58 28.98 44.08 28.73 44.56 28.46 45.12 27.76 44.22 28.68 43.87 28.86 43.17ZM 28.48 47.99C 28.45 48.08 28.29 48.16 28.17 48.2 28.13 48.21 27.99 48.03 28 47.95 28.02 47.84 28.13 47.75 28.26 47.56 28.37 47.77 28.5 47.9 28.48 47.99ZM 28.47 54.85C 28.49 54.96 28.42 55.09 28.39 55.21 28.32 55.15 28.24 55.1 28.17 55.05 28.09 54.94 28.02 54.82 27.94 54.7 28.06 54.63 28.17 54.55 28.29 54.48 28.35 54.6 28.45 54.72 28.47 54.85ZM 28.25 58.39C 28.52 58.52 28.64 58.7 28.43 58.97 28.38 59.03 28.16 59.08 28.13 59.04 27.9 58.79 27.91 58.55 28.25 58.39ZM 28.64 64.25C 28.58 64.27 28.51 64.29 28.45 64.31 28.32 64.16 28.19 64.01 28.01 63.81 28.24 63.7 28.41 63.62 28.7 63.49 28.67 63.82 28.66 64.03 28.64 64.25ZM 28.38 60.89C 28.31 60.8 28.19 60.71 28.18 60.61 28.18 60.54 28.31 60.41 28.4 60.39 28.47 60.37 28.58 60.47 28.75 60.55 28.58 60.71 28.48 60.8 28.38 60.89ZM 28.75 50.75C 28.43 50.34 28.46 50.11 28.98 49.98 29.2 50.33 29.1 50.55 28.75 50.75ZM 28.42 46.6C 28.46 46.48 28.59 46.38 28.68 46.27 28.77 46.36 28.94 46.45 28.94 46.55 28.94 46.66 28.79 46.76 28.66 46.92 28.55 46.78 28.4 46.66 28.42 46.6ZM 28.35 53.3C 28.28 53.14 28.21 52.98 28.14 52.81 28.24 52.77 28.34 52.73 28.44 52.69 28.5 52.84 28.58 52.98 28.61 53.14 28.62 53.18 28.44 53.25 28.35 53.3ZM 28.9 49.48C 28.91 49.59 28.83 49.7 28.73 49.95 28.53 49.58 28.4 49.45 28.41 49.33 28.42 49.25 28.61 49.19 28.73 49.11 28.79 49.23 28.88 49.35 28.9 49.48ZM 29.12 65.72C 28.94 65.84 28.83 65.98 28.72 65.98 28.61 65.97 28.51 65.81 28.41 65.72 28.51 65.63 28.61 65.46 28.71 65.45 28.82 65.45 28.94 65.59 29.12 65.72ZM 29.41 39.33C 29.51 39.52 29.62 39.63 29.62 39.74 29.62 39.81 29.44 39.97 29.4 39.95 29.28 39.9 29.14 39.8 29.11 39.69 29.09 39.62 29.26 39.5 29.41 39.33ZM 17.58 78.55C 17.53 79.54 17.59 80.54 17.5 81.52 17.3 83.71 17.06 85.9 16.78 88.07 16.66 89.03 16.37 89.96 16.21 90.91 15.92 92.54 15.14 93.95 14.29 95.33 13.11 97.23 12.41 97.12 10.29 96.88 9.94 96.84 9.6 96.81 9.27 96.78 8.93 96.49 8.6 96.11 8.2 95.89 7.17 95.33 6.87 94.29 6.45 93.34 6.23 92.83 6.14 92.27 5.97 91.74 5.85 91.35 5.77 90.94 5.57 90.6 5.36 90.26 5.31 90.01 5.4 89.59 5.51 89.14 5.31 88.62 5.22 88.13 4.59 84.61 4.06 81.07 3.96 77.49 3.86 73.95 3.76 70.4 3.81 66.85 3.85 64.18 4.09 61.51 4.31 58.85 4.5 56.59 4.81 54.35 5.02 52.09 5.14 50.79 5.15 49.48 5.24 48.18 5.38 46.41 5.55 44.65 5.69 42.88 5.96 39.65 6.18 36.43 5.61 33.2 5.26 31.2 5.36 29.17 5.68 27.16 6.02 25.07 5.61 23.13 4.56 21.32 3.74 19.91 2.81 18.56 1.99 17.13 1.2 15.74 0.52 14.27 0.13 12.7 0.02 12.25-0.04 11.77 0.03 11.32 0.22 9.97 0.44 8.62 0.75 7.29 1.05 5.97 1.94 5.06 3.08 4.42 3.76 4.04 4.55 4.04 5.29 4.13 5.87 4.2 6.31 4.63 6.37 5.25 6.46 6.11 6.5 6.98 6.5 7.84 6.49 8.87 6.42 9.89 6.37 10.92 6.28 12.58 6.99 13.91 8.04 15.13 9.22 16.52 10.33 17.96 11.46 19.4 12.57 20.83 12.98 22.58 13.54 24.25 14.12 25.99 14.43 27.79 14.47 29.64 14.53 32.03 14.7 34.42 14.76 36.82 14.83 39.15 14.82 41.49 14.87 43.82 14.89 44.51 14.74 45.25 15.28 45.85 15.31 45.88 15.31 45.96 15.29 46.01 14.85 47.27 15.29 48.49 15.43 49.72 15.48 50.14 15.45 50.57 15.52 50.99 15.69 52.15 15.92 53.31 16.07 54.48 16.21 55.54 16.26 56.62 16.35 57.69 16.41 58.42 16.45 58.5 16.98 58.97 16.44 59.98 16.65 61.04 16.92 62.09 16.96 62.21 17.02 62.34 17.01 62.45 16.74 63.95 17.39 65.39 17.32 66.89 17.28 67.94 17.4 69 17.46 70.06 17.49 70.68 17.56 71.3 17.61 71.92 17.63 72.07 17.71 72.24 17.67 72.37 17.22 73.72 17.63 75.09 17.54 76.45 17.52 76.82 17.75 77.2 17.84 77.48 17.74 77.88 17.59 78.21 17.58 78.55ZM 16.42 74.62C 16 75.49 16 75.49 16.62 75.82 16.72 75.41 17.14 75 16.42 74.62ZM 10.6 75.55C 10.71 75.35 10.74 75.15 10.78 74.94 11.04 73.64 10.74 72.3 10.99 71 11.07 70.54 11.1 70.07 11.13 69.61 11.16 69.26 11.13 68.91 10.67 68.71 10.8 71.04 10.38 73.29 10.6 75.55ZM 13.04 87.59C 13.5 86.53 13.5 86.53 12.94 86.08 12.33 86.97 12.33 86.97 13.04 87.59ZM 13.06 89.89C 13.36 89.45 13.36 89.45 13.2 89.03 13.05 89.28 12.68 89.47 13.06 89.89ZM 16.24 79.88C 16.33 79.47 16.85 79.13 16.22 78.64 15.8 79.49 15.8 79.49 16.24 79.88ZM 16.23 82.61C 16.36 82.12 16.48 81.7 16.59 81.29 15.85 81.92 15.81 82.06 16.23 82.61ZM 16.04 77.42C 16.41 76.54 16.41 76.54 15.71 76.14 15.34 76.65 15.48 77.04 16.04 77.42ZM 10.97 51.21C 11.6 50.53 11.6 50.53 10.92 50.12 10.94 50.52 10.96 50.87 10.97 51.21ZM 10.82 64.93C 10.82 65.98 10.82 67.03 10.82 68.08 11.16 67.03 11 65.98 10.82 64.93ZM 11.39 54.17C 11.67 53.64 11.88 53.25 12.11 52.82 11.89 52.63 11.72 52.47 11.51 52.29 11.16 52.88 11.01 53.41 11.39 54.17ZM 11.73 83.79C 12.12 83.03 12.12 83.03 11.42 82.6 11.29 82.93 11.19 83.18 11.08 83.47 11.32 83.59 11.53 83.69 11.73 83.79ZM 11.04 84.29C 11.02 84.64 11.01 85 10.99 85.35 11.32 85.04 11.52 84.72 11.31 84.33 11.22 84.31 11.13 84.3 11.04 84.29ZM 12.16 79.17C 12.25 78.85 12.34 78.59 11.86 78.41 11.67 78.79 11.5 79.13 11.3 79.52 11.84 79.74 12.04 79.57 12.16 79.17ZM 11.21 79.91C 11.21 80.47 11.21 80.84 11.21 81.21 11.42 80.84 11.94 80.5 11.21 79.91ZM 13.06 73.98C 13.16 73.69 13.26 73.42 13.4 73.05 13.19 72.86 13 72.68 12.74 72.43 12.2 73.31 12.2 73.31 13.06 73.98ZM 13.19 76.57C 13.34 76.13 13.81 75.81 13.2 75.31 13.05 75.74 12.63 76.07 13.19 76.57ZM 12.37 68.54C 12.8 67.67 12.77 67.57 11.99 67.06 11.62 67.85 11.62 67.85 12.37 68.54ZM 11.7 72.85C 12.25 72.03 12.25 72.03 11.76 71.56 11.48 71.93 11.48 72.31 11.7 72.85ZM 12.5 69.93C 12.11 70.52 12.11 70.52 12.45 71.16 12.92 70.38 12.92 70.38 12.5 69.93ZM 12.63 76.94C 12.35 77.35 12.08 77.65 12.59 78.09 12.67 77.68 13 77.41 12.63 76.94ZM 12.01 74.1C 11.85 74.47 11.72 74.76 11.57 75.11 11.82 75.3 12.05 75.46 12.29 75.63 12.79 74.75 12.79 74.75 12.01 74.1ZM 11.41 75.79C 11.41 76.25 11.41 76.7 11.41 77.23 12.15 76.59 12.15 76.47 11.41 75.79ZM 11.74 66.04C 11.88 65.61 12.31 65.27 12.02 64.49 11.81 65.1 11.66 65.53 11.51 65.96 11.58 65.99 11.66 66.01 11.74 66.04ZM 11.58 62.16C 11.58 62.52 11.58 62.85 11.58 63.39 12.12 62.53 12.12 62.53 11.58 62.16ZM 12.35 61.72C 12.73 61.23 12.69 60.89 12.19 60.65 11.99 60.96 11.8 61.25 11.56 61.6 11.85 61.65 12.08 61.68 12.35 61.72ZM 12.53 63.02C 12.38 63.34 12.12 63.63 12.5 64.06 12.95 63.34 12.95 63.34 12.53 63.02ZM 12.63 65.33C 12.49 65.71 12.39 65.99 12.29 66.27 12.41 66.42 12.49 66.55 12.59 66.65 12.71 66.77 12.85 66.86 12.99 66.97 13.45 66.13 13.45 66.13 12.63 65.33ZM 13.33 63.8C 13.2 64.08 13.07 64.35 12.93 64.66 13.15 64.92 13.36 65.18 13.58 65.45 14.15 64.49 14.15 64.45 13.33 63.8ZM 13.12 61.59C 12.93 61.96 12.68 62.28 13.21 62.56 13.41 62.22 13.76 61.92 13.12 61.59ZM 13.23 68.3C 12.72 68.97 12.72 68.97 13.09 69.48 13.6 68.74 13.6 68.74 13.23 68.3ZM 13.27 70.89C 13.16 71.17 13.04 71.45 12.91 71.76 13.12 72.01 13.31 72.24 13.51 72.48 14.25 71.57 14.2 71.35 13.27 70.89ZM 13.84 73.78C 13.49 74.53 13.49 74.53 13.86 74.88 14.24 74.3 14.24 74.3 13.84 73.78ZM 14.06 76.12C 13.6 77.15 13.6 77.15 14.37 77.77 14.5 77.5 14.62 77.23 14.76 76.92 14.54 76.67 14.34 76.44 14.06 76.12ZM 13.43 77.86C 12.94 78.66 12.94 78.68 13.73 79.21 14.13 78.51 14.13 78.51 13.43 77.86ZM 12.75 79.28C 12.61 79.61 12.51 79.86 12.38 80.17 12.59 80.38 12.8 80.58 13.02 80.79 13.5 79.96 13.5 79.96 12.75 79.28ZM 12.18 81C 11.72 81.87 11.72 81.87 12.37 82.22 12.77 81.49 12.77 81.49 12.18 81ZM 11.47 56.91C 11.78 56.66 11.81 56.44 11.37 56.28 11.41 56.54 11.44 56.72 11.47 56.91ZM 11.51 59.58C 12.26 59.07 12.29 58.87 11.77 58.25 11.68 58.71 11.61 59.08 11.51 59.58ZM 12.03 55.86C 12.38 55.49 12.27 55.26 11.86 55.02 11.57 55.45 11.69 55.67 12.03 55.86ZM 12.43 58.04C 12.67 57.65 12.83 57.34 12.29 57.08 12.06 57.59 12.06 57.59 12.43 58.04ZM 12.91 60.29C 13.34 59.85 13.21 59.51 12.69 59.18 12.44 59.82 12.44 59.82 12.91 60.29ZM 12.95 56.79C 13.3 56.35 13.23 56.1 12.82 55.9 12.62 56.37 12.62 56.37 12.95 56.79ZM 13.15 58C 12.84 58.43 12.94 58.74 13.46 58.99 13.82 58.33 13.82 58.33 13.15 58ZM 13.64 60.29C 13.53 60.61 13.18 60.95 13.82 61.22 14.16 60.6 14.16 60.6 13.64 60.29ZM 13.94 62.51C 13.61 63.14 13.61 63.14 14.27 63.85 14.65 62.95 14.65 62.95 13.94 62.51ZM 13.81 66.64C 13.59 67.09 13.22 67.45 13.86 67.9 14.12 67.42 14.31 67.05 13.81 66.64ZM 13.97 69.12C 13.84 69.44 13.71 69.74 13.58 70.06 13.84 70.35 14.06 70.59 14.34 70.91 14.9 69.86 14.9 69.86 13.97 69.12ZM 14.59 72.24C 14.06 72.96 14.06 72.96 14.58 73.43 14.69 73.04 15.07 72.71 14.59 72.24ZM 14.71 74.77C 14.26 75.54 14.26 75.54 14.81 76.1 14.86 76.15 14.94 76.17 15.02 76.2 15.09 76.09 15.15 76.02 15.18 75.94 15.25 75.8 15.3 75.66 15.39 75.42 15.14 75.19 14.93 74.98 14.71 74.77ZM 15.17 77.47C 14.67 78.42 14.67 78.43 15.43 78.93 15.55 78.68 15.67 78.44 15.81 78.15 15.59 77.92 15.39 77.7 15.17 77.47ZM 15.6 80.26C 15.06 81.11 15.06 81.11 15.54 81.5 15.58 81.09 16.12 80.79 15.6 80.26ZM 15.04 84.28C 14.91 84.7 14.83 84.95 14.75 85.21 14.82 85.24 14.89 85.28 14.97 85.32 15.22 85.08 15.39 84.83 15.04 84.28ZM 14.89 82.95C 15.16 82.36 15.16 82.36 14.86 81.89 14.47 82.32 14.34 82.66 14.89 82.95ZM 14.76 80.54C 15.18 79.63 15.17 79.58 14.44 79.15 14.09 79.91 14.09 79.91 14.76 80.54ZM 13.84 80.58C 13.33 81.29 13.33 81.29 14.04 81.93 14.53 81.21 14.53 81.21 13.84 80.58ZM 13.12 82.12C 12.77 82.85 12.77 82.85 13.4 83.42 13.92 82.61 13.91 82.54 13.12 82.12ZM 12.58 83.61C 12.11 84.28 12.11 84.28 12.74 84.87 13.18 84.11 13.18 84.11 12.58 83.61ZM 11.92 85.1C 11.48 86.01 11.48 86.01 11.97 86.49 12.63 85.58 12.63 85.58 11.92 85.1ZM 12.36 52.1C 12.51 51.54 12.51 51.54 11.92 51.16 11.62 51.69 12.13 51.79 12.36 52.1ZM 12.08 54.29C 12.27 54.43 12.4 54.54 12.59 54.69 13.07 53.71 13.07 53.71 12.45 53.39 12.33 53.69 12.21 53.98 12.08 54.29ZM 13.3 53.03C 13.5 52.53 13.5 52.53 13.05 52.31 12.76 52.64 12.93 52.83 13.3 53.03ZM 13.61 55.52C 13.75 55.13 14.23 54.77 13.57 54.31 13.02 55.15 13.02 55.17 13.61 55.52ZM 13.67 56.89C 13.56 57.37 13.56 57.37 13.96 57.75 14.25 57.22 14.25 57.22 13.67 56.89ZM 14.39 59.93C 14.76 59.49 14.59 59.23 14.21 59.01 13.84 59.39 13.96 59.67 14.39 59.93ZM 14.8 62.26C 15.12 61.63 15.12 61.63 14.59 61.18 14.18 61.78 14.18 61.78 14.8 62.26ZM 14.46 65.09C 14.05 65.92 14.05 65.92 14.47 66.36 14.93 65.63 14.93 65.63 14.46 65.09ZM 14.64 67.72C 14.19 68.47 14.19 68.47 15.04 69.34 15.18 69.02 15.3 68.73 15.42 68.45 15.19 68.21 15.03 68.03 14.86 67.86 14.8 67.8 14.71 67.77 14.64 67.72ZM 15.29 70.52C 15.1 70.98 14.57 71.34 15.13 71.93 15.35 71.46 15.88 71.11 15.29 70.52ZM 15.34 73.16C 14.87 74.21 14.88 74.26 15.68 74.71 16.04 73.98 16.04 73.98 15.34 73.16ZM 15.56 83.07C 15.36 83.34 15.2 83.61 15.62 84.07 15.71 83.67 15.77 83.4 15.83 83.12 15.74 83.11 15.65 83.09 15.56 83.07ZM 15.19 86.69C 14.74 87.25 14.84 87.7 15.37 88.13 15.51 87.79 15.64 87.46 15.79 87.1 15.66 86.99 15.57 86.91 15.47 86.85 15.4 86.8 15.32 86.76 15.19 86.69ZM 14.59 88.17C 14.12 89.11 14.12 89.11 14.71 89.51 15.12 88.8 15.12 88.8 14.59 88.17ZM 14.42 86.74C 14.64 86.46 14.8 86.21 14.47 85.88 14.35 86.14 14 86.39 14.42 86.74ZM 14.3 84.43C 14.63 83.84 14.63 83.84 14.21 83.3 13.81 84 13.81 84 14.3 84.43ZM 13.57 84.74C 13.19 85.36 13.19 85.36 13.74 85.79 14.09 85.36 14.02 85.04 13.57 84.74ZM 12.45 93.27C 12.25 93.62 11.95 93.92 12.52 94.32 12.75 93.9 13.03 93.57 12.45 93.27ZM 12.2 91.77C 12.85 90.97 12.86 90.91 12.39 90.32 12.34 90.84 11.89 91.15 12.2 91.77ZM 12.43 88.94C 12.78 88.49 12.76 88.13 12.18 87.81 11.81 88.55 11.81 88.55 12.43 88.94ZM 11.58 89.27C 11.06 90.3 11.06 90.3 11.52 90.8 12.18 89.9 12.18 89.81 11.58 89.27ZM 11.39 87.91C 11.71 87.23 11.71 87.23 11.22 86.91 10.85 87.48 10.85 87.48 11.39 87.91ZM 10.64 88.43C 10.64 88.92 10.64 89.27 10.64 89.7 11.12 88.87 11.12 88.87 10.64 88.43ZM 10.73 91.11C 10.48 91.55 10.28 91.91 10.87 92.19 11.11 91.8 11.34 91.45 10.73 91.11ZM 10.57 47.85C 10.67 48.33 10.73 48.63 10.81 49.04 11.29 48.22 11.29 48.22 10.57 47.85ZM 10.82 47.07C 11.01 47.09 11.21 47.08 11.44 47.08 11.32 46.78 11.22 46.54 11.11 46.29 10.88 46.31 10.68 46.32 10.43 46.35 10.45 46.69 10.38 47.02 10.82 47.07ZM 11.35 49.37C 11.57 49.54 11.75 49.67 11.93 49.81 12.14 49.26 12.14 49.26 11.76 48.7 11.58 48.99 11.47 49.18 11.35 49.37ZM 12.55 48.65C 12.67 48.38 12.73 48.24 12.82 48.02 12.54 48.04 12.36 48.05 12.06 48.07 12.24 48.28 12.35 48.41 12.55 48.65ZM 12.75 49.73C 12.18 50.51 12.18 50.51 12.93 51.03 13.06 50.79 13.19 50.56 13.34 50.27 13.13 50.08 12.94 49.91 12.75 49.73ZM 13.62 49.59C 14.05 48.9 14.05 48.9 13.6 48.43 12.94 49.11 12.94 49.11 13.62 49.59ZM 13.88 50.86C 13.32 51.43 13.32 51.43 13.86 51.96 14.02 51.54 14.4 51.2 13.88 50.86ZM 14.07 53.07C 13.73 53.48 13.78 53.76 14.29 53.99 14.56 53.58 14.65 53.27 14.07 53.07ZM 14.43 55.24C 14.25 55.61 14.11 55.89 13.99 56.15 14.17 56.4 14.31 56.58 14.54 56.89 14.71 56.23 15.22 55.8 14.43 55.24ZM 14.76 57.87C 14.52 58.26 14.37 58.51 14.81 58.68 14.87 58.7 14.96 58.62 15.11 58.56 15 58.34 14.91 58.16 14.76 57.87ZM 15.34 60.98C 15.62 60.52 15.69 60.2 15.14 60.03 14.94 60.5 14.94 60.5 15.34 60.98ZM 15.87 63.33C 16.2 62.83 16.16 62.48 15.66 62.25 15.31 62.87 15.31 62.87 15.87 63.33ZM 15.14 63.54C 14.66 64.4 14.66 64.4 15.17 64.84 15.68 64.03 15.68 64.03 15.14 63.54ZM 15.4 66.07C 14.77 67.02 14.77 67.02 15.64 67.7 15.78 67.39 15.91 67.1 16.05 66.78 15.83 66.54 15.65 66.34 15.4 66.07ZM 15.89 68.94C 15.75 69.45 15.3 69.81 15.82 70.25 16.38 69.54 16.38 69.54 15.89 68.94ZM 16.07 71.52C 15.44 72.56 15.44 72.6 16.18 73.26 16.97 72.28 16.96 72.08 16.07 71.52ZM 16.28 84.11C 16.12 84.63 16.12 84.63 16.57 84.88 16.61 84.56 16.81 84.21 16.28 84.11ZM 15.81 85.31C 15.45 85.96 15.45 85.96 15.97 86.42 16.35 85.77 16.35 85.77 15.81 85.31ZM 16.16 88.12C 16.12 88.11 16.08 88.1 16.04 88.09 15.98 88.27 15.9 88.45 15.86 88.63 15.85 88.67 15.96 88.73 16.1 88.85 16.12 88.55 16.14 88.34 16.16 88.12ZM 15.62 90.34C 15.72 90.1 15.82 89.86 15.87 89.61 15.88 89.52 15.77 89.4 15.65 89.18 15.46 89.47 15.38 89.54 15.37 89.62 15.34 89.84 15.32 90.06 15.33 90.28 15.33 90.31 15.61 90.36 15.62 90.34ZM 14.93 91.69C 15.06 91.42 15.45 91.18 14.92 90.82 14.51 91.45 14.51 91.45 14.93 91.69ZM 14.3 93.04C 14.44 92.78 14.51 92.53 14.06 92.41 13.91 92.74 13.76 93.06 13.62 93.38 14.1 93.68 14.17 93.29 14.3 93.04ZM 14 91.06C 14.49 90.24 14.49 90.24 13.82 89.87 13.63 90.28 13.35 90.69 14 91.06ZM 13.68 88.64C 13.97 88.15 14.22 87.8 14.02 87.21 13.65 87.63 13.41 87.99 13.68 88.64ZM 13.22 91.45C 13.18 91.9 12.46 92.29 13.09 92.85 13.7 92.07 13.71 92.01 13.22 91.45ZM 13.53 94.45C 13.53 94.4 13.4 94.35 13.28 94.26 13.18 94.47 13.1 94.66 12.95 94.99 13.54 94.77 13.55 94.77 13.53 94.45ZM 12.15 96.07C 12.49 96.3 12.82 96.36 13 95.9 12.9 95.98 12.8 96.06 12.7 96.13 12.38 95.78 12.05 95.43 11.73 95.08 11.52 95.41 11.58 95.7 12.15 96.07ZM 11.63 93.25C 11.92 92.68 11.92 92.68 11.68 92.2 11.41 92.54 11.12 92.81 11.63 93.25ZM 11.06 94.69C 11.39 94.29 11.49 93.98 10.95 93.63 10.75 94.04 10.58 94.36 11.06 94.69ZM 10.23 95.89C 10.33 95.95 10.54 95.95 10.62 95.88 10.71 95.81 10.76 95.6 10.72 95.48 10.68 95.32 10.54 95.18 10.35 94.9 10.21 95.2 10.1 95.36 10.08 95.53 10.06 95.64 10.13 95.83 10.23 95.89ZM 10.04 93.69C 10.47 93.03 10.47 93.03 10.04 92.7 10.04 92.99 10.04 93.25 10.04 93.69ZM 9.19 94.97C 9.19 94.3 9.12 93.78 9.2 93.28 9.49 91.35 9.86 89.43 10.15 87.49 10.29 86.54 10.41 85.57 10.36 84.62 10.34 84.19 10.3 83.8 10.42 83.38 10.5 83.08 10.48 82.73 10.42 82.42 10.37 82.1 10.14 81.81 10.12 81.5 10.01 79.54 9.89 77.58 9.88 75.62 9.87 73.88 10.01 72.14 10.05 70.4 10.09 69 10.05 67.6 10.1 66.2 10.13 65.02 10.22 63.84 10.31 62.66 10.46 60.68 10.66 58.7 10.76 56.72 10.81 55.74 10.72 54.73 10.62 53.74 10.47 52.2 10.23 50.67 10.05 49.13 9.9 47.8 9.79 46.47 9.66 45.1 9.27 45.19 8.96 45.17 8.96 44.67 8.96 44.56 8.88 44.46 8.83 44.36 8.82 44.36 8.81 44.36 8.81 44.36 8.81 44.35 8.82 44.35 8.82 44.34 8.82 44.34 8.84 44.36 8.84 44.36 8.52 43.64 9.3 43.94 9.51 43.63 9.21 41.65 9.17 39.6 8.72 37.45 7.84 38.21 8.42 39.07 8.19 39.74 8.42 39.87 8.68 39.93 8.73 40.07 8.86 40.44 8.56 40.45 8.3 40.46 8.31 40.6 8.27 40.78 8.34 40.88 8.41 40.97 8.6 40.97 8.79 41.03 8.56 41.51 9.07 42.02 8.5 42.5 8.35 42.13 8.23 41.84 8.08 41.47 8.04 41.65 8.01 41.76 8 41.87 7.82 43.54 7.66 45.21 7.47 46.88 7.28 48.58 7.05 50.27 6.87 51.98 6.65 54.08 6.54 56.19 6.27 58.29 5.94 60.86 5.98 63.44 5.82 66.02 5.79 66.55 6.14 67.18 5.96 67.62 5.69 68.3 5.81 68.96 5.76 69.63 5.55 72.64 5.57 75.65 5.92 78.66 6.1 80.26 6.21 81.88 6.36 83.49 6.67 86.74 6.94 90 8.04 93.11 8.27 93.74 8.44 94.41 9.19 94.97ZM 8.33 34.91C 8.28 35.55 8.04 36.23 8.6 36.77 8.66 36.13 8.67 35.5 8.33 34.91ZM 6.22 43.6C 6.14 44.34 6.12 45 6.92 45.46 7.14 43.78 7.45 42.12 7.55 40.46 7.67 38.38 7.63 36.29 7.63 34.21 7.63 33.98 7.56 33.72 7.43 33.52 7.08 32.95 6.68 32.41 6.29 31.86 6.24 31.87 6.18 31.88 6.12 31.89 6.17 32.35 6.21 32.81 6.27 33.27 6.35 33.92 6.5 34.56 6.52 35.21 6.62 38.01 6.51 40.81 6.22 43.6ZM 5.64 51.62C 5.53 52.15 5.5 52.65 6.08 52.96 6.25 52.03 6.25 52.03 5.64 51.62ZM 7.9 94.64C 7.62 94.04 7.62 93.3 6.97 92.92 7.22 93.54 7.25 94.26 7.9 94.64ZM 6.64 90.73C 6.54 90.1 6.75 89.53 6.02 89.21 6.06 89.79 6.05 90.29 6.64 90.73ZM 6.12 88.26C 6.27 87.83 6.1 87.62 5.7 87.45 5.61 87.86 5.78 88.08 6.12 88.26ZM 6.07 86.57C 6.07 85.96 6.01 85.47 5.33 85.37 5.35 86.42 5.35 86.42 6.07 86.57ZM 5.12 84.29C 5.39 84.33 5.57 84.36 5.76 84.38 5.76 83.93 5.76 83.57 5.76 83.11 5.47 83.03 5.25 82.97 4.92 82.88 4.99 83.42 5.06 83.86 5.12 84.29ZM 5.52 82.23C 5.62 81.46 5.62 81.46 4.81 80.92 4.67 81.79 4.76 81.95 5.52 82.23ZM 5.39 80.37C 5.57 79.59 5.3 79.08 4.57 78.71 4.51 79.5 4.69 80.06 5.39 80.37ZM 5.16 78.19C 5.34 77.5 4.82 77.32 4.56 76.91 4.25 77.65 4.85 77.78 5.16 78.19ZM 4.4 68.9C 4.27 69.71 4.24 70.38 4.96 70.86 5.33 69.63 5.33 69.62 4.4 68.9ZM 5.02 76.12C 5.22 75.62 4.98 75.3 4.6 75.03 4.29 75.59 4.29 75.59 5.02 76.12ZM 4.96 74.28C 5.1 73.71 5.11 73.26 4.38 73.04 4.27 73.66 4.38 74.06 4.96 74.28ZM 4.27 71.5C 4.45 71.81 4.63 72.11 4.89 72.57 5.18 71.77 4.93 71.5 4.27 71.5ZM 5.09 68.66C 5.12 67.84 5.32 67.12 4.42 66.76 4.15 67.53 4.44 68.07 5.09 68.66ZM 5.16 66.27C 5.31 65.58 4.9 65.34 4.57 65 4.3 65.66 4.78 65.87 5.16 66.27ZM 5.2 64.43C 5.24 64.11 5.24 63.79 5.32 63.5 5.5 62.93 5.33 62.61 4.75 62.51 4.35 63.4 4.45 63.86 5.2 64.43ZM 5.3 62.13C 5.55 61.45 5.34 61.08 4.75 60.73 4.77 61.3 4.94 61.67 5.3 62.13ZM 5.34 60.09C 5.55 59.14 5.55 59.14 4.85 58.72 4.84 59.26 4.6 59.84 5.34 60.09ZM 5.63 58.26C 5.85 57.58 5.35 57.4 5.07 57.1 4.73 57.74 5.42 57.8 5.63 58.26ZM 5.21 55.33C 4.96 56 5.33 56.32 5.71 56.69 5.91 56.09 5.75 55.68 5.21 55.33ZM 5.85 55.06C 6.12 54.08 6.1 54.02 5.44 53.54 5.14 54.12 5.43 54.54 5.85 55.06ZM 6.34 51.22C 6.1 50.39 6.1 50.39 5.54 50.21 5.81 50.55 6.02 50.81 6.34 51.22ZM 5.57 48.63C 5.91 49.14 6.14 49.48 6.37 49.81 6.45 49.14 6.45 49.14 5.57 48.63ZM 6.76 48.5C 6.64 47.85 6.36 47.48 5.88 47.25 6.2 47.58 6.07 48.23 6.76 48.5ZM 5.96 45.91C 6.11 46.1 6.26 46.29 6.41 46.48 6.46 46.44 6.51 46.4 6.56 46.36 6.42 46.16 6.28 45.97 6.14 45.77 6.08 45.82 6.02 45.87 5.96 45.91ZM 0.81 10.37C 0.57 11.02 0.56 11.72 0.77 12.42 0.97 13.06 1.18 13.71 1.44 14.34 1.82 15.22 2.21 16.1 2.68 16.93 3.49 18.35 4.38 19.73 5.23 21.12 6.01 22.4 6.35 23.82 6.4 25.29 6.45 26.46 6.36 27.64 6.33 28.81 6.31 29.4 6.21 30 6.62 30.51 6.39 29.41 6.62 28.42 7.4 27.6 8.07 26.9 8.65 26.95 9.2 27.72 9.87 28.65 9.73 30.45 8.93 31.26 8.34 31.86 7.97 31.92 7.21 31.54 7.11 31.49 7 31.42 6.9 31.36 7.22 31.91 7.43 32.61 7.89 32.97 8.88 33.74 9.16 34.73 9.28 35.89 9.58 39.04 9.94 42.19 10.28 45.41 10.61 45.46 10.93 45.52 11.21 45.56 11.29 45.44 11.35 45.39 11.36 45.34 11.45 42.7 11.59 40.06 11.63 37.42 11.64 36.21 11.47 35 11.4 33.79 11.28 31.73 10.9 29.73 10.37 27.74 10.11 26.76 9.61 26.16 8.65 25.91 7.9 25.71 7.42 25.22 7.31 24.42 7.12 23.1 6.46 21.99 5.84 20.84 4.95 19.17 4.11 17.48 3.29 15.78 2.97 15.12 2.76 14.4 2.2 13.87 2.01 13.68 1.87 13.41 1.77 13.16 1.43 12.23 1.12 11.29 0.81 10.37ZM 8.26 30.34C 7.99 29.94 7.66 29.59 7.23 29.06 7.03 29.91 7.12 30.48 7.59 30.89 7.73 31.02 8.07 30.92 8.32 30.92 8.31 30.72 8.36 30.48 8.26 30.34ZM 8.82 29.94C 9.08 28.71 8.98 28.36 8.32 27.81 8.09 28 7.86 28.18 7.56 28.43 7.98 28.93 8.37 29.4 8.82 29.94ZM 12.29 30.17C 12.23 29.64 12.18 29.15 12.12 28.62 11.83 28.62 11.6 28.62 11.31 28.62 11.4 29.08 11.46 29.5 11.56 29.91 11.65 30.34 11.93 30.29 12.29 30.17ZM 2.88 13.22C 2.8 13.1 2.72 12.99 2.63 12.87 2.59 12.9 2.54 12.92 2.49 12.95 2.56 13.08 2.62 13.21 2.68 13.34 2.75 13.3 2.81 13.26 2.88 13.22ZM 3.47 8.5C 3.37 7.5 3.45 6.47 3.45 5.42 3.31 5.52 3.08 5.6 2.99 5.76 2.65 6.34 2.28 6.92 2.04 7.55 1.62 8.69 1.35 9.87 1.66 11.1 1.77 11.56 1.94 12.08 2.49 12.08 3.06 12.09 3.17 11.54 3.26 11.08 3.42 10.23 3.56 9.39 3.47 8.5ZM 3.62 13.51C 3.45 13.66 3.4 13.96 3.34 14.21 3.32 14.31 3.42 14.44 3.46 14.55 4.16 16.49 5.19 18.25 6.14 20.06 6.65 21.05 7.3 22 7.61 23.05 8.29 25.28 7.91 24.69 9.78 25.55 9.8 25.56 9.84 25.55 9.99 25.54 10.35 24.9 10.29 24.23 10.15 23.56 9.7 21.48 8.62 19.72 7.42 18.02 6.69 17 5.89 16.02 5.13 15.02 4.82 14.6 4.53 14.17 4.23 13.75 4.07 13.53 3.85 13.32 3.62 13.51ZM 5.29 5.01C 5.06 4.74 4.74 4.87 4.54 5.04 4.35 5.2 4.18 5.48 4.16 5.72 4.08 6.39 4.03 7.08 4.06 7.76 4.15 9.35 4.09 10.92 3.83 12.49 3.82 12.57 3.86 12.66 3.88 12.77 4.12 12.83 4.35 12.89 4.61 12.96 4.65 12.77 4.68 12.62 4.7 12.47 4.89 11.08 5.08 9.7 5.25 8.31 5.37 7.42 5.49 6.53 5.56 5.63 5.58 5.43 5.43 5.18 5.29 5.01ZM 13.71 27.37C 13.43 26.22 13.2 25.06 12.82 23.95 12.26 22.24 11.63 20.54 10.45 19.13 9.48 17.96 8.54 16.77 7.52 15.64 6.37 14.38 5.6 13 5.75 11.21 5.76 11.1 5.66 10.97 5.62 10.85 5.43 11.33 5.37 11.78 5.34 12.24 5.26 13.52 5.49 14.69 6.36 15.71 7.82 17.4 9.13 19.21 10.04 21.27 10.71 22.81 11.22 24.36 10.67 26.06 10.64 26.14 10.62 26.24 10.62 26.33 10.58 26.99 10.99 27.76 11.45 27.83 12.18 27.93 12.91 27.98 13.72 28.06 13.72 27.73 13.76 27.54 13.71 27.37ZM 13.83 28.82C 13.46 28.82 13.17 28.82 12.87 28.82 12.87 29.32 12.87 29.79 12.87 30.28 13.27 30.28 13.58 30.28 13.96 30.28 13.91 29.76 13.88 29.31 13.83 28.82ZM 14.44 45.29C 14.36 44.02 14.24 42.75 14.21 41.48 14.14 38.32 14.12 35.15 14.07 31.99 14.06 31.72 14.01 31.45 13.97 31.13 13.28 31.07 12.65 31.02 11.89 30.96 11.89 31.41 11.86 31.78 11.89 32.13 12.04 33.99 12.27 35.84 12.63 37.67 13.15 40.35 13.56 43.05 14.03 45.77 14.52 45.81 14.46 45.55 14.44 45.29ZM 12 45.69C 12.45 45.72 12.83 45.75 13.38 45.79 13.05 43.65 12.75 41.68 12.45 39.71 12.39 39.72 12.33 39.72 12.27 39.73 12.18 41.69 12.09 43.65 12 45.69ZM 14.43 46.58C 13.61 46.52 12.81 46.46 12.01 46.4 11.91 46.67 11.82 46.9 11.67 47.29 12.63 47.22 13.42 47.17 14.21 47.1 14.57 47.07 14.55 46.84 14.43 46.58ZM 14.61 49.24C 14.31 49.69 13.88 50.01 14.43 50.6 14.7 50.13 14.89 49.78 14.61 49.24ZM 14.82 52.79C 14.92 52.33 14.99 51.98 15.08 51.56 14.28 51.99 14.23 52.21 14.82 52.79ZM 15.13 53.87C 14.65 54.7 14.65 54.7 15.18 54.95 15.43 54.35 15.43 54.35 15.13 53.87ZM 15.44 56.39C 14.9 57.13 14.9 57.13 15.31 57.63 15.71 56.91 15.71 56.9 15.44 56.39ZM 15.6 58.92C 15.31 59.33 15.36 59.58 15.82 59.76 16.06 59.38 16.05 59.12 15.6 58.92ZM 16.27 60.87C 15.77 61.61 15.77 61.61 16.35 61.95 16.32 61.6 16.3 61.29 16.27 60.87ZM 16.47 64.48C 15.77 64.52 15.8 65.09 15.63 65.46 15.84 65.74 16.01 65.97 16.21 66.24 16.64 65.6 16.62 65.06 16.47 64.48ZM 16.14 68.45C 16.18 68.57 16.38 68.65 16.67 68.89 16.71 68.25 16.73 67.79 16.77 67.21 16.29 67.71 16.05 68.15 16.14 68.45ZM 16.8 70.24C 16.24 70.9 16.24 70.9 16.9 71.26 16.87 70.92 16.84 70.6 16.8 70.24ZM 2.54 10.67C 2.56 11.15 2.55 11.15 2.01 11.17 1.71 9.53 2.12 7.67 3.01 7.19 2.98 7.53 3 7.75 2.93 7.93 2.58 8.81 2.49 9.73 2.54 10.67ZM 9.36 43.09C 9.27 43.23 9.2 43.4 9.15 43.4 8.9 43.38 8.64 43.34 8.4 43.26 8.3 43.22 8.25 43.05 8.18 42.94 8.23 42.89 8.27 42.84 8.32 42.79 8.64 42.88 8.96 42.97 9.36 43.09ZM 8.12 44.32C 8.41 44.34 8.61 44.35 8.81 44.36 8.65 44.57 8.52 45 8.12 44.32Z" fill="rgb(59,59,59)"/></svg>