<?xml version="1.0" encoding="utf-8"?>
<svg xmlns="http://www.w3.org/2000/svg"
	xmlns:xlink="http://www.w3.org/1999/xlink"
	width="46px" height="46px" viewBox="0 0 46 46">
<path fillRule="evenodd" d="M 23.14 46.01C 10.52 46.01 0.26 35.69 0.26 23 0.26 10.32 10.52-0.01 23.14-0.01 35.76-0.01 46.02 10.32 46.02 23 46.02 35.69 35.76 46.01 23.14 46.01ZM 24.95 11.42C 24.95 11.42 18.15 11.42 18.15 11.42 17.41 11.42 16.65 11.55 15.91 11.81 13.43 12.67 11.7 14.79 11.7 16.97 11.7 20.06 14.08 22.4 17.26 22.48 17.19 22.72 17.16 22.97 17.16 23.2 17.16 23.68 17.28 24.13 17.53 24.56 17.53 24.56 17.44 24.56 17.44 24.56 14.41 24.56 11.67 26.06 10.63 28.29 10.36 28.87 10.22 29.45 10.22 30.03 10.22 30.59 10.36 31.13 10.65 31.64 11.3 32.82 12.7 33.73 14.6 34.21 15.58 34.46 16.63 34.59 17.72 34.59 18.7 34.59 19.64 34.46 20.5 34.21 23.2 33.42 24.94 31.42 24.94 29.12 24.94 26.91 24.24 25.58 22.34 24.24 21.52 23.66 20.78 22.81 20.77 22.54 20.77 22.07 20.82 21.84 21.87 21.01 23.25 19.93 24 18.52 24 17.02 24 15.66 23.59 14.45 22.89 13.6 22.89 13.6 23.43 13.6 23.43 13.6 23.54 13.6 23.65 13.57 23.75 13.5 23.75 13.5 25.27 12.39 25.27 12.39 25.45 12.26 25.53 12.01 25.46 11.79 25.39 11.57 25.18 11.42 24.95 11.42ZM 35.86 21.36C 35.86 21.07 35.63 20.82 35.33 20.82 35.33 20.82 31.46 20.82 31.46 20.82 31.46 20.82 31.46 16.94 31.46 16.94 31.46 16.64 31.23 16.4 30.93 16.4 30.93 16.4 29.83 16.4 29.83 16.4 29.53 16.4 29.29 16.64 29.29 16.94 29.29 16.94 29.29 20.82 29.29 20.82 29.29 20.82 25.43 20.82 25.43 20.82 25.14 20.82 24.89 21.07 24.89 21.37 24.89 21.37 24.89 22.47 24.89 22.47 24.89 22.77 25.14 23.01 25.43 23.01 25.43 23.01 29.29 23.01 29.29 23.01 29.29 23.01 29.29 26.9 29.29 26.9 29.29 27.2 29.53 27.44 29.83 27.44 29.83 27.44 30.93 27.44 30.93 27.44 31.23 27.44 31.46 27.2 31.46 26.9 31.46 26.9 31.46 23.01 31.46 23.01 31.46 23.01 35.33 23.01 35.33 23.01 35.63 23.01 35.86 22.77 35.86 22.47 35.86 22.47 35.86 21.36 35.86 21.36ZM 18.44 20.71C 18.44 20.71 18.43 20.71 18.43 20.71 18.43 20.71 18.41 20.71 18.41 20.71 16.94 20.66 15.47 18.91 15.21 16.89 15.06 15.76 15.3 14.74 15.86 14.1 16.22 13.68 16.69 13.46 17.22 13.46 17.22 13.46 17.28 13.47 17.28 13.47 18.79 13.51 20.23 15.19 20.49 17.22 20.64 18.35 20.38 19.42 19.82 20.07 19.46 20.49 18.99 20.71 18.44 20.71ZM 18.16 26.28C 18.66 26.28 19.15 26.36 19.62 26.5 19.77 26.61 19.93 26.72 20.07 26.82 21.15 27.55 21.86 28.04 22.05 28.82 22.1 29.01 22.12 29.21 22.12 29.4 22.12 31.4 20.64 32.42 17.71 32.42 15.49 32.42 13.75 31.05 13.75 29.3 13.75 27.69 15.78 26.28 18.09 26.28 18.09 26.28 18.16 26.28 18.16 26.28Z" fill="rgb(218,50,32)"/></svg>