<?xml version="1.0" encoding="utf-8"?>
<svg xmlns="http://www.w3.org/2000/svg"
	xmlns:xlink="http://www.w3.org/1999/xlink"
	width="45px" height="45px" viewBox="0 0 45 45">
<path fillRule="evenodd" d="M 22.52-0C 10.37-0 0.49 9.93 0.49 22.14 0.49 34.35 10.37 44.28 22.52 44.28 34.67 44.28 44.56 34.35 44.56 22.14 44.56 9.93 34.67-0 22.52-0 22.52-0 22.52-0 22.52-0ZM 32.35 17.07C 32.36 17.29 32.37 17.51 32.37 17.74 32.37 24.47 27.27 32.23 17.94 32.23 15.07 32.23 12.41 31.39 10.16 29.94 10.56 29.99 10.96 30.01 11.37 30.01 13.75 30.01 15.93 29.2 17.67 27.83 15.45 27.79 13.58 26.32 12.94 24.29 13.24 24.35 13.56 24.38 13.89 24.38 14.35 24.38 14.8 24.32 15.22 24.21 12.9 23.74 11.15 21.68 11.15 19.21 11.15 19.19 11.15 19.17 11.16 19.15 11.84 19.53 12.62 19.76 13.46 19.78 12.09 18.87 11.2 17.31 11.2 15.54 11.2 14.61 11.45 13.73 11.88 12.98 14.38 16.06 18.12 18.09 22.33 18.3 22.25 17.93 22.2 17.54 22.2 17.14 22.2 14.33 24.48 12.05 27.28 12.05 28.74 12.05 30.05 12.67 30.98 13.65 32.13 13.43 33.22 13.01 34.2 12.42 33.82 13.61 33.02 14.61 31.97 15.24 33 15.12 33.97 14.84 34.88 14.44 34.2 15.46 33.34 16.35 32.35 17.07 32.35 17.07 32.35 17.07 32.35 17.07Z" fill="rgb(47,205,238)"/></svg>