<?xml version="1.0" encoding="utf-8"?>
<svg xmlns="http://www.w3.org/2000/svg"
	xmlns:xlink="http://www.w3.org/1999/xlink"
	width="43px" height="43px" viewBox="0 0 43 43">
<path fillRule="evenodd" d="M 21.3 0.01C 9.6 0.01 0.07 9.56 0.07 21.29 0.07 33.03 9.6 42.58 21.3 42.58 33.01 42.58 42.54 33.03 42.54 21.29 42.54 9.56 33.01 0.01 21.3 0.01 21.3 0.01 21.3 0.01 21.3 0.01ZM 26.59 22.04C 26.59 22.04 23.13 22.04 23.13 22.04 23.13 22.04 23.13 34.39 23.13 34.39 23.13 34.39 18.01 34.39 18.01 34.39 18.01 34.39 18.01 22.04 18.01 22.04 18.01 22.04 15.58 22.04 15.58 22.04 15.58 22.04 15.58 17.68 15.58 17.68 15.58 17.68 18.01 17.68 18.01 17.68 18.01 17.68 18.01 14.86 18.01 14.86 18.01 12.84 18.97 9.68 23.18 9.68 23.18 9.68 26.97 9.69 26.97 9.69 26.97 9.69 26.97 13.93 26.97 13.93 26.97 13.93 24.22 13.93 24.22 13.93 23.77 13.93 23.13 14.15 23.13 15.12 23.13 15.12 23.13 17.68 23.13 17.68 23.13 17.68 27.03 17.68 27.03 17.68 27.03 17.68 26.59 22.04 26.59 22.04Z" fill="rgb(48,72,139)"/></svg>