<?xml version="1.0" encoding="utf-8"?>
<svg xmlns="http://www.w3.org/2000/svg"
	xmlns:xlink="http://www.w3.org/1999/xlink"
	width="45px" height="45px" viewBox="0 0 45 45">
<path fillRule="evenodd" d="M 22.25 44.29C 10.07 44.29 0.2 34.38 0.2 22.15 0.2 9.91 10.07-0.01 22.25-0.01 34.42-0.01 44.29 9.91 44.29 22.15 44.29 34.38 34.42 44.29 22.25 44.29ZM 22.28 6.73C 17.99 6.72 14.51 10.2 14.49 14.52 14.46 18.78 17.94 22.32 22.19 22.33 26.47 22.35 29.98 18.89 30 14.63 30.02 10.27 26.57 6.74 22.28 6.73ZM 31.1 23.14C 30.66 22.41 29.89 22.11 29.07 22.32 28.65 22.43 28.29 22.65 27.95 22.91 24.51 25.23 19.81 25.16 16.39 22.8 16.22 22.69 16.05 22.57 15.86 22.49 14.91 22.04 14 22.25 13.46 23.03 12.82 23.95 12.9 24.83 13.71 25.61 13.92 25.81 14.15 25.98 14.38 26.16 16.21 27.61 18.36 28.2 20.74 28.44 20.57 28.62 20.46 28.75 20.35 28.87 18.6 30.62 16.86 32.38 15.11 34.14 14.75 34.5 14.49 34.9 14.46 35.43 14.43 36.22 14.91 36.99 15.67 37.36 16.38 37.71 17.11 37.6 17.73 36.99 19.1 35.63 20.46 34.27 21.81 32.88 22.14 32.53 22.32 32.46 22.7 32.86 24.01 34.23 25.37 35.55 26.7 36.9 27.05 37.25 27.44 37.5 27.94 37.54 28.74 37.59 29.54 37.08 29.91 36.31 30.24 35.6 30.11 34.84 29.51 34.23 27.75 32.44 25.98 30.67 24.21 28.89 24.09 28.76 23.99 28.66 23.8 28.44 25.1 28.28 26.41 28.05 27.61 27.58 28.88 27.09 30.03 26.38 30.98 25.4 31.59 24.76 31.6 23.96 31.1 23.14ZM 22.27 18.35C 20.16 18.36 18.46 16.68 18.44 14.57 18.43 12.43 20.13 10.71 22.25 10.72 24.35 10.72 26.03 12.4 26.04 14.53 26.05 16.65 24.37 18.34 22.27 18.35Z" fill="rgb(250,136,13)"/></svg>