<?xml version="1.0" encoding="utf-8"?>
<svg xmlns="http://www.w3.org/2000/svg"
	xmlns:xlink="http://www.w3.org/1999/xlink"
	width="43px" height="43px" viewBox="0 0 43 43">
<path fillRule="evenodd" d="M 21.25-0C 9.52-0 0.01 9.53 0.01 21.3 0.01 33.06 9.52 42.59 21.25 42.59 32.98 42.59 42.49 33.06 42.49 21.3 42.49 9.53 32.98-0 21.25-0 21.25-0 21.25-0 21.25-0ZM 32.03 23.6C 33.02 24.57 34.06 25.48 34.95 26.55 35.35 27.03 35.72 27.52 36 28.07 36.41 28.85 36.04 29.71 35.34 29.76 35.34 29.76 30.99 29.76 30.99 29.76 29.86 29.85 28.97 29.4 28.22 28.63 27.61 28.01 27.05 27.36 26.47 26.72 26.24 26.46 25.99 26.21 25.69 26.02 25.1 25.63 24.58 25.75 24.24 26.37 23.9 27.01 23.82 27.71 23.78 28.41 23.74 29.44 23.43 29.71 22.4 29.76 20.2 29.86 18.11 29.53 16.17 28.41 14.46 27.43 13.13 26.05 11.98 24.48 9.73 21.43 8.01 18.07 6.46 14.62 6.11 13.84 6.37 13.43 7.22 13.41 8.64 13.38 10.06 13.39 11.48 13.41 12.06 13.42 12.44 13.75 12.67 14.3 13.44 16.19 14.38 17.99 15.56 19.66 15.87 20.11 16.19 20.55 16.65 20.87 17.15 21.21 17.54 21.1 17.77 20.53 17.92 20.18 17.99 19.79 18.02 19.41 18.14 18.09 18.15 16.78 17.95 15.46 17.83 14.64 17.37 14.11 16.56 13.96 16.14 13.88 16.2 13.72 16.4 13.49 16.75 13.08 17.08 12.82 17.74 12.82 17.74 12.82 22.66 12.82 22.66 12.82 23.43 12.97 23.61 13.32 23.71 14.1 23.71 14.1 23.72 19.58 23.72 19.58 23.71 19.88 23.87 20.78 24.41 20.98 24.85 21.13 25.13 20.78 25.39 20.5 26.57 19.25 27.41 17.77 28.16 16.23 28.5 15.56 28.78 14.86 29.06 14.16 29.27 13.64 29.59 13.38 30.17 13.39 30.17 13.39 34.91 13.4 34.91 13.4 35.05 13.4 35.19 13.4 35.32 13.42 36.12 13.56 36.34 13.9 36.1 14.68 35.71 15.91 34.95 16.93 34.21 17.96 33.42 19.05 32.58 20.11 31.8 21.21 31.08 22.22 31.13 22.73 32.03 23.6 32.03 23.6 32.03 23.6 32.03 23.6Z" fill="rgb(72,117,155)"/></svg>