<?xml version="1.0" encoding="utf-8"?>
<!-- Generator: Adobe Illustrator 16.0.0, SVG Export Plug-In . SVG Version: 6.00 Build 0)  -->
<!DOCTYPE svg PUBLIC "-//W3C//DTD SVG 1.1//EN" "http://www.w3.org/Graphics/SVG/1.1/DTD/svg11.dtd">
<svg version="1.1" id="Слой_1" xmlns="http://www.w3.org/2000/svg" xmlns:xlink="http://www.w3.org/1999/xlink" x="0px" y="0px"
	 width="88.125px" height="97.719px" viewBox="0 0 88.125 97.719" enable-background="new 0 0 88.125 97.719" xml:space="preserve">
<g>
	<g>
		<path fill="#3C3C3C" stroke="#3C3C3C" stroke-width="0.1" stroke-miterlimit="10" d="M43.141,73.231
			c-0.284,0.445-0.527,0.766-0.708,1.12c-0.695,1.359-1.104,2.824-1.492,4.294c-0.7,2.661-0.743,5.374-0.667,8.099
			c0.03,1.084,0.035,2.168,0.028,3.251c0,0.161-0.141,0.317-0.193,0.483c-0.198,0.624-0.369,1.257-0.583,1.875
			c-0.25,0.728-0.486,1.466-0.824,2.152c-0.207,0.422-0.548,0.81-0.909,1.118c-1.146,0.979-2.495,1.483-4.004,1.359
			c-0.664-0.055-1.33-0.27-1.956-0.513c-0.336-0.131-0.655-0.429-0.87-0.731c-0.622-0.873-1.067-1.834-1.314-2.89
			c-0.326-1.388-0.672-2.774-1.06-4.146c-0.331-1.176-0.73-2.334-1.11-3.497c-0.083-0.257-0.213-0.497-0.323-0.745
			c-0.491-1.12-0.991-2.235-1.47-3.36c-0.247-0.58-0.449-1.178-0.686-1.762c-0.506-1.253-0.464-2.572-0.502-3.886
			c-0.072-2.479,0.21-4.93,0.469-7.389c0.205-1.933,0.359-3.88,0.22-5.835c-0.044-0.632-0.025-1.27-0.05-1.904
			c-0.054-1.335-0.124-2.67-0.172-4.007c-0.035-0.951-0.083-1.904-0.059-2.856c0.015-0.659-0.167-1.242-0.391-1.842
			c-0.647-1.739-1.313-3.475-1.879-5.242c-0.388-1.207-0.585-2.462-0.612-3.745c-0.022-1.062-0.19-2.119-0.243-3.18
			c-0.07-1.473-0.19-2.964,0.18-4.405c0.406-1.575,1.128-2.967,2.433-4.059c1.352-1.134,2.566-2.432,3.862-3.633
			c0.697-0.646,1.376-1.349,2.179-1.83c0.943-0.564,1.997-1.036,3.155-0.841c0.571,0.096,1.165,0.271,1.658,0.563
			c1.504,0.888,3.157,1.221,4.844,1.469c0.448,0.066,0.918,0.058,1.34,0.199c0.554,0.184,1.07,0.481,1.601,0.733
			c0.101,0.049,0.199,0.109,0.29,0.178c0.538,0.401,1.025,0.402,1.674,0.099c1.804-0.843,3.66-1.58,5.504-2.333
			c1.229-0.503,2.257-0.06,3.174,0.769c0.688,0.622,1.369,1.248,2.054,1.872c0.049,0.047,0.098,0.096,0.15,0.138
			c0.518,0.416,1.016,0.616,1.735,0.356c0.775-0.279,1.634-0.463,2.454-0.451c1.337,0.019,2.629,0.302,3.719,1.221
			c0.924,0.78,1.462,1.727,1.779,2.882c0.25,0.91,0.711,1.758,1.032,2.648c0.174,0.481,0.279,0.993,0.37,1.498
			c0.1,0.557,0.084,1.141,0.228,1.682c0.279,1.045,0.132,2.073-0.009,3.104c-0.244,1.781-0.724,3.498-1.349,5.184
			c-0.329,0.889-0.49,1.837-0.783,2.74c-0.287,0.879-0.621,1.747-0.982,2.598c-0.323,0.76-0.527,1.538-0.659,2.349
			c-0.333,2.078-0.482,4.19-1.122,6.212c-0.048,0.151-0.069,0.312-0.125,0.459c-0.677,1.779-0.962,3.637-1.066,5.522
			c-0.128,2.332-0.2,4.666-0.303,7c-0.081,1.811-0.158,3.624-0.26,5.435c-0.078,1.402-0.151,2.806-0.304,4.201
			c-0.109,0.988-0.377,1.958-0.522,2.942c-0.254,1.726-0.479,3.453-0.695,5.183c-0.231,1.865-0.728,3.634-1.723,5.247
			c-0.341,0.554-0.866,0.878-1.441,1.078c-0.964,0.335-1.967,0.335-2.946,0.055c-0.757-0.215-1.28-0.723-1.646-1.425
			c-0.768-1.471-0.999-3.085-1.339-4.679c-0.336-1.57-0.483-3.18-1.024-4.709c-0.212-0.593-0.323-1.224-0.455-1.843
			c-0.39-1.834-1.159-3.524-1.972-5.198c-0.495-1.017-0.953-2.054-1.468-3.061c-0.383-0.744-0.838-1.451-1.25-2.181
			C43.563,74.087,43.401,73.738,43.141,73.231 M53.756,26.984c-0.075,0.756-0.178,1.509-0.211,2.267
			c-0.018,0.402,0.069,0.422,0.555,0.311c-0.148-1.237-0.13-1.643,0.109-1.99c0.215,0.62-0.101,1.309,0.307,1.883
			c0.06-0.47,0.053-0.936,0.062-1.402c0.011-0.686-0.098-0.831-0.836-1.056c-0.339-0.711-1.019-0.968-1.686-1.226
			c-0.18-0.069-0.378-0.071-0.54,0.146c-0.041,0.055-0.422-0.211-0.548-0.145c-0.46,0.244-0.981,0.272-1.454,0.481
			c-0.3,0.133-0.416,0.33-0.501,0.636c-0.433-0.502-0.779-0.109-1.104,0.031c-0.332,0.143-0.828,0.186-0.701,0.789
			c-0.578-0.312-0.711-0.275-0.925,0.154c-0.289,0.058-0.544,0.076-0.775,0.163c-0.589,0.222-1.166,0.48-1.752,0.712
			c-1.039,0.411-2.147,0.649-3.101,1.265c0.021-0.293,0.128-0.474,0.453-0.577c0.686-0.215,1.355-0.498,2.029-0.758
			c0.19-0.074,0.371-0.171,0.6-0.278c-0.134-0.098-0.185-0.167-0.242-0.17c-0.174-0.013-0.441,0.147-0.379-0.244
			c0.006-0.033-0.092-0.097-0.154-0.12c-0.625-0.253-1.242-0.536-1.883-0.739c-0.427-0.136-0.888-0.178-1.338-0.22
			c-0.221-0.021-0.449,0.053-0.704,0.088c-0.242-0.463-0.826-0.295-1.262-0.459c-0.201-0.076-0.472,0.031-0.74,0.059
			c-0.031-0.059-0.064-0.24-0.154-0.275c-1.239-0.498-2.308-1.462-3.754-1.409c-0.127,0.194,0.458,0.399-0.04,0.589
			c-0.125-0.174-0.253-0.351-0.394-0.545c-0.078,0.012-0.166,0.023-0.251,0.042c-1.456,0.32-2.555,1.234-3.567,2.238
			c-1.508,1.5-2.97,3.049-4.423,4.606c-0.668,0.717-1.159,1.575-1.41,2.524C22.8,35.27,22.66,36.215,22.5,37.151
			c-0.233,1.358-0.02,2.708,0.102,4.061c0.05,0.563-0.014,1.149,0.118,1.689c0.261,1.064,0.379,2.139,0.431,3.226h-0.006
			c0.15,0.448,0.301,0.896,0.448,1.333h0.634c-0.197,0.183-0.317,0.294-0.458,0.423c0.24,0.598,0.395,1.234,0.729,1.757
			c0.495,0.777,1.107,1.483,1.688,2.205c0.382,0.475,0.919,0.719,1.485,0.914c0.64,0.219,1.275,0.455,1.914,0.679
			c1.264,0.447,2.546,0.845,3.9,0.833c0.971-0.009,1.941-0.106,2.908-0.202c1.011-0.1,2.017-0.246,3.025-0.372
			c0.246-0.031,0.495-0.056,0.738-0.097c1.429-0.236,2.856-0.471,4.283-0.714c0.333-0.057,0.661-0.144,0.993-0.214
			c0.354-0.073,0.707-0.19,1.064-0.207c1.946-0.082,3.877-0.121,5.798,0.404c1.236,0.339,2.543,0.422,3.818,0.604
			c0.38,0.053,0.768,0.05,1.152,0.08c0.63,0.05,1.259,0.126,1.889,0.153c0.4,0.016,0.841,0.059,1.195-0.083
			c0.691-0.274,1.35-0.645,1.992-1.025c0.382-0.226,0.786-0.477,0.85-0.998c0.009-0.061,0.061-0.156,0.107-0.164
			c0.45-0.09,0.482-0.506,0.62-0.816c0.302-0.681,0.597-1.369,0.834-2.074c0.572-1.695,1.164-3.385,1.648-5.105
			c0.498-1.766,0.979-3.554,0.488-5.42c-0.029-0.109-0.014-0.227-0.03-0.338c-0.108-0.83-0.155-1.674-0.451-2.465
			c-0.467-1.245-0.979-2.474-1.433-3.724c-0.404-1.114-1.21-1.913-2.212-2.369c-1.33-0.605-2.781-0.82-4.245-0.417
			c-1.107,0.306-2.211,0.633-3.315,0.953c-0.053,0.015-0.094,0.069-0.167,0.123c0.131,0.057,0.23,0.111,0.336,0.148
			c0.901,0.32,1.755,0.726,2.529,1.305c0.154,0.116,0.399,0.111,0.477,0.131c0.123,0.25,0.164,0.479,0.302,0.593
			c0.365,0.301,0.776,0.545,1.157,0.829c0.175,0.131,0.477,0.183,0.423,0.566c-0.743-0.376-1.411-0.785-1.945-1.369
			c-0.961-1.052-2.216-1.565-3.542-1.886c-0.667-0.161-1.387-0.128-2.083-0.146c-1.021-0.024-2.04,0.03-2.985,0.469
			c-0.5,0.233-0.962,0.548-1.459,0.788c-1.364,0.66-2.736,1.3-4.106,1.946c-0.164,0.078-0.335,0.146-0.503,0.218
			c-0.021-0.043-0.042-0.085-0.063-0.128c0.381-0.434,0.98-0.555,1.399-0.838c-1.294-0.352-2.594-0.658-3.862-1.064
			c-0.879-0.282-1.721-0.684-2.564-1.067c-0.657-0.298-1.28-0.676-1.938-0.972c-0.702-0.314-1.425-0.581-2.145-0.855
			c-1.084-0.414-2.129-0.512-3.167,0.211c-0.683,0.479-1.44,0.855-2.186,1.237c-0.835,0.427-1.574,0.969-2.276,1.588
			c-0.669,0.586-1.414,1.082-2.125,1.617c0.118-0.469,0.445-0.717,0.794-0.956c0.427-0.293,0.84-0.609,1.251-0.926
			c0.446-0.344,0.854-0.747,1.331-1.042c0.729-0.451,1.506-0.823,2.253-1.247c0.453-0.255,0.872-0.57,1.333-0.812
			c0.994-0.522,1.981-0.292,2.959,0.083c0.484,0.184,0.971,0.364,1.461,0.531c0.301,0.103,0.656,0.312,0.905,0.229
			c0.406-0.137,0.528,0.245,0.828,0.288c0.351,0.05,0.659,0.126,0.911-0.167c0.072,0.184,0.097,0.412,0.184,0.439
			c0.575,0.178,1.164,0.313,1.749,0.462c1.893,0.748,3.798,1.424,5.791,1.207c0.265-0.251,0.063-0.608,0.434-0.7
			c0.03,0.208,0.06,0.396,0.104,0.691c0.14-0.382,0.234-0.641,0.328-0.9c0.039,0.009,0.076,0.018,0.114,0.025
			c0.017,0.238,0.033,0.475,0.053,0.772c0.472-0.292,0.04-0.867,0.525-1.13c0.017,0.321,0.031,0.591,0.052,0.963
			c0.246-0.43,0.026-0.896,0.478-1.238v0.929c0.617-0.261,0.05-0.934,0.572-1.257c0.025,0.356,0.044,0.641,0.065,0.968
			c0.646-0.197,0.122-0.88,0.548-1.132c0.201,0.239-0.059,0.6,0.23,0.8c0.374-0.281-0.099-0.827,0.421-1.09
			c0.016,0.348,0.03,0.635,0.05,1.027c0.494-0.361,0.104-0.926,0.555-1.244c0.029,0.371,0.052,0.675,0.077,0.979
			c0.044,0.001,0.09,0.001,0.135,0.001c0.03-0.261,0.067-0.52,0.089-0.782c0.032-0.406,0.042-0.815,0.085-1.22
			c0.011-0.095,0.116-0.179,0.179-0.27c0.076,0.417,0.028,0.795,0.025,1.174c-0.003,0.375-0.13,0.777,0.242,1.265
			c0.112-0.943-0.075-1.768,0.172-2.537c0.053,0.001,0.106,0.003,0.159,0.007v2.282c0.417,0.084,0.437-0.122,0.443-0.378
			c0.01-0.565,0.036-1.131,0.068-1.696c0.006-0.111,0.067-0.219,0.102-0.328c0.115,0.433,0.138,0.848,0.109,1.261
			c-0.029,0.431-0.104,0.857,0.269,1.33c0.051-0.231,0.098-0.35,0.105-0.47c0.029-0.521,0.054-1.042,0.064-1.562
			C53.317,27.396,53.422,27.127,53.756,26.984 M44.952,75.152l-0.004-0.011c-0.099,0.041-0.198,0.082-0.26,0.107
			c0.029,0.593,0.596,0.667,0.869,0.985c-0.106,0.099-0.252,0.187-0.241,0.233c0.146,0.58,0.314,1.153,0.824,1.562
			c-0.048-0.145-0.095-0.291-0.161-0.492c0.605,0.09,0.237,0.724,0.604,0.902c-0.12-0.011-0.239-0.022-0.422-0.04
			c0.459,0.936,0.894,1.824,1.325,2.703c0.428,0.051,0.428,0.051,0.594,0.412c-0.136-0.022-0.271-0.047-0.471-0.081
			c0.215,0.588,0.406,1.093,0.584,1.603c0.186,0.532,0.361,1.066,0.54,1.6l-0.019-0.021c0.121,0.571,0.229,1.144,0.366,1.71
			c0.228,0.944,0.466,1.887,0.719,2.822c0.056,0.215,0.194,0.408,0.275,0.574c-0.012,0.233-0.068,0.466-0.031,0.683
			c0.132,0.781,0.292,1.556,0.446,2.333c0.051,0.256,0.048,0.507,0.39,0.637c0.249,0.094,0.174,0.362-0.162,0.543
			c0.249,0.816,0.602,1.598,1.034,2.339c0.309,0.529,0.811,0.863,1.412,0.985c0.459,0.092,0.934,0.113,1.35,0.16
			c0.078-0.179,0.103-0.364,0.181-0.391c0.407-0.14,0.66-0.444,0.915-0.756c0.163-0.2,0.352-0.241,0.647-0.087
			c-0.172,0.196-0.286,0.408-0.463,0.509c-0.206,0.118-0.392,0.182-0.279,0.521c0.645-0.203,1.166-0.5,1.53-1.071
			c0.986-1.544,1.441-3.254,1.667-5.051c0.219-1.753,0.472-3.5,0.738-5.247c0.158-1.029,0.449-2.044,0.533-3.077
			c0.195-2.417,0.314-4.839,0.445-7.26c0.06-1.132,0.08-2.266,0.117-3.399c0.049-1.519,0.177-3.04,0.127-4.554
			c-0.079-2.391,0.355-4.691,1.022-6.958c0.597-2.027,1.068-4.073,1.185-6.191c0.03-0.538,0.082-1.075,0.129-1.68
			c-0.528,0.273-1.014,0.506-1.481,0.771c-0.665,0.374-1.36,0.611-2.131,0.598c-0.18-0.003-0.36,0.012-0.54,0.027
			c-0.025,0.003-0.046,0.057-0.065,0.082c0.069,0.045,0.136,0.091,0.203,0.138c-0.926,0.084-1.818,0.427-2.733,0.257
			c-0.004-0.056-0.01-0.112-0.015-0.167c0.673-0.062,1.347-0.125,2.019-0.187c-0.002-0.035-0.003-0.07-0.006-0.106
			c-0.998-0.115-1.997-0.23-3.034-0.351c0.032,0.34-0.213,0.43-0.511,0.428c-0.363-0.002-0.724-0.022-1.086-0.047
			c-0.853-0.058-1.68-0.396-2.556-0.256c-0.035,0.005-0.085-0.089-0.166-0.178c0.192-0.085,0.356-0.161,0.489-0.221
			c-0.104-0.067-0.331-0.153-0.328-0.224c0.017-0.305-0.211-0.339-0.387-0.381c-0.328-0.078-0.664-0.121-1-0.15
			c-1.254-0.111-2.482,0.112-3.712,0.302c-0.646,0.102-1.294,0.18-1.943,0.267c0.003,0.033,0.005,0.065,0.008,0.098
			c0.465-0.023,0.931-0.046,1.396-0.069c0.003,0.047,0.007,0.096,0.013,0.143c-0.212,0.03-0.426,0.047-0.633,0.093
			c-0.276,0.061-0.548,0.144-0.821,0.218l0.02-0.017c-0.104-0.067-0.208-0.133-0.311-0.202c-0.083-0.058-0.172-0.179-0.242-0.167
			c-0.75,0.115-1.599-0.073-2.167,0.733c-0.26-0.581-0.622-0.277-0.947-0.196c-0.039,0.162-0.07,0.294-0.133,0.561
			c-0.144-0.245-0.213-0.367-0.26-0.446c-1.792,0.202-3.563,0.402-5.336,0.605c-0.136,0.016-0.266,0.056-0.4,0.078
			c-0.843,0.139-1.67,0.077-2.483-0.189c-0.492-0.161-0.989-0.306-1.453-0.449c-0.366,0.212-0.009,0.438-0.035,0.757
			c-0.146-0.142-0.261-0.2-0.269-0.271c-0.082-0.672-0.577-0.853-1.125-0.969c-0.97-0.208-1.959-0.355-2.791-0.966
			c-0.044-0.032-0.129-0.003-0.214-0.003c-0.035,0.452-0.074,0.902-0.101,1.351c-0.065,1.131-0.15,2.262-0.174,3.393
			c-0.017,0.769,0.082,1.538,0.082,2.309c-0.001,0.814-0.065,1.627-0.09,2.442c-0.055,1.813-0.073,3.628-0.171,5.438
			c-0.054,0.969-0.256,1.93-0.37,2.897c-0.235,1.989-0.214,3.983-0.131,5.981c0.053,1.256,0.275,2.471,0.768,3.635
			c0.784,1.854,1.597,3.7,2.312,5.582c0.463,1.225,0.794,2.501,1.15,3.764c0.417,1.484,0.728,3,1.211,4.46
			c0.468,1.422,1.316,2.51,2.99,2.685c0.944,0.1,1.872,0.065,2.735-0.271c0.984-0.381,1.766-1.06,2.277-2.032
			c0.305-0.577,0.492-1.162,0.474-1.812c-0.062-2.243-0.128-4.486-0.183-6.729c-0.059-2.398-0.113-4.799-0.147-7.198
			c-0.004-0.404,0.084-0.81,0.154-1.213c0.088-0.512,0.154-1.034,0.316-1.524c0.163-0.495,0.265-1.013,0.546-1.475
			c0.502-0.821,1.063-1.571,1.873-2.12c0.354-0.239,0.719-0.347,1.08-0.147c0.298,0.166,0.493,0.052,0.72-0.084l-0.015-0.015
			c0.127,0.175,0.257,0.35,0.38,0.516c-0.077,0.104-0.135,0.182-0.216,0.288c0.171,0.064,0.309,0.116,0.52,0.195
			c-0.41,0.255-0.123,0.511-0.089,0.779c0.048,0.372,0.41,0.366,0.605,0.542c-0.068,0.118-0.121,0.21-0.177,0.31
			C44.448,74.792,44.701,74.972,44.952,75.152 M38.511,29.741c0.481,0.578,1.164,0.793,1.845,1.035
			c1.471,0.521,2.953,0.969,4.499,1.233c0.706,0.12,1.25-0.022,1.803-0.471c-0.099-0.02-0.163-0.047-0.222-0.039
			c-1.432,0.228-2.78-0.171-4.122-0.569C41.042,30.554,39.779,30.139,38.511,29.741 M41.115,76.984
			c-0.023-0.046-0.044-0.093-0.068-0.14c-0.37,0.045-0.745,0.067-1.11,0.14c-0.354,0.071-0.806-0.029-1.042,0.512
			c0.696-0.081,1.319-0.141,1.936-0.236C40.938,77.244,41.022,77.08,41.115,76.984 M40.157,73.923
			c0.013,0.046,0.026,0.093,0.039,0.141c0.683-0.124,1.365-0.241,2.044-0.379c0.09-0.019,0.159-0.14,0.237-0.214
			C41.644,73.471,40.831,73.415,40.157,73.923 M41.232,76.295c-0.743,0.012-1.479,0.076-2.144,0.448
			C39.811,76.63,40.582,76.773,41.232,76.295 M41.673,75.145c-0.656-0.05-1.854,0.17-2.221,0.411
			C40.208,75.672,41.351,75.461,41.673,75.145 M43.019,72.95c-0.513-0.227-1.527-0.053-2.206,0.336
			C41.505,73.132,42.241,73.228,43.019,72.95 M41.862,74.734c-0.003-0.049-0.006-0.098-0.01-0.147
			c-0.819-0.019-1.812,0.18-2.26,0.521C40.438,74.969,41.151,74.852,41.862,74.734 M40.419,79.313
			c-0.01-0.073-0.019-0.146-0.029-0.219c-0.553,0.056-1.118,0.05-1.617,0.361c0.008,0.047,0.017,0.093,0.026,0.139
			C39.34,79.501,39.881,79.407,40.419,79.313 M40.634,78.211c-1.008-0.121-1.499-0.018-1.918,0.377
			C39.438,78.447,40.036,78.329,40.634,78.211 M41.285,75.878c-0.803-0.144-1.676,0.018-2.154,0.377
			C39.938,76.113,40.61,75.996,41.285,75.878 M40.078,74.397c0.009,0.045,0.02,0.091,0.029,0.137
			c0.664-0.168,1.366-0.149,2.014-0.385c-0.011-0.057-0.022-0.115-0.035-0.172C41.417,74.118,40.748,74.257,40.078,74.397
			 M39.943,83.169c-0.931,0.117-0.931,0.117-1.058,0.447C39.699,83.586,39.833,83.534,39.943,83.169 M54.942,28.041
			c-0.062,0.426-0.183,0.851,0.006,1.278C55.058,28.893,55.194,28.467,54.942,28.041 M40.734,77.757
			c0-0.054-0.002-0.108-0.004-0.161c-0.581-0.037-1.142,0.074-1.68,0.365C39.612,77.892,40.173,77.824,40.734,77.757 M40.273,79.848
			c-0.006-0.044-0.012-0.087-0.018-0.132c-0.685-0.034-1.151,0.078-1.435,0.446C39.305,80.058,39.789,79.952,40.273,79.848
			 M38.97,86.115c0.6,0.132,0.6,0.132,1.022-0.13C39.592,85.74,39.28,85.907,38.97,86.115 M39.883,87.484
			c-0.234,0.224-0.713-0.068-0.84,0.427C39.846,87.99,39.879,87.977,39.883,87.484 M38.958,79.036
			c0.525-0.101,1.05-0.202,1.575-0.302C39.954,78.563,39.433,78.698,38.958,79.036 M40.23,80.384
			c-0.012-0.045-0.025-0.092-0.038-0.138c-0.802,0-0.958,0.04-1.335,0.378C39.354,80.537,39.792,80.46,40.23,80.384 M42.542,72.574
			c-0.603-0.339-0.736-0.315-1.121,0.143C41.774,72.672,42.107,72.63,42.542,72.574 M39.964,82.293
			c-0.392-0.015-0.803-0.099-1.235,0.229C39.233,82.584,39.619,82.57,39.964,82.293 M38.968,81.34
			c0.005,0.059,0.009,0.115,0.013,0.172c0.352-0.001,0.71,0.035,1.009-0.297C39.65,81.257,39.309,81.298,38.968,81.34
			 M39.893,84.036c-0.004-0.059-0.008-0.118-0.012-0.176c-0.33-0.08-0.633-0.048-1.018,0.309
			C39.303,84.111,39.597,84.074,39.893,84.036 M38.949,85.108c0.63,0.058,0.63,0.058,0.901-0.199
			C39.307,84.844,39.307,84.844,38.949,85.108 M38.999,80.992c0.372-0.061,0.776,0.083,1.214-0.209
			C39.704,80.691,39.334,80.75,38.999,80.992 M39.833,81.864c-0.608-0.121-0.608-0.121-0.957,0.216
			C39.24,81.998,39.537,81.931,39.833,81.864 M38.913,84.483c0.016,0.067,0.031,0.132,0.046,0.198c0.3-0.073,0.6-0.147,0.9-0.22
			c-0.013-0.054-0.025-0.106-0.039-0.158C39.519,84.363,39.215,84.423,38.913,84.483 M39.975,86.557
			c-0.598-0.072-0.598-0.072-1.049,0.2C39.339,86.762,39.603,86.79,39.975,86.557 M39.929,87.161C39.196,87,39.196,87,39.042,87.378
			C39.37,87.298,39.65,87.23,39.929,87.161 M39.931,88.4c-0.541-0.204-0.541-0.204-0.877,0.111
			C39.39,88.468,39.661,88.435,39.931,88.4 M39.151,89.263c0.004,0.055,0.011,0.109,0.017,0.165c0.261-0.023,0.521-0.047,0.91-0.082
			C39.674,89.051,39.414,89.223,39.151,89.263 M39.046,90.358c0.46,0.148,0.46,0.148,0.708-0.152
			C39.491,90.187,39.263,90.14,39.046,90.358 M39.788,85.54c-0.284-0.128-0.577-0.167-0.817,0.125
			C39.244,85.624,39.516,85.582,39.788,85.54 M39.826,89.839c-0.016-0.065-0.03-0.131-0.047-0.197l-0.642,0.144
			c0.011,0.053,0.021,0.104,0.033,0.157C39.389,89.908,39.606,89.874,39.826,89.839 M55.495,29.251v-0.696
			C55.364,28.782,55.249,29.008,55.495,29.251 M39.874,88.821c-0.012-0.048-0.025-0.095-0.037-0.143
			c-0.222,0.043-0.444,0.087-0.666,0.131c0.009,0.045,0.018,0.091,0.026,0.136C39.423,88.905,39.648,88.862,39.874,88.821
			 M39.156,92.034c0.051-0.013,0.102-0.025,0.153-0.038c-0.024-0.093-0.047-0.186-0.071-0.277c-0.04,0.014-0.113,0.029-0.112,0.042
			C39.128,91.852,39.145,91.942,39.156,92.034"/>
		<path fill="#3C3C3C" stroke="#3C3C3C" stroke-width="0.1" stroke-miterlimit="10" d="M59.145,57.303
			c-1.146,0.087-2.292,0.173-3.437,0.262l-0.022-0.162c0.272-0.243,0.652-0.105,0.972-0.166c0.376-0.073,0.763-0.105,1.146-0.128
			c0.362-0.021,0.724-0.004,1.142-0.004v-0.592c0.313,0.375,0.55,0.659,0.781,0.937c-0.292,0.337-0.675,0.395-1.087,0.415
			c-0.747,0.037-1.49,0.104-2.235,0.149c-0.097,0.006-0.197-0.036-0.298-0.12c0.466-0.342,1.013-0.207,1.521-0.269
			c0.508-0.062,1.018-0.111,1.526-0.167C59.15,57.406,59.147,57.354,59.145,57.303"/>
		<path fill="#3C3C3C" stroke="#3C3C3C" stroke-width="0.1" stroke-miterlimit="10" d="M53.852,67.4
			c0.133-0.106,0.182-0.18,0.234-0.182c1.787-0.059,3.572-0.111,5.36-0.159c0.046,0,0.094,0.063,0.13,0.222
			c-1.807,0.092-3.614,0.185-5.424,0.271C54.08,67.555,54.004,67.479,53.852,67.4"/>
		<path fill="#3C3C3C" stroke="#3C3C3C" stroke-width="0.1" stroke-miterlimit="10" d="M60.39,62.175
			c-1.96,0.111-3.923,0.221-5.886,0.332c-0.004-0.056-0.011-0.112-0.014-0.168c0.946-0.34,1.956-0.133,2.929-0.236
			c0.986-0.106,1.979-0.204,2.966-0.099C60.388,62.061,60.389,62.118,60.39,62.175"/>
		<path fill="#3C3C3C" stroke="#3C3C3C" stroke-width="0.1" stroke-miterlimit="10" d="M53.816,66.609
			c0.074-0.142,0.102-0.246,0.135-0.248c1.913-0.097,3.828-0.184,5.738-0.273c0.008,0.054,0.015,0.073,0.015,0.094
			c0,0.022-0.002,0.064-0.006,0.064c-1.369,0.123-2.737,0.258-4.107,0.356C55.021,66.645,54.444,66.609,53.816,66.609"/>
		<path fill="#3C3C3C" stroke="#3C3C3C" stroke-width="0.1" stroke-miterlimit="10" d="M59.668,68.245
			c-0.726,0.389-4.909,0.545-5.433,0.315c0.043-0.051,0.081-0.136,0.123-0.137C56.127,68.358,57.898,68.303,59.668,68.245"/>
		<path fill="#3C3C3C" stroke="#3C3C3C" stroke-width="0.1" stroke-miterlimit="10" d="M59.884,65.492
			c-1.815,0.119-3.627,0.243-5.442,0.356c-0.119,0.008-0.241-0.056-0.354-0.084c0.009-0.078,0.008-0.1,0.015-0.118
			c0.008-0.021,0.02-0.055,0.033-0.056c0.135-0.017,0.268-0.034,0.402-0.041c1.78-0.095,3.559-0.187,5.339-0.281
			C59.879,65.344,59.882,65.418,59.884,65.492"/>
		<path fill="#3C3C3C" stroke="#3C3C3C" stroke-width="0.1" stroke-miterlimit="10" d="M60.167,63.329
			c-0.456,0.346-4.854,0.659-5.582,0.478c0.045-0.055,0.08-0.145,0.12-0.146C56.527,63.545,58.347,63.437,60.167,63.329"/>
		<path fill="#3C3C3C" stroke="#3C3C3C" stroke-width="0.1" stroke-miterlimit="10" d="M59.567,69.617
			c-1.762-0.058-3.515,0.209-5.282,0.026c0.539-0.371,1.146-0.099,1.716-0.169c0.583-0.072,1.175-0.085,1.764-0.101
			c0.599-0.015,1.199-0.003,1.799-0.003C59.565,69.452,59.566,69.535,59.567,69.617"/>
		<path fill="#3C3C3C" stroke="#3C3C3C" stroke-width="0.1" stroke-miterlimit="10" d="M54.067,71.343
			c0.152-0.059,0.301-0.141,0.459-0.17c1.208-0.218,4.193-0.32,4.683-0.087c-1.702,0.131-3.403,0.262-5.105,0.393
			C54.092,71.433,54.079,71.389,54.067,71.343"/>
		<path fill="#3C3C3C" stroke="#3C3C3C" stroke-width="0.1" stroke-miterlimit="10" d="M60.221,61.376
			c-1.815,0.178-3.628,0.4-5.619,0.485c0.193-0.17,0.256-0.277,0.33-0.283c1.6-0.14,3.199-0.273,4.801-0.4
			c0.16-0.013,0.324,0.02,0.485,0.032C60.218,61.265,60.219,61.321,60.221,61.376"/>
		<path fill="#3C3C3C" stroke="#3C3C3C" stroke-width="0.1" stroke-miterlimit="10" d="M59.836,64.467
			c-1.754,0.25-3.517,0.265-5.317,0.102c0.079-0.048,0.161-0.144,0.236-0.14c1.634,0.074,3.263-0.04,4.891-0.159
			c0.058-0.004,0.119,0.038,0.178,0.058C59.828,64.375,59.833,64.421,59.836,64.467"/>
		<path fill="#3C3C3C" stroke="#3C3C3C" stroke-width="0.1" stroke-miterlimit="10" d="M54.795,63.045
			c0.071-0.04,0.143-0.112,0.216-0.116c1.687-0.081,3.375-0.156,5.064-0.225c0.077-0.004,0.153,0.051,0.223,0.21
			c-1.826,0.101-3.651,0.201-5.479,0.303C54.811,63.16,54.803,63.103,54.795,63.045"/>
		<path fill="#3C3C3C" stroke="#3C3C3C" stroke-width="0.1" stroke-miterlimit="10" d="M54.857,61.106
			c0.158-0.054,0.314-0.145,0.477-0.159c1.585-0.124,3.17-0.235,4.762-0.289c-1.71,0.441-3.464,0.481-5.208,0.616
			C54.876,61.219,54.867,61.163,54.857,61.106"/>
		<path fill="#3C3C3C" stroke="#3C3C3C" stroke-width="0.1" stroke-miterlimit="10" d="M54.291,72.934
			c1.707-0.216,3.356-0.328,5.011-0.354c0.009,0.044,0.02,0.09,0.031,0.134c-0.1,0.042-0.197,0.112-0.299,0.118
			c-1.037,0.064-2.077,0.106-3.113,0.183c-0.402,0.031-0.802,0.115-1.195,0.209C54.508,73.276,54.389,73.237,54.291,72.934"/>
		<path fill="#3C3C3C" stroke="#3C3C3C" stroke-width="0.1" stroke-miterlimit="10" d="M59.254,71.655
			c-0.112,0.039-0.221,0.102-0.336,0.115c-0.872,0.103-1.749,0.183-2.62,0.297c-0.439,0.058-0.871,0.187-1.31,0.257
			c-0.168,0.026-0.348-0.024-0.526-0.14c0.78-0.306,1.594-0.343,2.4-0.415c0.79-0.068,1.571-0.235,2.364-0.267
			C59.235,71.553,59.245,71.604,59.254,71.655"/>
		<path fill="#3C3C3C" stroke="#3C3C3C" stroke-width="0.1" stroke-miterlimit="10" d="M59.007,70.153
			c-1.587,0.138-3.176,0.277-4.873,0.425c0.083-0.18,0.12-0.351,0.168-0.353c1.488-0.096,2.978-0.176,4.465-0.255
			c0.082-0.004,0.167,0.031,0.249,0.048C59.014,70.063,59.011,70.109,59.007,70.153"/>
		<path fill="#3C3C3C" stroke="#3C3C3C" stroke-width="0.1" stroke-miterlimit="10" d="M54.601,76.604
			c1.524-0.324,3.034-0.486,4.555-0.524c0.089-0.002,0.18,0.067,0.399,0.157c-1.68,0.163-3.211,0.313-4.745,0.456
			C54.745,76.7,54.671,76.635,54.601,76.604"/>
		<path fill="#3C3C3C" stroke="#3C3C3C" stroke-width="0.1" stroke-miterlimit="10" d="M54.584,74.75
			c1.486-0.151,2.973-0.301,4.486-0.455c0.014,0.323-0.18,0.318-0.35,0.33c-0.588,0.043-1.177,0.061-1.761,0.127
			c-0.671,0.076-1.336,0.201-2.007,0.283c-0.121,0.016-0.255-0.074-0.383-0.115C54.574,74.863,54.581,74.807,54.584,74.75"/>
		<path fill="#3C3C3C" stroke="#3C3C3C" stroke-width="0.1" stroke-miterlimit="10" d="M54.443,73.872
			c0.064-0.045,0.126-0.124,0.195-0.129c1.503-0.129,3.008-0.251,4.521-0.297c-0.476,0.297-1.016,0.189-1.522,0.266
			c-0.514,0.078-1.026,0.169-1.543,0.219c-0.532,0.053-1.071,0.063-1.606,0.093L54.443,73.872z"/>
		<path fill="#3C3C3C" stroke="#3C3C3C" stroke-width="0.1" stroke-miterlimit="10" d="M59.978,60.201
			c-1.019,0.315-4.355,0.556-4.796,0.401c0.851-0.261,1.65-0.215,2.425-0.323C58.393,60.168,59.184,60.201,59.978,60.201"/>
		<path fill="#3C3C3C" stroke="#3C3C3C" stroke-width="0.1" stroke-miterlimit="10" d="M59.743,59.023
			c-0.592,0.168-4.013,0.409-4.468,0.285c0.497-0.295,1.003-0.139,1.46-0.245c0.501-0.117,1.034-0.104,1.553-0.138
			c0.485-0.03,0.969-0.046,1.452-0.068C59.741,58.914,59.743,58.968,59.743,59.023"/>
		<path fill="#3C3C3C" stroke="#3C3C3C" stroke-width="0.1" stroke-miterlimit="10" d="M55.533,60.024
			c1.373-0.389,2.768-0.374,4.141-0.55c0.063-0.007,0.139,0.066,0.198,0.229c-1.376,0.145-2.753,0.292-4.13,0.431
			C55.676,60.14,55.603,60.063,55.533,60.024"/>
		<path fill="#3C3C3C" stroke="#3C3C3C" stroke-width="0.1" stroke-miterlimit="10" d="M54.726,75.548
			c1.516-0.259,3.043-0.148,4.646-0.451c-0.221,0.366-0.488,0.334-0.694,0.355c-0.764,0.078-1.531,0.116-2.295,0.183
			c-0.402,0.035-0.804,0.084-1.201,0.155C54.992,75.825,54.83,75.875,54.726,75.548"/>
		<path fill="#3C3C3C" stroke="#3C3C3C" stroke-width="0.1" stroke-miterlimit="10" d="M59.267,77.98
			c-0.573,0.064-1.149,0.114-1.721,0.196c-0.578,0.08-1.154,0.18-1.726,0.297c-0.202,0.041-0.333,0.014-0.515-0.24
			c1.353-0.276,2.635-0.411,3.927-0.479C59.245,77.83,59.255,77.906,59.267,77.98"/>
		<path fill="#3C3C3C" stroke="#3C3C3C" stroke-width="0.1" stroke-miterlimit="10" d="M55.448,58.83
			c0.162-0.199,0.198-0.285,0.242-0.29c1.211-0.118,2.424-0.23,3.638-0.331c0.115-0.01,0.236,0.053,0.344,0.191
			C58.316,58.538,56.96,58.676,55.448,58.83"/>
		<path fill="#3C3C3C" stroke="#3C3C3C" stroke-width="0.1" stroke-miterlimit="10" d="M55.423,77.542
			c0.751-0.339,3.433-0.561,3.796-0.375C57.956,77.341,56.693,77.524,55.423,77.542"/>
		<path fill="#3C3C3C" stroke="#3C3C3C" stroke-width="0.1" stroke-miterlimit="10" d="M55.452,79.004l3.698-0.438
			c0.013,0.049,0.028,0.097,0.042,0.144c-0.097,0.052-0.19,0.134-0.293,0.149c-1.05,0.149-2.102,0.291-3.155,0.423
			c-0.095,0.012-0.199-0.052-0.299-0.081C55.446,79.135,55.449,79.07,55.452,79.004"/>
		<path fill="#3C3C3C" stroke="#3C3C3C" stroke-width="0.1" stroke-miterlimit="10" d="M56.006,55.171
			c0.077-0.059,0.153-0.167,0.233-0.17c1.057-0.03,2.113-0.229,3.249-0.091c-0.106,0.115-0.145,0.197-0.188,0.2
			c-1.086,0.067-2.172,0.125-3.258,0.185C56.03,55.253,56.017,55.212,56.006,55.171"/>
		<path fill="#3C3C3C" stroke="#3C3C3C" stroke-width="0.1" stroke-miterlimit="10" d="M59.165,79.675
			c-1.108,0.115-2.217,0.232-3.328,0.336c-0.064,0.007-0.136-0.077-0.198-0.191c1.176-0.139,2.337-0.312,3.51-0.359
			C59.154,79.534,59.161,79.604,59.165,79.675"/>
		<path fill="#3C3C3C" stroke="#3C3C3C" stroke-width="0.1" stroke-miterlimit="10" d="M59.213,80.47
			c-1.027,0.119-2.057,0.241-3.086,0.353c-0.047,0.006-0.103-0.06-0.206-0.123c0.348-0.276,0.722-0.244,1.083-0.263
			c0.38-0.02,0.763-0.043,1.144-0.078c0.356-0.033,0.714-0.139,1.063-0.047C59.212,80.365,59.213,80.417,59.213,80.47"/>
		<path fill="#3C3C3C" stroke="#3C3C3C" stroke-width="0.1" stroke-miterlimit="10" d="M59.201,55.647
			c-1.012-0.009-2.017,0.098-3.027,0.112c0.332-0.287,1.501-0.42,2.729-0.375c0.108,0.004,0.212,0.085,0.319,0.131
			C59.216,55.56,59.208,55.604,59.201,55.647"/>
		<path fill="#3C3C3C" stroke="#3C3C3C" stroke-width="0.1" stroke-miterlimit="10" d="M55.998,81.354
			c1.061-0.329,2.159-0.267,3.247-0.309C58.935,81.25,56.545,81.479,55.998,81.354"/>
		<path fill="#3C3C3C" stroke="#3C3C3C" stroke-width="0.1" stroke-miterlimit="10" d="M56.165,83.095
			c0.808-0.12,1.615-0.238,2.421-0.358c-0.297,0.511-0.776,0.298-1.172,0.394c-0.4,0.097-0.817,0.139-1.226,0.205
			C56.18,83.256,56.172,83.175,56.165,83.095"/>
		<path fill="#3C3C3C" stroke="#3C3C3C" stroke-width="0.1" stroke-miterlimit="10" d="M59,81.999
			c-0.436,0.01-0.871,0.009-1.306,0.031c-0.441,0.022-0.882,0.068-1.331,0.104c0.213-0.327,0.213-0.329,1.274-0.333
			c0.457-0.002,0.915,0,1.371,0C59.005,81.867,59.003,81.933,59,81.999"/>
		<path fill="#3C3C3C" stroke="#3C3C3C" stroke-width="0.1" stroke-miterlimit="10" d="M55.933,84.598
			c0.05-0.083,0.087-0.224,0.156-0.239c0.692-0.165,1.395-0.145,2.101-0.068c-0.691,0.347-1.499-0.048-2.165,0.403
			C55.994,84.662,55.962,84.629,55.933,84.598"/>
		<path fill="#3C3C3C" stroke="#3C3C3C" stroke-width="0.1" stroke-miterlimit="10" d="M58.608,82.296
			c-0.774,0.222-1.557,0.324-2.356,0.254C57.025,82.303,57.819,82.313,58.608,82.296"/>
		<path fill="#3C3C3C" stroke="#3C3C3C" stroke-width="0.1" stroke-miterlimit="10" d="M55.71,87.268
			c0.032-0.068,0.042-0.172,0.096-0.205c0.263-0.157,1.391-0.193,2.046-0.056C57.121,87.349,56.387,86.989,55.71,87.268"/>
		<path fill="#3C3C3C" stroke="#3C3C3C" stroke-width="0.1" stroke-miterlimit="10" d="M27.046,57.601
			c-0.166-0.409-0.351-0.632-0.687-0.722c-0.124-0.033-0.192-0.267-0.315-0.451c0.203-0.063,0.341-0.144,0.479-0.14
			c0.079,0.005,0.187,0.131,0.216,0.225c0.014,0.044-0.168,0.12,0.041,0.174C27.23,56.804,27.186,57.119,27.046,57.601"/>
		<path fill="#3C3C3C" stroke="#3C3C3C" stroke-width="0.1" stroke-miterlimit="10" d="M55.813,85.786
			c0.535-0.249,1.71-0.314,2.2-0.157C57.232,85.866,56.513,85.773,55.813,85.786"/>
		<path fill="#3C3C3C" stroke="#3C3C3C" stroke-width="0.1" stroke-miterlimit="10" d="M57.628,87.614
			c-0.539,0.413-1.185,0.077-1.774,0.348c-0.08-0.223-0.034-0.342,0.174-0.345C56.56,87.608,57.093,87.614,57.628,87.614"/>
		<path fill="#3C3C3C" stroke="#3C3C3C" stroke-width="0.1" stroke-miterlimit="10" d="M58.281,83.717
			c-0.64,0.058-1.28,0.117-1.926,0.175c0.239-0.365,0.865-0.464,1.927-0.313C58.282,83.625,58.281,83.67,58.281,83.717"/>
		<path fill="#3C3C3C" stroke="#3C3C3C" stroke-width="0.1" stroke-miterlimit="10" d="M43.988,53.794
			c0.247,0.002,0.493,0.014,0.738,0.004c0.23-0.01,0.46-0.042,0.692-0.021c-0.286,0.267-1.172,0.388-2.002,0.312
			c0.231-0.122,0.411-0.216,0.591-0.312C44.008,53.777,43.988,53.794,43.988,53.794"/>
		<path fill="#3C3C3C" stroke="#3C3C3C" stroke-width="0.1" stroke-miterlimit="10" d="M55.683,86.454
			c0.335-0.292,1.136-0.388,2.155-0.256c-0.355,0.319-0.745,0.139-1.092,0.182C56.399,86.423,56.049,86.43,55.683,86.454"/>
		<path fill="#3C3C3C" stroke="#3C3C3C" stroke-width="0.1" stroke-miterlimit="10" d="M56.156,85.215
			c0.272-0.314,0.703-0.382,1.764-0.283C57.667,85.165,57.667,85.165,56.156,85.215"/>
		<path fill="#3C3C3C" stroke="#3C3C3C" stroke-width="0.1" stroke-miterlimit="10" d="M56.017,89.133
			c0.3-0.32,1.216-0.404,1.704-0.19C57.15,89.241,56.56,88.955,56.017,89.133"/>
		<path fill="#3C3C3C" stroke="#3C3C3C" stroke-width="0.1" stroke-miterlimit="10" d="M28.558,56.293
			c0.128,0.121,0.255,0.241,0.425,0.398c0.139-0.273,0.26-0.569,0.612-0.337c-0.212,0.447-0.212,0.447-0.834,0.726
			c-0.108-0.188-0.224-0.374-0.311-0.57c-0.018-0.04,0.081-0.131,0.125-0.198L28.558,56.293z"/>
		<path fill="#3C3C3C" stroke="#3C3C3C" stroke-width="0.1" stroke-miterlimit="10" d="M55.921,89.695
			c0.552-0.249,1.116-0.182,1.742-0.163C57.318,89.787,56.855,89.834,55.921,89.695"/>
		<path fill="#3C3C3C" stroke="#3C3C3C" stroke-width="0.1" stroke-miterlimit="10" d="M55.975,90.249
			c0.523-0.042,1.046-0.082,1.635-0.128c-0.335,0.359-0.685,0.408-1.628,0.286C55.979,90.352,55.977,90.301,55.975,90.249"/>
		<path fill="#3C3C3C" stroke="#3C3C3C" stroke-width="0.1" stroke-miterlimit="10" d="M56.1,88.614
			c0.337-0.331,0.882-0.429,1.711-0.292C57.176,88.633,56.612,88.476,56.1,88.614"/>
		<path fill="#3C3C3C" stroke="#3C3C3C" stroke-width="0.1" stroke-miterlimit="10" d="M26.528,58.381
			c0.318-0.18,0.435-0.154,0.524,0.162c0.085,0.3,0.089,0.598-0.079,0.881C26.822,59.066,26.676,58.727,26.528,58.381"/>
		<path fill="#3C3C3C" stroke="#3C3C3C" stroke-width="0.1" stroke-miterlimit="10" d="M55.857,90.941
			c0.629-0.054,1.138-0.097,1.647-0.139c0.005,0.051,0.01,0.104,0.016,0.157c-0.446,0.208-0.933,0.19-1.413,0.197
			C56.054,91.156,56,91.066,55.857,90.941"/>
		<path fill="#3C3C3C" stroke="#3C3C3C" stroke-width="0.1" stroke-miterlimit="10" d="M43.404,54.746
			c0.458-0.399,1.031-0.493,1.575-0.247L43.404,54.746z"/>
		<path fill="#3C3C3C" stroke="#3C3C3C" stroke-width="0.1" stroke-miterlimit="10" d="M44.635,55.128
			c-0.471,0.062-0.94,0.124-1.474,0.193c0.326-0.333,0.832-0.437,1.467-0.344C44.631,55.027,44.632,55.078,44.635,55.128"/>
		<path fill="#3C3C3C" stroke="#3C3C3C" stroke-width="0.1" stroke-miterlimit="10" d="M56.85,94.645
			c-0.422,0.059-0.844,0.119-1.358,0.191c0.372-0.384,0.739-0.458,1.349-0.337C56.842,94.548,56.846,94.596,56.85,94.645"/>
		<path fill="#3C3C3C" stroke="#3C3C3C" stroke-width="0.1" stroke-miterlimit="10" d="M56.054,91.686
			c0.357-0.308,0.764-0.25,1.169-0.196C56.869,91.834,56.449,91.66,56.054,91.686"/>
		<path fill="#3C3C3C" stroke="#3C3C3C" stroke-width="0.1" stroke-miterlimit="10" d="M56.017,92.005h1.219
			C56.828,92.296,56.42,92.323,56.017,92.005"/>
		<path fill="#3C3C3C" stroke="#3C3C3C" stroke-width="0.1" stroke-miterlimit="10" d="M26.892,54.245
			c-0.024,0.375-0.035,0.569-0.049,0.793c-0.311,0.04-0.475-0.15-0.702-0.409C26.386,54.504,26.582,54.403,26.892,54.245"/>
		<path fill="#3C3C3C" stroke="#3C3C3C" stroke-width="0.1" stroke-miterlimit="10" d="M55.626,95.127
			c0.3-0.039,0.601-0.076,0.903-0.115c-0.36,0.367-0.36,0.367-0.888,0.264L55.626,95.127z"/>
		<path fill="#3C3C3C" stroke="#3C3C3C" stroke-width="0.1" stroke-miterlimit="10" d="M44.318,71.177
			c0.205,0.195,0.383,0.367,0.564,0.538c-0.029,0.04-0.06,0.08-0.09,0.119c-0.316-0.16-0.632-0.319-1.012-0.511
			C43.99,71.265,44.133,71.227,44.318,71.177"/>
		<path fill="#3C3C3C" stroke="#3C3C3C" stroke-width="0.1" stroke-miterlimit="10" d="M55.944,93.857
			c0.382-0.043,0.765-0.088,1.147-0.132c-0.335,0.368-0.729,0.362-1.119,0.383C55.963,94.024,55.954,93.941,55.944,93.857"/>
		<path fill="#3C3C3C" stroke="#3C3C3C" stroke-width="0.1" stroke-miterlimit="10" d="M48.736,81.304
			c0.056,0.198,0.111,0.396,0.146,0.522c-0.131,0.179-0.233,0.32-0.336,0.46c-0.038-0.018-0.075-0.035-0.111-0.053l0.192-0.925
			C48.665,81.306,48.7,81.305,48.736,81.304"/>
		<path fill="#3C3C3C" stroke="#3C3C3C" stroke-width="0.1" stroke-miterlimit="10" d="M56.583,95.827
			c-0.289,0.032-0.578,0.062-0.865,0.093c0.231-0.414,0.534-0.367,0.845-0.272C56.57,95.708,56.577,95.768,56.583,95.827"/>
		<path fill="#3C3C3C" stroke="#3C3C3C" stroke-width="0.1" stroke-miterlimit="10" d="M56.148,92.864
			c0.36-0.241,0.732-0.248,1.116-0.074C56.909,92.98,56.525,92.906,56.148,92.864"/>
		<path fill="#3C3C3C" stroke="#3C3C3C" stroke-width="0.1" stroke-miterlimit="10" d="M45.672,76.822
			c0.112-0.376,0.185-0.616,0.292-0.977c0.094,0.184,0.183,0.276,0.18,0.365C46.133,76.55,46.124,76.549,45.672,76.822"/>
		<path fill="#3C3C3C" stroke="#3C3C3C" stroke-width="0.1" stroke-miterlimit="10" d="M30.396,55.605
			c0.121-0.339,0.211-0.589,0.3-0.841l0.107,0.022c0.035,0.222,0.07,0.442,0.114,0.705C30.75,55.528,30.584,55.565,30.396,55.605"/>
		<path fill="#3C3C3C" stroke="#3C3C3C" stroke-width="0.1" stroke-miterlimit="10" d="M43.163,71.982
			c-0.004-0.36-0.277-0.718-0.025-1.08c0.164,0.355,0.354,0.71,0.008,1.063C43.148,71.967,43.163,71.982,43.163,71.982"/>
		<path fill="#3C3C3C" stroke="#3C3C3C" stroke-width="0.1" stroke-miterlimit="10" d="M26.386,66.382
			c-0.105-0.178-0.19-0.323-0.299-0.509c0.199-0.096,0.364-0.176,0.583-0.283C26.562,65.888,26.483,66.105,26.386,66.382"/>
		<path fill="#3C3C3C" stroke="#3C3C3C" stroke-width="0.1" stroke-miterlimit="10" d="M45.448,75.776
			c-0.06-0.226-0.108-0.403-0.166-0.62c0.203-0.081,0.373-0.149,0.614-0.247C45.73,75.23,45.609,75.466,45.448,75.776"/>
		<path fill="#3C3C3C" stroke="#3C3C3C" stroke-width="0.1" stroke-miterlimit="10" d="M51.122,89.959
			c-0.004,0.424-0.339,0.288-0.563,0.348c-0.239,0.063-0.249-0.091-0.309-0.272C50.551,90.009,50.81,89.986,51.122,89.959"/>
		<path fill="#3C3C3C" stroke="#3C3C3C" stroke-width="0.1" stroke-miterlimit="10" d="M26.865,55.837
			c0.065-0.303,0.132-0.608,0.224-1.031C27.272,55.264,27.254,55.348,26.865,55.837"/>
		<path fill="#3C3C3C" stroke="#3C3C3C" stroke-width="0.1" stroke-miterlimit="10" d="M39.311,55.153
			c0.144-0.155,0.286-0.309,0.429-0.461c0.043,0.018,0.089,0.036,0.132,0.054c-0.037,0.171-0.024,0.388-0.126,0.5
			C39.637,55.368,39.421,55.38,39.311,55.153"/>
		<path fill="#3C3C3C" stroke="#3C3C3C" stroke-width="0.1" stroke-miterlimit="10" d="M56.063,93.424
			c0.358-0.27,0.358-0.27,0.935-0.183C56.698,93.583,56.366,93.403,56.063,93.424"/>
		<path fill="#3C3C3C" stroke="#3C3C3C" stroke-width="0.1" stroke-miterlimit="10" d="M28.692,57.354
			c0.21,0.13,0.669,0.033,0.514,0.603C29.026,57.704,28.691,57.716,28.692,57.354"/>
		<path fill="#3C3C3C" stroke="#3C3C3C" stroke-width="0.1" stroke-miterlimit="10" d="M29.374,55.082
			c-0.18-0.175-0.362-0.349-0.545-0.522c0.395-0.083,0.51,0.173,0.666,0.379C29.455,54.986,29.414,55.033,29.374,55.082"/>
		<path fill="#3C3C3C" stroke="#3C3C3C" stroke-width="0.1" stroke-miterlimit="10" d="M43.854,72.718
			c-0.051-0.458,0.04-0.662,0.421-0.761C44.264,72.275,44.097,72.426,43.854,72.718"/>
		<path fill="#3C3C3C" stroke="#3C3C3C" stroke-width="0.1" stroke-miterlimit="10" d="M51.6,94.561
			c0.104,0.231,0.207,0.461,0.338,0.752c-0.15-0.015-0.282-0.028-0.422-0.042v-0.694C51.544,94.572,51.572,94.567,51.6,94.561"/>
		<path fill="#3C3C3C" stroke="#3C3C3C" stroke-width="0.1" stroke-miterlimit="10" d="M47.808,78.824
			c-0.181-0.219-0.432-0.398-0.481-0.861C47.692,78.252,47.972,78.406,47.808,78.824"/>
		<path fill="#3C3C3C" stroke="#3C3C3C" stroke-width="0.1" stroke-miterlimit="10" d="M46.765,75.908
			c-0.384-0.082-0.384-0.082-0.611-0.392C46.468,75.546,46.672,75.637,46.765,75.908"/>
		<path fill="#3C3C3C" stroke="#3C3C3C" stroke-width="0.1" stroke-miterlimit="10" d="M47.829,80.826
			c0.072-0.257,0.228-0.42,0.638-0.458c-0.218,0.245-0.37,0.414-0.521,0.584C47.907,80.909,47.868,80.868,47.829,80.826"/>
		<path fill="#3C3C3C" stroke="#3C3C3C" stroke-width="0.1" stroke-miterlimit="10" d="M37.417,73.616
			c0.274-0.417,0.537-0.25,0.845-0.397C38.033,73.701,37.769,73.528,37.417,73.616"/>
		<path fill="#3C3C3C" stroke="#3C3C3C" stroke-width="0.1" stroke-miterlimit="10" d="M50.763,92.188
			c0.116-0.33,0.116-0.33,0.749-0.24c-0.202,0.07-0.287,0.1-0.375,0.127C51.033,92.109,50.928,92.138,50.763,92.188"/>
		<path fill="#3C3C3C" stroke="#3C3C3C" stroke-width="0.1" stroke-miterlimit="10" d="M46.066,74.33
			c-0.189-0.14-0.63,0.07-0.592-0.496c0.25,0.14,0.449,0.253,0.65,0.367C46.104,74.244,46.085,74.287,46.066,74.33"/>
		<path fill="#3C3C3C" stroke="#3C3C3C" stroke-width="0.1" stroke-miterlimit="10" d="M41.825,69.723
			c0.622-0.049,0.622-0.049,0.467,0.419C42.142,70.007,42.005,69.884,41.825,69.723"/>
		<path fill="#3C3C3C" stroke="#3C3C3C" stroke-width="0.1" stroke-miterlimit="10" d="M47.434,77.659
			c-0.193-0.054-0.386-0.107-0.614-0.171C47.121,77.261,47.121,77.261,47.434,77.659"/>
		<path fill="#3C3C3C" stroke="#3C3C3C" stroke-width="0.1" stroke-miterlimit="10" d="M46.744,78.935
			c0.197,0.012,0.394,0.024,0.649,0.04C47.028,79.254,47.028,79.254,46.744,78.935"/>
		<path fill="#3C3C3C" stroke="#3C3C3C" stroke-width="0.1" stroke-miterlimit="10" d="M44.547,72.223
			c0.496,0.091,0.56,0.294,0.43,0.674C44.833,72.671,44.722,72.497,44.547,72.223"/>
		<path fill="#3C3C3C" stroke="#3C3C3C" stroke-width="0.1" stroke-miterlimit="10" d="M40.101,55.17
			c0.1-0.165,0.198-0.328,0.341-0.565c0.192,0.426-0.059,0.521-0.225,0.661C40.179,55.234,40.139,55.202,40.101,55.17"/>
		<path fill="#3C3C3C" stroke="#3C3C3C" stroke-width="0.1" stroke-miterlimit="10" d="M48,53.263
			c-0.248,0.016-0.496,0.032-0.742,0.048c-0.006-0.047-0.012-0.092-0.019-0.138c0.249-0.038,0.497-0.077,0.743-0.116L48,53.263z"/>
		<path fill="#3C3C3C" stroke="#3C3C3C" stroke-width="0.1" stroke-miterlimit="10" d="M38.721,71.889
			c0.144,0.122,0.289,0.244,0.508,0.427C38.825,72.373,38.716,72.195,38.721,71.889"/>
		<path fill="#3C3C3C" stroke="#3C3C3C" stroke-width="0.1" stroke-miterlimit="10" d="M42.416,54.727
			c-0.134,0.095-0.266,0.189-0.481,0.343c0.019-0.398,0.198-0.443,0.368-0.498C42.341,54.623,42.377,54.674,42.416,54.727"/>
		<path fill="#3C3C3C" stroke="#3C3C3C" stroke-width="0.1" stroke-miterlimit="10" d="M50.128,88.402
			c0.154,0.12,0.281,0.216,0.426,0.328c-0.09,0.058-0.126,0.103-0.158,0.1C50.172,88.813,49.992,88.753,50.128,88.402"/>
		<path fill="#3C3C3C" stroke="#3C3C3C" stroke-width="0.1" stroke-miterlimit="10" d="M37.278,75.077l0.596-0.268
			c-0.081,0.325-0.299,0.383-0.532,0.416C37.322,75.175,37.299,75.126,37.278,75.077"/>
		<path fill="#3C3C3C" stroke="#3C3C3C" stroke-width="0.1" stroke-miterlimit="10" d="M37.986,73.997
			c0.058,0.473-0.1,0.602-0.438,0.599C37.666,74.435,37.783,74.275,37.986,73.997"/>
		<path fill="#3C3C3C" stroke="#3C3C3C" stroke-width="0.1" stroke-miterlimit="10" d="M38.178,54.97
			c0.081,0.475-0.118,0.498-0.376,0.465C37.896,55.317,37.992,55.198,38.178,54.97"/>
		<path fill="#3C3C3C" stroke="#3C3C3C" stroke-width="0.1" stroke-miterlimit="10" d="M60.737,60.149
			c-0.091,0.13-0.184,0.262-0.333,0.475c-0.147-0.384,0.032-0.476,0.174-0.588C60.63,60.075,60.685,60.112,60.737,60.149"/>
		<path fill="#3C3C3C" stroke="#3C3C3C" stroke-width="0.1" stroke-miterlimit="10" d="M27.155,64.47
			c-0.253-0.243-0.175-0.388,0.127-0.573C27.225,64.157,27.19,64.313,27.155,64.47"/>
		<path fill="#3C3C3C" stroke="#3C3C3C" stroke-width="0.1" stroke-miterlimit="10" d="M38.305,73.145
			c0.201-0.12,0.311-0.185,0.472-0.281C38.795,73.211,38.699,73.303,38.305,73.145"/>
		<path fill="#3C3C3C" stroke="#3C3C3C" stroke-width="0.1" stroke-miterlimit="10" d="M42.279,71.642
			c0.16-0.172,0.275-0.293,0.418-0.447C42.767,71.56,42.767,71.56,42.279,71.642"/>
		<path fill="#3C3C3C" stroke="#3C3C3C" stroke-width="0.1" stroke-miterlimit="10" d="M41.756,69.05
			c-0.056,0.09-0.087,0.14-0.119,0.189c-0.064-0.042-0.144-0.076-0.188-0.134c-0.016-0.021,0.052-0.151,0.071-0.148
			C41.593,68.966,41.662,69.008,41.756,69.05"/>
		<path fill="#3C3C3C" stroke="#3C3C3C" stroke-width="0.1" stroke-miterlimit="10" d="M59.54,55.478
			c0.102,0.049,0.203,0.098,0.306,0.146c-0.029,0.053-0.056,0.105-0.085,0.156l-0.281-0.202C59.5,55.544,59.519,55.512,59.54,55.478
			"/>
		<path fill="#3C3C3C" stroke="#3C3C3C" stroke-width="0.1" stroke-miterlimit="10" d="M61.248,55.657
			c0.095-0.104,0.19-0.208,0.326-0.357C61.686,55.625,61.521,55.69,61.248,55.657"/>
		<path fill="#3C3C3C" stroke="#3C3C3C" stroke-width="0.1" stroke-miterlimit="10" d="M28.576,56.313
			c-0.045-0.118-0.092-0.236-0.195-0.504c0.196,0.138,0.292,0.205,0.39,0.273c-0.072,0.069-0.143,0.139-0.214,0.211
			C28.558,56.294,28.576,56.313,28.576,56.313"/>
		<path fill="#3C3C3C" stroke="#3C3C3C" stroke-width="0.1" stroke-miterlimit="10" d="M49.377,85.711
			c-0.038-0.121-0.075-0.241-0.112-0.361c0.047-0.017,0.091-0.033,0.135-0.048c0.047,0.121,0.095,0.245,0.142,0.367
			C49.486,85.683,49.433,85.696,49.377,85.711"/>
		<path fill="#3C3C3C" stroke="#3C3C3C" stroke-width="0.1" stroke-miterlimit="10" d="M61.915,56.213
			c0.065,0.11,0.131,0.186,0.118,0.206c-0.055,0.082-0.136,0.145-0.206,0.214c-0.036-0.049-0.112-0.113-0.099-0.143
			C61.762,56.404,61.829,56.332,61.915,56.213"/>
		<path fill="#3C3C3C" stroke="#3C3C3C" stroke-width="0.1" stroke-miterlimit="10" d="M44.083,70.713
			c-0.074-0.116-0.148-0.235-0.272-0.433c0.165,0.027,0.253,0.018,0.268,0.047c0.053,0.103,0.082,0.218,0.12,0.327
			C44.16,70.675,44.122,70.693,44.083,70.713"/>
		<path fill="#3C3C3C" stroke="#3C3C3C" stroke-width="0.1" stroke-miterlimit="10" d="M27.433,54.246
			c-0.259-0.191-0.09-0.321,0.111-0.552c0.021,0.199,0.033,0.31,0.045,0.421C27.537,54.16,27.483,54.203,27.433,54.246"/>
		<path fill="#3C3C3C" stroke="#3C3C3C" stroke-width="0.1" stroke-miterlimit="10" d="M26.509,53.927
			c-0.092-0.092-0.181-0.183-0.273-0.276c0.038-0.036,0.078-0.073,0.117-0.109c0.084,0.098,0.168,0.196,0.252,0.294
			C26.573,53.867,26.541,53.896,26.509,53.927"/>
		<path fill="#3C3C3C" stroke="#3C3C3C" stroke-width="0.1" stroke-miterlimit="10" d="M43.637,70.136
			c0.01,0.182,0.018,0.327,0.027,0.526C43.405,70.362,43.405,70.362,43.637,70.136"/>
		<path fill="#3C3C3C" stroke="#3C3C3C" stroke-width="0.1" stroke-miterlimit="10" d="M43.081,69.767
			c0.064,0.102,0.127,0.204,0.198,0.317C43.002,70.088,43.002,70.088,43.081,69.767"/>
		<path fill="#3C3C3C" stroke="#3C3C3C" stroke-width="0.1" stroke-miterlimit="10" d="M48.734,84.635
			c0.071-0.07,0.142-0.142,0.212-0.212c0.026,0.054,0.053,0.109,0.08,0.164c-0.104,0.009-0.208,0.018-0.313,0.027
			C48.715,84.615,48.734,84.635,48.734,84.635"/>
		<path fill="#3C3C3C" stroke="#3C3C3C" stroke-width="0.1" stroke-miterlimit="10" d="M59.145,55.895
			c0.107,0.017,0.213,0.032,0.32,0.047c-0.011,0.042-0.023,0.121-0.029,0.121c-0.104-0.009-0.208-0.027-0.311-0.044
			C59.133,55.977,59.139,55.936,59.145,55.895"/>
		<path fill="#3C3C3C" stroke="#3C3C3C" stroke-width="0.1" stroke-miterlimit="10" d="M30.044,55.759
			c-0.052,0.129-0.101,0.259-0.212,0.546c-0.039-0.248-0.076-0.34-0.058-0.419c0.016-0.072,0.091-0.129,0.141-0.194
			C29.957,55.715,30,55.736,30.044,55.759"/>
		<path fill="#3C3C3C" stroke="#3C3C3C" stroke-width="0.1" stroke-miterlimit="10" d="M47.352,80.266
			c-0.059-0.12-0.112-0.187-0.119-0.256c-0.004-0.04,0.069-0.086,0.108-0.128c0.045,0.062,0.107,0.117,0.127,0.185
			C47.479,80.103,47.416,80.158,47.352,80.266"/>
		<path fill="#3C3C3C" stroke="#3C3C3C" stroke-width="0.1" stroke-miterlimit="10" d="M39.905,70.226
			c-0.05,0.074-0.083,0.125-0.117,0.176c-0.064-0.041-0.126-0.083-0.188-0.125c0.042-0.044,0.079-0.112,0.13-0.125
			C39.774,70.14,39.833,70.193,39.905,70.226"/>
		<path fill="#3C3C3C" stroke="#3C3C3C" stroke-width="0.1" stroke-miterlimit="10" d="M41.547,70.146
			c-0.124,0.029-0.209,0.069-0.293,0.064c-0.044-0.003-0.127-0.089-0.12-0.121c0.017-0.071,0.079-0.13,0.123-0.195
			C41.302,69.934,41.346,69.974,41.547,70.146"/>
		<path fill="#3C3C3C" stroke="#3C3C3C" stroke-width="0.1" stroke-miterlimit="10" d="M41.199,68.413
			c-0.085,0.021-0.17,0.06-0.254,0.06c-0.047,0-0.136-0.085-0.131-0.098c0.031-0.069,0.078-0.136,0.136-0.184
			c0.015-0.012,0.09,0.049,0.138,0.075C41.124,68.315,41.162,68.364,41.199,68.413"/>
		<path fill="#3C3C3C" stroke="#3C3C3C" stroke-width="0.1" stroke-miterlimit="10" d="M26.218,55.62
			c0.054,0.115,0.104,0.204,0.132,0.299c0.003,0.012-0.131,0.09-0.14,0.08c-0.065-0.069-0.123-0.149-0.163-0.236
			C26.042,55.749,26.135,55.688,26.218,55.62"/>
		<path fill="#3C3C3C" stroke="#3C3C3C" stroke-width="0.1" stroke-miterlimit="10" d="M29.13,55.589
			c-0.106-0.051-0.212-0.103-0.318-0.154c0.014-0.037,0.027-0.073,0.042-0.109c0.111,0.032,0.223,0.065,0.335,0.098
			C29.17,55.479,29.149,55.534,29.13,55.589"/>
		<path fill="#3C3C3C" stroke="#3C3C3C" stroke-width="0.1" stroke-miterlimit="10" d="M26.952,60.189
			c-0.076,0.047-0.136,0.106-0.201,0.114c-0.029,0.004-0.113-0.115-0.101-0.14c0.036-0.067,0.111-0.112,0.17-0.166
			C26.855,60.047,26.89,60.098,26.952,60.189"/>
		<path fill="#3C3C3C" stroke="#3C3C3C" stroke-width="0.1" stroke-miterlimit="10" d="M49.782,86.892
			c-0.021-0.096-0.045-0.193-0.058-0.29c-0.001-0.004,0.069-0.019,0.107-0.029l0.074,0.288
			C49.864,86.873,49.822,86.882,49.782,86.892"/>
		<path fill="#3C3C3C" stroke="#3C3C3C" stroke-width="0.1" stroke-miterlimit="10" d="M61.262,59.786
			c-0.054,0.093-0.108,0.186-0.162,0.279c-0.048-0.031-0.095-0.063-0.143-0.093c0.067-0.085,0.134-0.171,0.201-0.256
			C61.193,59.739,61.228,59.763,61.262,59.786"/>
		<path fill="#3C3C3C" stroke="#3C3C3C" stroke-width="0.1" stroke-miterlimit="10" d="M44.293,73.02
			c0.021,0.058,0.063,0.12,0.056,0.173c-0.01,0.072-0.06,0.137-0.093,0.206c-0.048-0.035-0.132-0.067-0.137-0.107
			c-0.008-0.066,0.034-0.139,0.057-0.209C44.216,73.062,44.255,73.04,44.293,73.02"/>
		<path fill="#3C3C3C" stroke="#3C3C3C" stroke-width="0.1" stroke-miterlimit="10" d="M36.975,93.559
			c-0.132,0.02-0.213,0.043-0.29,0.034c-0.021-0.002-0.062-0.126-0.041-0.148c0.036-0.04,0.116-0.07,0.168-0.059
			C36.86,93.396,36.894,93.468,36.975,93.559"/>
		<path fill="#3C3C3C" stroke="#3C3C3C" stroke-width="0.1" stroke-miterlimit="10" d="M61.017,59.364
			c-0.089,0.044-0.157,0.092-0.231,0.105c-0.019,0.003-0.096-0.126-0.079-0.154c0.037-0.063,0.118-0.099,0.181-0.146
			C60.922,59.221,60.957,59.274,61.017,59.364"/>
		<path fill="#3C3C3C" stroke="#3C3C3C" stroke-width="0.1" stroke-miterlimit="10" d="M36.54,92.349
			c-0.043-0.081-0.109-0.161-0.094-0.182c0.043-0.058,0.12-0.09,0.183-0.133c0.021,0.059,0.069,0.123,0.058,0.174
			C36.675,92.256,36.604,92.291,36.54,92.349"/>
		<path fill="#3C3C3C" stroke="#3C3C3C" stroke-width="0.1" stroke-miterlimit="10" d="M35.681,55.114
			c-0.125,0.069-0.195,0.107-0.266,0.145c-0.035-0.068-0.091-0.136-0.096-0.208c-0.003-0.037,0.098-0.12,0.132-0.111
			C35.519,54.96,35.573,55.029,35.681,55.114"/>
		<path fill="#3C3C3C" stroke="#3C3C3C" stroke-width="0.1" stroke-miterlimit="10" d="M27.433,54.246
			c0.051-0.043,0.104-0.086,0.156-0.131c0.122,0.084,0.358,0.166,0.169,0.337C27.552,54.635,27.541,54.323,27.433,54.246"/>
		<path fill="#3C3C3C" stroke="#3C3C3C" stroke-width="0.1" stroke-miterlimit="10" d="M44.954,75.153
			c-0.012-0.146-0.021-0.293-0.032-0.467c0.211,0.167,0.211,0.167,0.023,0.453C44.948,75.141,44.954,75.153,44.954,75.153"/>
		<path fill="#3C3C3C" stroke="#3C3C3C" stroke-width="0.1" stroke-miterlimit="10" d="M61.59,58.158
			c-0.102-0.024-0.204-0.049-0.306-0.074c0.012-0.039,0.029-0.113,0.033-0.111c0.101,0.015,0.201,0.04,0.301,0.062
			C61.609,58.076,61.599,58.117,61.59,58.158"/>
		<path fill="#3C3C3C" stroke="#3C3C3C" stroke-width="0.1" stroke-miterlimit="10" d="M60.025,58.241
			c-0.059-0.132-0.122-0.212-0.12-0.289c0.003-0.059,0.09-0.115,0.14-0.171c0.054,0.063,0.124,0.12,0.156,0.193
			C60.213,58,60.144,58.066,60.025,58.241"/>
		<path fill="#3C3C3C" stroke="#3C3C3C" stroke-width="0.1" stroke-miterlimit="10" d="M41.275,54.862
			c-0.095,0.049-0.16,0.108-0.189,0.093c-0.062-0.031-0.107-0.1-0.159-0.153c0.044-0.037,0.104-0.114,0.133-0.104
			C41.127,54.723,41.181,54.786,41.275,54.862"/>
		<path fill="#3C3C3C" stroke="#3C3C3C" stroke-width="0.1" stroke-miterlimit="10" d="M61.131,57.353
			c-0.064-0.101-0.131-0.168-0.118-0.194c0.032-0.066,0.102-0.114,0.157-0.168c0.035,0.044,0.105,0.097,0.098,0.131
			C61.253,57.19,61.195,57.25,61.131,57.353"/>
		<path fill="#3C3C3C" stroke="#3C3C3C" stroke-width="0.1" stroke-miterlimit="10" d="M38.494,73.396v0.537
			c-0.03,0.01-0.058,0.019-0.088,0.028c-0.038-0.074-0.104-0.146-0.106-0.222C38.298,73.673,38.369,73.607,38.494,73.396"/>
		<path fill="#3C3C3C" stroke="#3C3C3C" stroke-width="0.1" stroke-miterlimit="10" d="M59.899,56.934
			c0.115-0.05,0.198-0.098,0.288-0.116c0.021-0.005,0.063,0.086,0.098,0.135c-0.082,0.053-0.159,0.113-0.246,0.153
			C60.024,57.11,59.969,57.022,59.899,56.934"/>
		<path fill="#3C3C3C" stroke="#3C3C3C" stroke-width="0.1" stroke-miterlimit="10" d="M60.721,63.888
			c-0.084,0.045-0.153,0.08-0.22,0.116c-0.025-0.055-0.083-0.128-0.067-0.161c0.031-0.058,0.108-0.092,0.165-0.136
			C60.632,63.755,60.665,63.805,60.721,63.888"/>
		<path fill="#3C3C3C" stroke="#3C3C3C" stroke-width="0.1" stroke-miterlimit="10" d="M53.144,96.532
			c-0.051-0.064-0.125-0.119-0.119-0.161c0.007-0.05,0.081-0.094,0.125-0.139c0.043,0.043,0.121,0.089,0.121,0.131
			C53.269,96.414,53.199,96.462,53.144,96.532"/>
		<path fill="#3C3C3C" stroke="#3C3C3C" stroke-width="0.1" stroke-miterlimit="10" d="M61.407,35.06
			c0.277-0.098,0.479-0.168,0.75-0.263c0.036,1.813,0.09,3.591-0.224,5.36c-0.214-0.506-0.085-1.023-0.067-1.537
			c0.018-0.543,0.046-1.086,0.046-1.63c0-0.535-0.03-1.071-0.046-1.607c-0.063-0.004-0.122-0.008-0.184-0.011
			c-0.028,0.333-0.058,0.668-0.077,1.002c-0.021,0.361-0.028,0.724-0.048,1.085c-0.022,0.362-0.068,0.723-0.083,1.085
			c-0.013,0.361,0.001,0.723,0.002,1.086c0,0.36,0,0.72,0,1.114c-0.164,0.023-0.305,0.043-0.469,0.067v1.139
			c-0.039,0.009-0.076,0.018-0.114,0.026c-0.053-0.099-0.15-0.199-0.149-0.297c0.017-0.792,0.05-1.584,0.085-2.377
			c0.006-0.132,0.004-0.33,0.082-0.384c0.397-0.268,0.305-0.676,0.331-1.042C61.311,36.933,61.354,35.986,61.407,35.06"/>
		<path fill="#3C3C3C" stroke="#3C3C3C" stroke-width="0.1" stroke-miterlimit="10" d="M62.788,34.842
			c0.043,0.129,0.086,0.258,0.154,0.46c0.116-0.252,0.215-0.463,0.312-0.671c0.045,0.014,0.09,0.028,0.135,0.042
			c-0.211,2.183-0.166,4.385-0.587,6.553c-0.132-0.931,0.047-1.847,0.104-2.77c0.059-0.945,0.063-1.893,0.03-2.843
			c-0.275,0.763-0.169,1.567-0.223,2.354c-0.054,0.797-0.103,1.595-0.154,2.404c-0.13-0.03-0.21-0.039-0.208-0.048
			C62.366,38.493,62.417,36.667,62.788,34.842"/>
		<path fill="#3C3C3C" stroke="#3C3C3C" stroke-width="0.1" stroke-miterlimit="10" d="M23.609,36.089
			c0.174,3.088,0.339,6.023,0.504,8.959c-0.049,0.012-0.099,0.024-0.149,0.034c-0.062-0.222-0.147-0.441-0.181-0.667
			c-0.047-0.327,0.065-0.684-0.209-0.967c-0.033-0.035-0.028-0.131-0.006-0.188c0.23-0.619,0.064-1.252,0.048-1.873
			c-0.036-1.494-0.152-2.986-0.223-4.48C23.383,36.682,23.315,36.423,23.609,36.089"/>
		<path fill="#3C3C3C" stroke="#3C3C3C" stroke-width="0.1" stroke-miterlimit="10" d="M59.368,41.431
			c-0.157-0.055-0.234-0.069-0.234-0.084c-0.063-2.555-0.12-5.109-0.169-7.663c-0.002-0.07,0.079-0.142,0.186-0.204
			C59.172,36.118,59.582,38.737,59.368,41.431"/>
		<path fill="#3C3C3C" stroke="#3C3C3C" stroke-width="0.1" stroke-miterlimit="10" d="M63.182,41.529
			c-0.023-0.08-0.068-0.162-0.063-0.239c0.177-2.435,0.359-4.87,0.544-7.304c0.002-0.021,0.069-0.037,0.189-0.097
			c0.023,0.239,0.074,0.453,0.061,0.662c-0.172,2.329-0.353,4.657-0.532,6.987C63.315,41.534,63.248,41.531,63.182,41.529"/>
		<path fill="#3C3C3C" stroke="#3C3C3C" stroke-width="0.1" stroke-miterlimit="10" d="M59.709,33.834
			c0.055,0.146,0.157,0.293,0.157,0.441c0.015,1.813,0.016,3.627,0.016,5.441c0,0.26-0.016,0.521-0.025,0.782
			c-0.062,0.003-0.125,0.007-0.186,0.011c-0.022-0.151-0.063-0.302-0.063-0.452c-0.007-1.587-0.001-3.176-0.018-4.763
			c-0.005-0.467-0.064-0.935-0.098-1.403C59.564,33.873,59.637,33.853,59.709,33.834"/>
		<path fill="#3C3C3C" stroke="#3C3C3C" stroke-width="0.1" stroke-miterlimit="10" d="M24.1,35.047
			c0.148,0.597,0.309,6.637,0.111,6.964c-0.033-0.557-0.07-1.116-0.1-1.674c-0.031-0.586-0.058-1.173-0.085-1.76
			c-0.026-0.586-0.081-1.172-0.067-1.757C23.974,36.261,23.831,35.68,24.1,35.047"/>
		<path fill="#3C3C3C" stroke="#3C3C3C" stroke-width="0.1" stroke-miterlimit="10" d="M37.495,31.907
			c0.028-0.229,0.057-0.459,0.084-0.69c0.05,0,0.098-0.002,0.148-0.003c0.228,0.438,0.032,0.937,0.103,1.399
			c0.069,0.458,0.064,0.926,0.094,1.438c-0.229-0.06-0.397-0.102-0.634-0.164c-0.065-1.035-0.131-2.08-0.202-3.216
			C37.409,30.984,37.409,30.984,37.495,31.907"/>
		<path fill="#3C3C3C" stroke="#3C3C3C" stroke-width="0.1" stroke-miterlimit="10" d="M24.802,34.58
			c0.037,2.077,0.073,4.153,0.109,6.23c-0.048,0.012-0.098,0.022-0.146,0.036c-0.046-0.147-0.124-0.294-0.132-0.443
			c-0.026-0.543-0.035-1.089-0.041-1.633c-0.01-1.293-0.014-2.587-0.016-3.88c-0.001-0.105,0.039-0.21,0.06-0.317
			C24.692,34.575,24.747,34.577,24.802,34.58"/>
		<path fill="#3C3C3C" stroke="#3C3C3C" stroke-width="0.1" stroke-miterlimit="10" d="M23.118,37.036
			c0.131,1.859,0.262,3.695,0.386,5.532c0.003,0.049-0.063,0.102-0.159,0.247c-0.224-0.695-0.193-1.337-0.256-1.959
			c-0.065-0.628-0.115-1.262-0.108-1.894C22.987,38.325,22.815,37.665,23.118,37.036"/>
		<path fill="#3C3C3C" stroke="#3C3C3C" stroke-width="0.1" stroke-miterlimit="10" d="M57.503,45.108
			c0.043-0.448,0.084-0.896,0.127-1.346c0.22,0.417,0.171,1.783-0.011,2.516c-0.176-0.101-0.342-0.195-0.552-0.316
			c0.034-0.714,0.069-1.44,0.104-2.166C57.508,44.196,57.365,44.67,57.503,45.108"/>
		<path fill="#3C3C3C" stroke="#3C3C3C" stroke-width="0.1" stroke-miterlimit="10" d="M58.617,40.909
			c-0.099,1.611-0.192,3.122-0.294,4.775c-0.182-0.159-0.314-0.225-0.31-0.278c0.124-1.458,0.262-2.916,0.4-4.373
			C58.414,41.021,58.444,41.013,58.617,40.909"/>
		<path fill="#3C3C3C" stroke="#3C3C3C" stroke-width="0.1" stroke-miterlimit="10" d="M57.134,52.657
			c-0.043-0.108-0.114-0.215-0.123-0.325c-0.105-1.594-0.016-3.393,0.181-3.801C57.329,48.843,57.374,51.726,57.134,52.657"/>
		<path fill="#3C3C3C" stroke="#3C3C3C" stroke-width="0.1" stroke-miterlimit="10" d="M60.916,38.474
			c-0.298-0.541-0.317-3.458-0.117-3.942c0.022,0,0.048-0.004,0.068,0.001c0.02,0.007,0.048,0.025,0.048,0.038
			C60.916,35.872,60.916,37.172,60.916,38.474"/>
		<path fill="#3C3C3C" stroke="#3C3C3C" stroke-width="0.1" stroke-miterlimit="10" d="M60.24,41.109
			c-0.132-1.338-0.05-2.676-0.073-4.142c0.379,0.528,0.227,1.008,0.248,1.455c0.021,0.452,0.052,0.911-0.008,1.356
			C60.349,40.22,60.554,40.693,60.24,41.109"/>
		<path fill="#3C3C3C" stroke="#3C3C3C" stroke-width="0.1" stroke-miterlimit="10" d="M56.611,48.874
			c0,1.075,0.001,2.149-0.004,3.224c0,0.071-0.052,0.143-0.146,0.388c-0.082-0.188-0.128-0.247-0.128-0.306
			c0.004-1.018,0.014-2.036,0.032-3.053c0.001-0.096,0.072-0.19,0.111-0.286L56.611,48.874z"/>
		<path fill="#3C3C3C" stroke="#3C3C3C" stroke-width="0.1" stroke-miterlimit="10" d="M36.813,30.425
			c0.026,0.232,0.049,0.464,0.077,0.695c0.083,0.65,0.163,1.299,0.252,1.949c0.054,0.38,0.031,0.41-0.391,0.41
			c-0.059-1.014-0.117-2.025-0.175-3.034C36.656,30.438,36.733,30.431,36.813,30.425"/>
		<path fill="#3C3C3C" stroke="#3C3C3C" stroke-width="0.1" stroke-miterlimit="10" d="M58.425,36.509
			c-0.258-1.111-0.203-2.237-0.144-3.363c0.059-0.003,0.118-0.007,0.177-0.009c0.049,1.115,0.098,2.229,0.148,3.343L58.425,36.509z"
			/>
		<path fill="#3C3C3C" stroke="#3C3C3C" stroke-width="0.1" stroke-miterlimit="10" d="M55.089,49.464
			c0.16,0.039,0.23,0.036,0.239,0.06c0.038,0.098,0.084,0.205,0.084,0.309c0.007,0.911,0.005,1.822,0.005,2.782
			c-0.114-0.07-0.212-0.102-0.215-0.137C55.16,51.492,55.125,50.505,55.089,49.464"/>
		<path fill="#3C3C3C" stroke="#3C3C3C" stroke-width="0.1" stroke-miterlimit="10" d="M25.877,36.939
			c-0.181-0.937-0.214-1.874-0.082-2.819c0.261,0.444,0.147,0.934,0.16,1.4C25.968,35.992,26.212,36.472,25.877,36.939"/>
		<path fill="#3C3C3C" stroke="#3C3C3C" stroke-width="0.1" stroke-miterlimit="10" d="M55.832,52.134
			c-0.194-0.685-0.049-1.398-0.076-2.095c-0.013-0.358-0.02-0.743,0.269-1.06v3.148L55.832,52.134z"/>
		<path fill="#3C3C3C" stroke="#3C3C3C" stroke-width="0.1" stroke-miterlimit="10" d="M63.959,33.266
			c0.1-0.071,0.216-0.157,0.463-0.336c-0.086,1.048-0.021,1.951-0.125,2.847c-0.047,0.006-0.095,0.011-0.145,0.018
			c-0.042-0.107-0.121-0.216-0.12-0.323c0.008-0.519,0.052-1.039,0.055-1.558C64.087,33.724,64.016,33.535,63.959,33.266"/>
		<path fill="#3C3C3C" stroke="#3C3C3C" stroke-width="0.1" stroke-miterlimit="10" d="M57.863,35.48
			c-0.047-0.084-0.127-0.163-0.134-0.25c-0.081-0.814,0.001-2.147,0.181-2.503c0.175,0.522,0.044,0.988,0.07,1.437
			c0.022,0.432,0.003,0.866,0.003,1.299C57.945,35.467,57.904,35.474,57.863,35.48"/>
		<path fill="#3C3C3C" stroke="#3C3C3C" stroke-width="0.1" stroke-miterlimit="10" d="M54.851,51.671
			c-0.339-0.141-0.332-0.14-0.307-0.542c0.014-0.248,0.002-0.497,0.002-0.737c-0.224-0.182-0.437-0.359-0.756-0.621
			c0.431,0.001,0.747,0.357,1.061-0.104V51.671z"/>
		<path fill="#3C3C3C" stroke="#3C3C3C" stroke-width="0.1" stroke-miterlimit="10" d="M58.696,48.941
			c-0.329-0.399-0.348-1.611-0.034-2.346C58.851,47.47,58.584,48.208,58.696,48.941"/>
		<path fill="#3C3C3C" stroke="#3C3C3C" stroke-width="0.1" stroke-miterlimit="10" d="M25.479,39.177
			c-0.233-0.534-0.292-1.99-0.142-2.416C25.545,37.112,25.62,38.191,25.479,39.177"/>
		<path fill="#3C3C3C" stroke="#3C3C3C" stroke-width="0.1" stroke-miterlimit="10" d="M26.563,35.88
			c-0.221-0.41-0.289-1.727-0.112-2.254c0.053,0.044,0.137,0.08,0.14,0.121c0.046,0.667,0.084,1.337,0.114,2.007
			C26.706,35.792,26.613,35.836,26.563,35.88"/>
		<path fill="#3C3C3C" stroke="#3C3C3C" stroke-width="0.1" stroke-miterlimit="10" d="M38.435,33.436
			c-0.466-0.12-0.446-0.333-0.468-0.534c-0.062-0.579,0.003-1.254,0.22-1.645C38.415,32.014,38.081,32.708,38.435,33.436"/>
		<path fill="#3C3C3C" stroke="#3C3C3C" stroke-width="0.1" stroke-miterlimit="10" d="M26.983,35.061
			c-0.116-0.647-0.048-1.299-0.002-1.955c0.35,0.276,0.146,0.65,0.191,0.975c0.042,0.317,0.008,0.645,0.008,0.967
			C27.114,35.053,27.049,35.056,26.983,35.061"/>
		<path fill="#3C3C3C" stroke="#3C3C3C" stroke-width="0.1" stroke-miterlimit="10" d="M58.681,52.24v-1.01
			c0.186-0.11,0.367-0.217,0.604-0.357C59.299,51.41,59.131,51.798,58.681,52.24"/>
		<path fill="#3C3C3C" stroke="#3C3C3C" stroke-width="0.1" stroke-miterlimit="10" d="M36.142,31.808
			c-0.281-0.618-0.041-1.275-0.175-2.046c0.508,0.358,0.293,0.735,0.322,1.042c0.031,0.329,0.007,0.663,0.007,0.995
			C36.245,31.801,36.194,31.805,36.142,31.808"/>
		<path fill="#3C3C3C" stroke="#3C3C3C" stroke-width="0.1" stroke-miterlimit="10" d="M60.219,35.944
			c-0.116-0.557-0.079-1.121-0.001-1.683c0.006-0.044,0.131-0.07,0.259-0.135c-0.031,0.651-0.058,1.234-0.084,1.816
			C60.335,35.943,60.276,35.944,60.219,35.944"/>
		<path fill="#3C3C3C" stroke="#3C3C3C" stroke-width="0.1" stroke-miterlimit="10" d="M27.672,34.426
			c-0.186-0.591-0.071-1.204-0.063-1.813c0.351,0.236,0.179,0.59,0.218,0.89c0.04,0.299,0.037,0.605,0.053,0.908
			C27.811,34.417,27.742,34.421,27.672,34.426"/>
		<path fill="#3C3C3C" stroke="#3C3C3C" stroke-width="0.1" stroke-miterlimit="10" d="M38.601,31.382
			c0.151,0.251,0.653-0.097,0.68,0.477c-0.173-0.068-0.297-0.115-0.453-0.175v0.879C38.482,32.407,38.482,32.407,38.601,31.382"/>
		<path fill="#3C3C3C" stroke="#3C3C3C" stroke-width="0.1" stroke-miterlimit="10" d="M55.499,47.727
			c-0.135-0.612-0.081-1.217,0.208-1.82v1.811C55.638,47.719,55.568,47.723,55.499,47.727"/>
		<path fill="#3C3C3C" stroke="#3C3C3C" stroke-width="0.1" stroke-miterlimit="10" d="M56.836,32.115v1.983
			C56.546,33.588,56.54,32.711,56.836,32.115"/>
		<path fill="#3C3C3C" stroke="#3C3C3C" stroke-width="0.1" stroke-miterlimit="10" d="M25.386,35.939
			c-0.346-0.48-0.314-1.458,0-1.873V35.939z"/>
		<path fill="#3C3C3C" stroke="#3C3C3C" stroke-width="0.1" stroke-miterlimit="10" d="M56.152,46.902
			c-0.162-0.409-0.133-1.07,0.075-1.641C56.38,45.638,56.338,46.517,56.152,46.902"/>
		<path fill="#3C3C3C" stroke="#3C3C3C" stroke-width="0.1" stroke-miterlimit="10" d="M56.84,44.596
			c-0.037,0.599-0.076,1.198-0.113,1.797c-0.047,0-0.094,0-0.139,0c-0.209-0.599-0.037-1.199,0.056-1.798L56.84,44.596z"/>
		<path fill="#3C3C3C" stroke="#3C3C3C" stroke-width="0.1" stroke-miterlimit="10" d="M57.389,34.5
			c-0.34-0.591-0.182-1.18-0.187-1.766c0.333,0.229,0.175,0.544,0.182,0.826C57.394,33.874,57.389,34.187,57.389,34.5"/>
		<path fill="#3C3C3C" stroke="#3C3C3C" stroke-width="0.1" stroke-miterlimit="10" d="M29.485,32.62
			c-0.331-0.336-0.36-0.92,0-1.464V32.62z"/>
		<path fill="#3C3C3C" stroke="#3C3C3C" stroke-width="0.1" stroke-miterlimit="10" d="M53.123,49.208
			c-0.276-0.626-0.194-1.181,0.272-1.722C53.296,48.109,53.216,48.615,53.123,49.208"/>
		<path fill="#3C3C3C" stroke="#3C3C3C" stroke-width="0.1" stroke-miterlimit="10" d="M54.68,46.803
			c-0.051,0.51-0.103,1.02-0.157,1.553C54.192,47.953,54.206,47.635,54.68,46.803"/>
		<path fill="#3C3C3C" stroke="#3C3C3C" stroke-width="0.1" stroke-miterlimit="10" d="M53.961,48.644
			c-0.3-0.462-0.277-0.948,0.058-1.526C54.136,47.664,53.984,48.111,53.961,48.644"/>
		<path fill="#3C3C3C" stroke="#3C3C3C" stroke-width="0.1" stroke-miterlimit="10" d="M57.912,49.14
			c-0.131-0.522-0.12-0.827,0.062-1.643C58.159,47.973,58.132,48.642,57.912,49.14"/>
		<path fill="#3C3C3C" stroke="#3C3C3C" stroke-width="0.1" stroke-miterlimit="10" d="M30.212,30.643
			c-0.038,0.493-0.071,0.91-0.113,1.444C29.78,31.542,29.828,31.042,30.212,30.643"/>
		<path fill="#3C3C3C" stroke="#3C3C3C" stroke-width="0.1" stroke-miterlimit="10" d="M28.98,31.698
			c0.029,0.026,0.083,0.054,0.083,0.081c0.005,0.476,0.003,0.952,0.003,1.486C28.652,32.814,28.641,32.245,28.98,31.698"/>
		<path fill="#3C3C3C" stroke="#3C3C3C" stroke-width="0.1" stroke-miterlimit="10" d="M56.424,31.891v1.585
			C56.083,32.968,56.078,32.256,56.424,31.891"/>
		<path fill="#3C3C3C" stroke="#3C3C3C" stroke-width="0.1" stroke-miterlimit="10" d="M55.102,31.476v1.49
			C54.764,32.469,54.765,32.026,55.102,31.476"/>
		<path fill="#3C3C3C" stroke="#3C3C3C" stroke-width="0.1" stroke-miterlimit="10" d="M28.232,32.429
			c0.083,0.55,0.152,1,0.224,1.477C27.99,33.557,27.917,33.135,28.232,32.429"/>
		<path fill="#3C3C3C" stroke="#3C3C3C" stroke-width="0.1" stroke-miterlimit="10" d="M54.928,47.919
			c-0.146-0.484-0.07-0.956,0.036-1.425c0.047,0.002,0.094,0.003,0.139,0.006v1.432C55.045,47.927,54.987,47.923,54.928,47.919"/>
		<path fill="#3C3C3C" stroke="#3C3C3C" stroke-width="0.1" stroke-miterlimit="10" d="M52.729,48.034
			c-0.109,0.423-0.006,0.896-0.253,1.287c-0.055-0.011-0.112-0.024-0.168-0.035c0.077-0.434,0.154-0.865,0.231-1.297
			C52.602,48.003,52.665,48.018,52.729,48.034"/>
		<path fill="#3C3C3C" stroke="#3C3C3C" stroke-width="0.1" stroke-miterlimit="10" d="M59.308,45.842v1.363
			c-0.399-0.172-0.209-0.476-0.234-0.696c-0.024-0.221,0.025-0.451,0.041-0.676C59.18,45.837,59.244,45.839,59.308,45.842"/>
		<path fill="#3C3C3C" stroke="#3C3C3C" stroke-width="0.1" stroke-miterlimit="10" d="M35.646,31.049
			c-0.193-0.427-0.187-0.86-0.05-1.383C35.792,30.115,35.812,30.434,35.646,31.049"/>
		<path fill="#3C3C3C" stroke="#3C3C3C" stroke-width="0.1" stroke-miterlimit="10" d="M35.244,29.598
			c0.032,0.382,0.064,0.766,0.098,1.148c-0.053,0.005-0.106,0.009-0.159,0.014c-0.249-0.365-0.133-0.76-0.139-1.145
			C35.111,29.608,35.177,29.604,35.244,29.598"/>
		<path fill="#3C3C3C" stroke="#3C3C3C" stroke-width="0.1" stroke-miterlimit="10" d="M30.671,31.081
			c-0.185-0.503-0.185-0.503-0.001-0.89C30.896,30.513,30.832,30.797,30.671,31.081"/>
		<path fill="#3C3C3C" stroke="#3C3C3C" stroke-width="0.1" stroke-miterlimit="10" d="M57.889,51.282l-0.049,1.063
			c-0.052,0-0.103,0.001-0.156,0.001c-0.168-0.352-0.158-0.711,0.014-1.076C57.76,51.274,57.825,51.278,57.889,51.282"/>
		<path fill="#3C3C3C" stroke="#3C3C3C" stroke-width="0.1" stroke-miterlimit="10" d="M58.284,52.563
			c-0.322-0.498-0.199-0.83,0.02-1.157C58.431,51.748,58.365,52.083,58.284,52.563"/>
		<path fill="#3C3C3C" stroke="#3C3C3C" stroke-width="0.1" stroke-miterlimit="10" d="M55.607,33.133
			c-0.214-0.5-0.125-0.941-0.059-1.438C55.774,32.022,55.786,32.398,55.607,33.133"/>
		<path fill="#3C3C3C" stroke="#3C3C3C" stroke-width="0.1" stroke-miterlimit="10" d="M33.73,25.947
			c0.108-0.244,0.178-0.397,0.28-0.626c0.135,0.241,0.239,0.424,0.391,0.695C34.178,25.993,34.006,25.975,33.73,25.947"/>
		<path fill="#3C3C3C" stroke="#3C3C3C" stroke-width="0.1" stroke-miterlimit="10" d="M54.545,32.343
			c-0.18-0.328-0.197-0.655,0.006-0.975C54.741,31.689,54.633,32.017,54.545,32.343"/>
		<path fill="#3C3C3C" stroke="#3C3C3C" stroke-width="0.1" stroke-miterlimit="10" d="M54.099,31.301
			c0.067,0.28,0.093,0.555-0.211,0.793l0.04-0.793H54.099z"/>
		<path fill="#3C3C3C" stroke="#3C3C3C" stroke-width="0.1" stroke-miterlimit="10" d="M63.166,32.096
			c0.225,0.171,0.435,0.331,0.653,0.498C63.382,32.728,63.252,32.631,63.166,32.096"/>
		<path fill="#3C3C3C" stroke="#3C3C3C" stroke-width="0.1" stroke-miterlimit="10" d="M59.856,51.885
			c-0.002-0.203-0.487-0.104-0.263-0.487c0.187,0.131,0.361,0.252,0.675,0.472h-0.424L59.856,51.885z"/>
		<path fill="#3C3C3C" stroke="#3C3C3C" stroke-width="0.1" stroke-miterlimit="10" d="M59.708,32.147
			c0.169,0.023,0.34,0.046,0.563,0.076c-0.043,0.096-0.058,0.191-0.112,0.234C59.818,32.73,59.78,32.391,59.708,32.147"/>
		<path fill="#3C3C3C" stroke="#3C3C3C" stroke-width="0.1" stroke-miterlimit="10" d="M64.457,37.415
			c0.102-0.185,0.205-0.369,0.307-0.555c0.11,0.297,0.002,0.488-0.12,0.671C64.58,37.493,64.517,37.454,64.457,37.415"/>
		<path fill="#3C3C3C" stroke="#3C3C3C" stroke-width="0.1" stroke-miterlimit="10" d="M61.047,32.124
			c-0.073-0.191-0.113-0.376,0.208-0.52c-0.013,0.18-0.024,0.361-0.036,0.541C61.161,32.138,61.105,32.129,61.047,32.124"/>
		<path fill="#3C3C3C" stroke="#3C3C3C" stroke-width="0.1" stroke-miterlimit="10" d="M26.591,50.326
			c-0.191,0.133-0.38,0.128-0.574-0.135c0.189-0.012,0.377-0.023,0.566-0.034C26.586,50.213,26.589,50.269,26.591,50.326"/>
		<path fill="#3C3C3C" stroke="#3C3C3C" stroke-width="0.1" stroke-miterlimit="10" d="M45.308,33.102V33.8
			C45.03,33.512,45.028,33.512,45.308,33.102"/>
		<path fill="#3C3C3C" stroke="#3C3C3C" stroke-width="0.1" stroke-miterlimit="10" d="M36.291,26.748
			c-0.341-0.245-0.563-0.402-0.786-0.564C35.953,26.117,35.958,26.12,36.291,26.748"/>
		<path fill="#3C3C3C" stroke="#3C3C3C" stroke-width="0.1" stroke-miterlimit="10" d="M61.023,47.325
			c0.064,0.192,0.121,0.364,0.19,0.578C60.807,47.617,60.807,47.617,61.023,47.325"/>
		<path fill="#3C3C3C" stroke="#3C3C3C" stroke-width="0.1" stroke-miterlimit="10" d="M61.442,33.558
			c0.183,0.067,0.367,0.133,0.652,0.238c-0.378,0.193-0.521-0.03-0.718-0.065C61.397,33.673,61.419,33.615,61.442,33.558"/>
		<path fill="#3C3C3C" stroke="#3C3C3C" stroke-width="0.1" stroke-miterlimit="10" d="M59.845,51.869
			c0.072,0.176,0.145,0.353,0.274,0.666c-0.244-0.132-0.387-0.212-0.733-0.402c0.239-0.124,0.356-0.185,0.471-0.247
			C59.856,51.885,59.845,51.869,59.845,51.869"/>
		<path fill="#3C3C3C" stroke="#3C3C3C" stroke-width="0.1" stroke-miterlimit="10" d="M32.625,25.804
			c-0.281,0.155-0.442,0.245-0.628,0.349C32.095,25.77,32.112,25.759,32.625,25.804"/>
		<path fill="#3C3C3C" stroke="#3C3C3C" stroke-width="0.1" stroke-miterlimit="10" d="M62.164,33.414
			c0.173-0.152,0.35-0.276,0.629-0.092C62.573,33.564,62.366,33.469,62.164,33.414"/>
		<path fill="#3C3C3C" stroke="#3C3C3C" stroke-width="0.1" stroke-miterlimit="10" d="M65.185,41.31
			c-0.165,0.072-0.33,0.142-0.531,0.229c-0.039-0.5,0.273-0.337,0.468-0.369C65.143,41.218,65.164,41.264,65.185,41.31"/>
		<path fill="#3C3C3C" stroke="#3C3C3C" stroke-width="0.1" stroke-miterlimit="10" d="M25.233,43.897
			c0.046,0.199,0.093,0.399,0.143,0.599c-0.035,0.009-0.069,0.02-0.104,0.03c-0.068-0.202-0.137-0.403-0.205-0.604
			C25.123,43.914,25.177,43.906,25.233,43.897"/>
		<path fill="#3C3C3C" stroke="#3C3C3C" stroke-width="0.1" stroke-miterlimit="10" d="M61.356,51.625
			c-0.073-0.147-0.146-0.294-0.283-0.57c0.391,0.13,0.361,0.343,0.438,0.486C61.461,51.569,61.407,51.597,61.356,51.625"/>
		<path fill="#3C3C3C" stroke="#3C3C3C" stroke-width="0.1" stroke-miterlimit="10" d="M63.062,45.385
			c0.125,0.083,0.253,0.167,0.379,0.25c-0.03,0.05-0.06,0.098-0.087,0.147c-0.134-0.079-0.269-0.16-0.403-0.239
			C62.989,45.491,63.025,45.438,63.062,45.385"/>
		<path fill="#3C3C3C" stroke="#3C3C3C" stroke-width="0.1" stroke-miterlimit="10" d="M64.379,47.357
			c0.21,0.02,0.364,0.085,0.255,0.462c-0.15-0.138-0.257-0.238-0.365-0.337C64.306,47.44,64.342,47.399,64.379,47.357"/>
		<path fill="#3C3C3C" stroke="#3C3C3C" stroke-width="0.1" stroke-miterlimit="10" d="M60.627,32.524
			c0.129,0.108,0.261,0.218,0.393,0.328c-0.033,0.045-0.065,0.09-0.096,0.137l-0.439-0.287
			C60.532,32.642,60.579,32.583,60.627,32.524"/>
		<path fill="#3C3C3C" stroke="#3C3C3C" stroke-width="0.1" stroke-miterlimit="10" d="M61.958,32.432
			c-0.116,0.086-0.231,0.171-0.346,0.258c-0.031-0.035-0.064-0.069-0.095-0.104c0.102-0.101,0.202-0.204,0.304-0.305
			C61.868,32.332,61.912,32.381,61.958,32.432"/>
		<path fill="#3C3C3C" stroke="#3C3C3C" stroke-width="0.1" stroke-miterlimit="10" d="M45.74,32.95v0.323
			c-0.038,0.004-0.076,0.009-0.114,0.013c-0.015-0.109-0.029-0.217-0.043-0.327C45.636,32.956,45.688,32.953,45.74,32.95"/>
		<path fill="#3C3C3C" stroke="#3C3C3C" stroke-width="0.1" stroke-miterlimit="10" d="M53.432,50.003
			c-0.012,0.122-0.023,0.243-0.035,0.364c-0.037,0.005-0.076,0.01-0.113,0.016c-0.022-0.082-0.07-0.165-0.065-0.245
			c0.005-0.059,0.073-0.114,0.116-0.17C53.366,49.981,53.4,49.992,53.432,50.003"/>
		<path fill="#3C3C3C" stroke="#3C3C3C" stroke-width="0.1" stroke-miterlimit="10" d="M24.998,47.49
			c-0.046,0.146-0.092,0.291-0.137,0.436c-0.049-0.012-0.098-0.024-0.147-0.035c0.018-0.146,0.035-0.292,0.052-0.439
			C24.842,47.466,24.92,47.478,24.998,47.49"/>
		<path fill="#3C3C3C" stroke="#3C3C3C" stroke-width="0.1" stroke-miterlimit="10" d="M38.205,28.487
			c0.016,0.149,0.032,0.298,0.048,0.447c-0.038,0.004-0.077,0.01-0.115,0.015c-0.01-0.15-0.021-0.3-0.03-0.451
			C38.14,28.493,38.172,28.491,38.205,28.487"/>
		<path fill="#3C3C3C" stroke="#3C3C3C" stroke-width="0.1" stroke-miterlimit="10" d="M64.472,44.564
			c0.088,0.139,0.174,0.279,0.263,0.418C64.466,44.971,64.338,44.858,64.472,44.564"/>
		<path fill="#3C3C3C" stroke="#3C3C3C" stroke-width="0.1" stroke-miterlimit="10" d="M23.15,46.126
			c0.133-0.048,0.266-0.099,0.413-0.153c-0.044,0.299-0.044,0.299-0.417,0.153C23.144,46.126,23.15,46.126,23.15,46.126"/>
		<path fill="#3C3C3C" stroke="#3C3C3C" stroke-width="0.1" stroke-miterlimit="10" d="M62.156,51.107l0.211,0.338
			c-0.044,0.03-0.09,0.062-0.134,0.092l-0.246-0.315C62.044,51.184,62.1,51.146,62.156,51.107"/>
		<path fill="#3C3C3C" stroke="#3C3C3C" stroke-width="0.1" stroke-miterlimit="10" d="M62.367,45.197
			c-0.072,0.064-0.113,0.1-0.152,0.136c-0.045-0.058-0.106-0.111-0.129-0.177c-0.01-0.025,0.092-0.123,0.107-0.115
			C62.253,45.073,62.297,45.131,62.367,45.197"/>
		<path fill="#3C3C3C" stroke="#3C3C3C" stroke-width="0.1" stroke-miterlimit="10" d="M64.44,39.141
			c-0.063-0.12-0.144-0.203-0.128-0.258c0.017-0.055,0.125-0.099,0.201-0.114c0.025-0.004,0.11,0.103,0.098,0.139
			C64.592,38.979,64.522,39.036,64.44,39.141"/>
		<path fill="#3C3C3C" stroke="#3C3C3C" stroke-width="0.1" stroke-miterlimit="10" d="M64.907,44.637
			c-0.063-0.138-0.125-0.275-0.186-0.412c0.036-0.019,0.072-0.038,0.108-0.055c0.078,0.127,0.155,0.255,0.231,0.382L64.907,44.637z"
			/>
		<path fill="#3C3C3C" stroke="#3C3C3C" stroke-width="0.1" stroke-miterlimit="10" d="M40.007,28.959l0.158,0.404
			c-0.051,0.021-0.102,0.041-0.153,0.061c-0.051-0.136-0.103-0.271-0.155-0.407C39.907,28.998,39.957,28.978,40.007,28.959"/>
		<path fill="#3C3C3C" stroke="#3C3C3C" stroke-width="0.1" stroke-miterlimit="10" d="M27.865,34.798
			c0.055,0.069,0.12,0.115,0.118,0.158c-0.003,0.05-0.064,0.095-0.102,0.143c-0.045-0.04-0.119-0.076-0.125-0.121
			C27.75,34.933,27.813,34.879,27.865,34.798"/>
		<path fill="#3C3C3C" stroke="#3C3C3C" stroke-width="0.1" stroke-miterlimit="10" d="M64.605,36.477
			c-0.064-0.095-0.138-0.171-0.126-0.187c0.043-0.06,0.11-0.108,0.177-0.14c0.013-0.006,0.108,0.096,0.1,0.13
			C64.738,36.344,64.672,36.395,64.605,36.477"/>
		<path fill="#3C3C3C" stroke="#3C3C3C" stroke-width="0.1" stroke-miterlimit="10" d="M59.793,50.898
			c-0.075,0.054-0.127,0.11-0.193,0.132c-0.021,0.007-0.111-0.103-0.101-0.125c0.035-0.065,0.102-0.114,0.156-0.168
			C59.692,50.78,59.729,50.822,59.793,50.898"/>
		<path fill="#3C3C3C" stroke="#3C3C3C" stroke-width="0.1" stroke-miterlimit="10" d="M23.688,45.488
			c-0.036-0.102-0.072-0.204-0.108-0.306l0.12-0.04c0.034,0.103,0.068,0.204,0.102,0.306C23.764,45.461,23.727,45.474,23.688,45.488
			"/>
		<path fill="#3C3C3C" stroke="#3C3C3C" stroke-width="0.1" stroke-miterlimit="10" d="M25.149,45.546
			c0.049,0.135,0.098,0.271,0.147,0.406c-0.038,0.017-0.076,0.034-0.113,0.051c-0.068-0.123-0.134-0.245-0.201-0.369
			C25.038,45.606,25.094,45.576,25.149,45.546"/>
		<path fill="#3C3C3C" stroke="#3C3C3C" stroke-width="0.1" stroke-miterlimit="10" d="M59.979,46.318
			c-0.095,0.055-0.155,0.111-0.22,0.118c-0.036,0.003-0.082-0.077-0.122-0.121c0.055-0.05,0.102-0.117,0.167-0.145
			C59.828,46.16,59.89,46.241,59.979,46.318"/>
		<path fill="#3C3C3C" stroke="#3C3C3C" stroke-width="0.1" stroke-miterlimit="10" d="M59.841,46.664
			c0.078,0.205,0.124,0.274,0.122,0.343c0,0.037-0.084,0.071-0.129,0.106c-0.04-0.062-0.101-0.123-0.112-0.19
			C59.714,46.874,59.768,46.813,59.841,46.664"/>
		<path fill="#3C3C3C" stroke="#3C3C3C" stroke-width="0.1" stroke-miterlimit="10" d="M27.297,47.465
			c-0.015,0.096-0.029,0.194-0.042,0.292c-0.056-0.025-0.158-0.062-0.155-0.074c0.019-0.085,0.06-0.166,0.094-0.248
			C27.229,47.445,27.264,47.455,27.297,47.465"/>
		<path fill="#3C3C3C" stroke="#3C3C3C" stroke-width="0.1" stroke-miterlimit="10" d="M24.867,48.175
			c0.115,0.08,0.178,0.126,0.243,0.172c-0.051,0.055-0.099,0.148-0.155,0.153c-0.063,0.007-0.156-0.052-0.193-0.11
			C24.742,48.362,24.816,48.271,24.867,48.175"/>
		<path fill="#3C3C3C" stroke="#3C3C3C" stroke-width="0.1" stroke-miterlimit="10" d="M26.04,48.493
			c-0.073,0.087-0.125,0.174-0.145,0.168c-0.071-0.024-0.139-0.074-0.191-0.128c-0.01-0.009,0.062-0.134,0.092-0.134
			C25.868,48.402,25.937,48.449,26.04,48.493"/>
		<path fill="#3C3C3C" stroke="#3C3C3C" stroke-width="0.1" stroke-miterlimit="10" d="M29.534,48.987
			c0.093-0.061,0.16-0.104,0.225-0.147c0.03,0.049,0.09,0.107,0.081,0.149c-0.013,0.056-0.074,0.128-0.125,0.137
			C29.674,49.133,29.619,49.056,29.534,48.987"/>
		<path fill="#3C3C3C" stroke="#3C3C3C" stroke-width="0.1" stroke-miterlimit="10" d="M25.118,49.375
			c-0.045-0.098-0.09-0.193-0.136-0.291c0.036-0.02,0.071-0.039,0.105-0.058c0.063,0.086,0.124,0.173,0.186,0.259
			C25.223,49.317,25.169,49.346,25.118,49.375"/>
		<path fill="#3C3C3C" stroke="#3C3C3C" stroke-width="0.1" stroke-miterlimit="10" d="M26.051,49.268
			c-0.076,0.064-0.152,0.141-0.161,0.133c-0.062-0.048-0.12-0.109-0.151-0.179c-0.009-0.02,0.097-0.126,0.117-0.116
			C25.923,49.134,25.974,49.2,26.051,49.268"/>
		<path fill="#3C3C3C" stroke="#3C3C3C" stroke-width="0.1" stroke-miterlimit="10" d="M27.773,50.039
			c-0.06,0.066-0.111,0.152-0.138,0.146c-0.071-0.019-0.132-0.078-0.196-0.122c0.05-0.04,0.096-0.104,0.152-0.113
			C27.638,49.943,27.696,49.998,27.773,50.039"/>
		<path fill="#3C3C3C" stroke="#3C3C3C" stroke-width="0.1" stroke-miterlimit="10" d="M53.021,26.882
			c-0.199-0.058-0.401-0.117-0.665-0.193C52.759,26.51,52.759,26.51,53.021,26.882"/>
		<path fill="#3C3C3C" stroke="#3C3C3C" stroke-width="0.1" stroke-miterlimit="10" d="M48.327,27.278
			c-0.101,0.073-0.175,0.165-0.22,0.151c-0.072-0.02-0.162-0.104-0.171-0.172c-0.01-0.062,0.077-0.137,0.12-0.207
			C48.132,27.113,48.207,27.177,48.327,27.278"/>
		<path fill="#3C3C3C" stroke="#3C3C3C" stroke-width="0.1" stroke-miterlimit="10" d="M51.982,26.059
			c0.127,0.006,0.253,0.01,0.38,0.024c0.008,0,0.018,0.112,0.011,0.114c-0.121,0.032-0.247,0.056-0.371,0.081
			C51.997,26.205,51.99,26.132,51.982,26.059"/>
		<path fill="#3C3C3C" stroke="#3C3C3C" stroke-width="0.1" stroke-miterlimit="10" d="M50.454,26.35
			c-0.08,0.036-0.161,0.096-0.183,0.08c-0.052-0.043-0.081-0.12-0.119-0.183c0.058-0.018,0.121-0.059,0.17-0.046
			C50.37,26.216,50.399,26.286,50.454,26.35"/>
		<path fill="#3C3C3C" stroke="#3C3C3C" stroke-width="0.1" stroke-miterlimit="10" d="M49.84,26.603
			c0.072,0.064,0.117,0.104,0.161,0.142c-0.063,0.069-0.128,0.137-0.192,0.204c-0.038-0.044-0.114-0.097-0.106-0.129
			C49.723,26.749,49.783,26.687,49.84,26.603"/>
	</g>
</g>
<line fill="none" stroke="#3C3C3C" stroke-width="0.7281" stroke-linecap="round" stroke-linejoin="round" stroke-miterlimit="10" x1="0.559" y1="36.509" x2="11.238" y2="36.509"/>
<line fill="none" stroke="#3C3C3C" stroke-width="0.7281" stroke-linecap="round" stroke-linejoin="round" stroke-miterlimit="10" x1="77.012" y1="36.509" x2="87.691" y2="36.509"/>
<line fill="none" stroke="#3C3C3C" stroke-width="0.7281" stroke-linecap="round" stroke-linejoin="round" stroke-miterlimit="10" x1="44.125" y1="11.398" x2="44.125" y2="0.719"/>
<line fill="none" stroke="#3C3C3C" stroke-width="0.7281" stroke-linecap="round" stroke-linejoin="round" stroke-miterlimit="10" x1="26.013" y1="14.477" x2="21.48" y2="4.807"/>
<line fill="none" stroke="#3C3C3C" stroke-width="0.7281" stroke-linecap="round" stroke-linejoin="round" stroke-miterlimit="10" x1="15.581" y1="22.284" x2="6.895" y2="16.071"/>
<line fill="none" stroke="#3C3C3C" stroke-width="0.7281" stroke-linecap="round" stroke-linejoin="round" stroke-miterlimit="10" x1="63.195" y1="14.477" x2="67.727" y2="4.807"/>
<line fill="none" stroke="#3C3C3C" stroke-width="0.7281" stroke-linecap="round" stroke-linejoin="round" stroke-miterlimit="10" x1="73.627" y1="22.284" x2="82.313" y2="16.071"/>
</svg>
