<?xml version="1.0" standalone="no"?>
<!DOCTYPE svg PUBLIC "-//W3C//DTD SVG 20010904//EN"
 "http://www.w3.org/TR/2001/REC-SVG-20010904/DTD/svg10.dtd">
<svg version="1.0" xmlns="http://www.w3.org/2000/svg"
 width="700.000000pt" height="700.000000pt" viewBox="0 0 700.000000 700.000000"
 preserveAspectRatio="xMidYMid meet">
<metadata>
Created by potrace 1.11, written by Peter Selinger 2001-2013
</metadata>
<g transform="translate(0.000000,700.000000) scale(0.100000,-0.100000)"
fill="#000000" stroke="none">
<path d="M3229 4960 c-27 -16 -313 -117 -355 -125 -21 -4 -43 -10 -49 -15 -5
-4 -30 -13 -54 -20 -32 -8 -40 -14 -31 -20 24 -15 2 -24 -26 -11 -26 12 -74 0
-169 -43 -16 -8 -113 -50 -215 -94 -102 -44 -237 -105 -301 -136 -64 -31 -122
-56 -128 -56 -18 0 -143 -64 -201 -103 -30 -20 -58 -37 -62 -37 -4 0 -20 26
-34 58 -49 103 -195 223 -316 258 -29 9 -57 20 -63 24 -18 14 -114 30 -178 30
-35 0 -68 5 -74 11 -6 6 -48 11 -94 13 -46 1 -89 5 -95 8 -11 7 -92 17 -189
23 -33 2 -82 7 -110 11 -27 4 -84 8 -125 8 -69 1 -75 -1 -78 -20 -5 -33 44
-84 80 -84 l31 0 -25 -20 c-35 -27 -42 -69 -14 -80 17 -7 18 -9 3 -9 -20 -1
-38 -40 -40 -91 -1 -19 -6 -41 -10 -48 -5 -7 -2 -33 7 -60 19 -56 22 -117 8
-153 -8 -20 -7 -31 3 -46 13 -18 12 -23 -10 -43 -28 -26 -32 -40 -11 -40 8 0
13 -8 11 -17 -1 -10 -8 -17 -14 -15 -6 1 -11 -5 -11 -13 0 -30 39 -14 113 45
72 58 143 97 155 86 7 -7 14 -1 -88 -71 -120 -83 -184 -134 -192 -155 -6 -15
-2 -17 27 -13 30 4 33 2 28 -17 -10 -40 48 -50 86 -16 9 8 28 19 44 25 15 6
27 17 27 25 0 7 12 17 26 20 24 6 158 95 231 152 36 29 56 15 21 -15 -94 -78
-147 -119 -242 -187 -61 -43 -118 -86 -128 -96 -10 -10 -23 -18 -29 -18 -5 0
-8 -4 -4 -10 8 -13 54 6 85 35 14 12 56 42 93 64 38 23 78 50 90 61 51 47 160
122 154 107 -3 -9 -11 -34 -17 -56 -10 -40 -24 -53 -32 -30 -2 7 -41 -15 -88
-50 -47 -34 -129 -91 -182 -127 -54 -35 -99 -68 -102 -72 -9 -16 -10 -115 -1
-119 6 -1 74 53 153 121 78 69 151 127 161 131 11 3 29 20 40 38 14 21 21 26
21 15 0 -30 -33 -88 -54 -94 -19 -6 -110 -76 -176 -134 -14 -12 -44 -36 -68
-53 -23 -17 -42 -34 -42 -38 0 -4 -18 -18 -40 -30 -42 -24 -48 -44 -12 -44 32
-1 35 -11 7 -29 -27 -18 -32 -47 -15 -91 l10 -26 57 44 c81 61 113 81 113 69
0 -6 -22 -26 -48 -46 -69 -50 -128 -106 -113 -106 7 0 11 -6 8 -12 -2 -7 -15
-12 -29 -10 -15 2 -28 -3 -31 -12 -8 -21 23 -29 43 -11 9 8 23 15 31 15 16 0
60 35 160 124 87 78 89 79 89 61 0 -8 -4 -15 -8 -15 -5 0 -42 -33 -83 -73 -41
-40 -102 -93 -134 -119 -94 -72 -108 -90 -95 -122 15 -41 41 -29 188 90 18 15
36 24 39 20 9 -9 -103 -113 -187 -173 -72 -52 -83 -64 -71 -76 13 -13 165 93
238 164 57 56 63 60 63 37 0 -18 -12 -33 -44 -56 -25 -18 -62 -50 -83 -73 -21
-22 -51 -48 -68 -56 -16 -8 -40 -24 -51 -35 -20 -18 -21 -23 -10 -71 7 -31 17
-53 26 -54 15 -3 56 34 154 136 50 52 66 61 66 37 0 -13 -47 -59 -173 -169
-49 -43 -67 -66 -67 -84 0 -21 3 -23 23 -18 12 4 26 11 31 16 6 5 15 9 20 9 6
0 -15 -24 -47 -53 -56 -49 -59 -55 -64 -109 -5 -46 -3 -59 10 -63 12 -5 11
-11 -9 -32 -30 -33 -30 -37 6 -93 32 -50 49 -131 33 -152 -6 -7 -13 -38 -17
-69 -3 -31 -10 -77 -16 -102 -11 -53 -6 -74 21 -82 17 -6 17 -8 3 -29 -13 -21
-13 -25 1 -39 19 -19 20 -74 2 -117 -11 -25 -12 -43 -3 -84 16 -77 33 -98 81
-98 22 0 128 0 235 1 107 0 289 -1 403 -2 138 -2 220 1 242 9 48 16 132 80
160 122 29 42 31 52 10 52 -8 0 -15 5 -15 10 0 6 6 10 13 9 30 -4 44 3 59 29
18 30 48 141 48 176 0 33 7 36 52 20 21 -7 67 -15 101 -18 34 -2 71 -7 82 -12
51 -22 609 0 640 26 6 5 33 6 61 4 33 -4 72 1 110 12 32 9 77 18 99 19 73 3
301 67 297 83 -1 7 4 12 10 13 74 5 150 29 155 50 3 10 12 20 20 23 11 4 13 1
8 -14 -7 -23 -2 -23 105 7 92 26 261 63 287 63 13 0 33 -5 44 -10 10 -6 38
-15 61 -19 24 -5 89 -27 145 -49 302 -118 470 -126 639 -31 62 35 141 133 124
154 -9 11 -6 17 13 30 23 15 33 36 42 90 2 11 9 49 15 84 6 34 10 64 8 66 -2
2 -15 1 -29 -2 -18 -3 -26 -11 -24 -21 3 -23 -6 -37 -15 -22 -11 17 -30 3 -30
-21 0 -11 7 -33 15 -49 14 -27 13 -29 -4 -35 -10 -3 -41 -36 -69 -73 -65 -87
-95 -114 -115 -106 -25 9 -21 22 12 39 30 15 71 64 71 84 0 26 -30 6 -91 -61
-70 -77 -129 -120 -129 -96 0 8 13 22 29 31 36 21 121 119 121 138 0 8 -15 -3
-33 -23 -40 -45 -163 -120 -191 -116 -16 2 -8 10 35 35 30 17 63 43 72 57 26
40 1 32 -67 -19 -67 -51 -105 -61 -51 -14 36 32 47 69 20 69 -8 0 -15 -4 -15
-8 0 -15 -85 -70 -139 -91 -66 -26 -67 -12 -1 19 28 13 62 39 76 57 l25 33
-24 0 c-13 0 -36 -9 -50 -20 -44 -35 -54 -21 -12 16 l40 36 -45 -5 c-27 -2
-64 -16 -94 -36 -51 -32 -76 -39 -76 -21 0 6 13 13 30 16 16 4 32 14 35 23 2
9 18 22 34 29 30 13 67 59 57 70 -9 9 -70 -23 -110 -58 -44 -39 -67 -35 -32 5
30 34 30 34 75 75 39 35 35 53 -5 21 -15 -11 -30 -21 -35 -21 -4 0 -34 -19
-67 -41 -33 -23 -66 -39 -73 -37 -7 2 8 16 32 30 43 25 120 108 100 108 -21 0
-81 -34 -81 -46 0 -13 -112 -64 -138 -63 -13 0 -11 3 6 11 12 6 22 15 22 19 0
5 16 15 35 23 32 14 76 55 98 92 14 24 -19 16 -52 -12 -39 -33 -117 -74 -139
-74 -14 1 -13 4 7 20 21 18 21 20 5 20 -15 0 -16 2 -5 9 7 5 21 7 31 4 11 -3
40 19 88 68 63 63 83 89 68 89 -3 0 -26 -18 -52 -41 -58 -50 -111 -85 -144
-94 -24 -7 -24 -7 4 16 48 38 106 98 106 109 0 14 -27 13 -37 -2 -9 -14 -41
-33 -145 -85 -38 -19 -68 -39 -68 -44 0 -15 -18 -1 -31 23 -10 19 -9 20 10 15
31 -8 120 40 185 100 31 28 56 56 56 62 0 19 -29 12 -40 -9 -6 -11 -15 -18
-20 -15 -4 3 -22 -6 -38 -20 -39 -33 -49 -32 -44 5 5 36 3 36 -49 9 -56 -28
-70 -19 -20 14 22 15 41 34 41 42 0 21 -17 19 -53 -9 -18 -13 -47 -27 -64 -31
-43 -9 -50 -23 -16 -31 42 -10 46 -14 28 -34 -21 -23 -7 -32 38 -25 20 3 38 2
41 -3 7 -11 -22 -25 -35 -17 -5 3 -18 1 -29 -5 -17 -9 -25 -6 -47 18 -32 33
-88 109 -121 166 -20 34 -21 41 -8 48 13 7 9 21 -24 90 -42 86 -43 105 -11
161 17 30 93 72 116 63 8 -3 28 -33 45 -67 35 -68 44 -140 21 -161 -11 -11
-13 -7 -9 22 7 46 2 57 -32 75 l-29 15 15 -36 c22 -52 11 -52 -25 0 -18 25
-41 50 -51 56 -18 10 -19 8 -10 -15 6 -15 15 -36 22 -48 7 -12 13 -24 13 -27
0 -3 7 -15 14 -28 11 -21 10 -24 -6 -28 -29 -8 -22 -82 11 -111 18 -15 22 -24
14 -29 -16 -10 18 -22 65 -23 34 -1 45 6 88 50 49 51 57 71 39 99 -9 13 -13
12 -28 -8 -65 -89 -109 -121 -127 -92 -3 6 -1 10 5 10 6 0 26 16 46 36 39 41
70 94 54 94 -5 0 -10 5 -10 10 0 6 9 10 20 10 25 0 40 29 40 74 0 40 22 50 39
17 8 -14 5 -31 -13 -67 -16 -33 -21 -53 -14 -61 13 -16 38 -5 38 16 0 25 29
61 45 55 10 -4 12 -12 4 -31 -5 -13 -9 -31 -9 -39 0 -21 21 -17 27 6 3 11 7
20 9 20 3 0 168 -125 193 -147 3 -2 -1 -24 -7 -50 -16 -59 -7 -68 15 -14 l18
42 24 -25 c14 -14 32 -26 40 -26 9 0 34 -12 55 -26 28 -19 46 -25 67 -20 20 4
27 2 23 -7 -6 -17 193 -78 266 -81 31 -2 79 -8 106 -15 46 -11 60 -10 139 13
48 14 94 31 103 38 8 7 25 11 39 10 39 -6 87 16 128 58 22 22 34 40 27 40 -23
0 -12 30 13 36 28 7 105 88 105 110 0 25 -40 15 -71 -17 -17 -17 -46 -35 -65
-40 -23 -7 -45 -25 -67 -54 -32 -44 -64 -65 -95 -65 -12 1 -10 5 8 14 23 13
90 87 90 100 0 15 -24 2 -85 -44 -80 -60 -121 -82 -143 -78 -11 3 5 15 43 35
42 21 68 44 88 73 34 53 27 63 -16 23 -92 -85 -140 -98 -86 -22 24 34 13 38
-21 7 -13 -12 -33 -24 -44 -25 -10 -2 -34 -13 -53 -24 -47 -29 -50 -19 -7 20
61 56 25 56 -59 1 -78 -52 -114 -65 -84 -32 10 10 17 28 17 39 0 15 5 20 18
16 22 -5 70 43 56 57 -9 9 -63 -21 -125 -69 -40 -31 -59 -36 -59 -17 0 9 7 19
16 23 20 7 74 62 74 74 0 15 -30 10 -36 -6 -7 -17 -177 -135 -195 -135 -7 0
14 20 47 44 58 43 87 76 114 126 l13 24 -26 -17 c-40 -26 -61 -23 -53 8 5 20
3 25 -11 25 -40 0 -45 -16 -18 -48 23 -27 24 -33 11 -38 -9 -3 -16 -17 -16
-31 0 -14 -4 -22 -10 -18 -6 4 -36 -8 -67 -25 -76 -43 -138 -55 -77 -15 23 15
40 21 65 24 4 1 25 18 47 39 31 27 39 41 32 52 -8 12 -15 11 -49 -8 l-39 -22
5 21 c4 12 14 24 23 26 19 5 66 81 56 91 -4 3 -20 -2 -36 -12 -26 -14 -30 -15
-30 -2 0 8 5 18 11 22 6 3 9 17 6 30 -3 16 0 24 10 24 7 0 18 12 24 27 14 37
30 45 56 28 20 -13 22 -13 28 4 7 24 31 34 53 22 19 -9 243 -23 372 -21 90 0
194 24 287 66 42 18 52 27 47 41 -4 11 -3 14 3 6 11 -16 99 14 147 51 37 28
83 97 89 132 1 11 12 29 24 41 23 23 46 92 41 122 -2 10 3 25 10 34 8 9 15 31
15 49 2 29 -1 33 -23 33 -23 0 -26 -5 -32 -60 -10 -78 -24 -118 -49 -141 -21
-19 -21 -19 -18 5 5 31 -17 39 -24 9 -6 -21 -7 -21 -25 -5 -14 13 -21 14 -30
5 -9 -9 -8 -16 6 -32 16 -18 16 -19 0 -13 -13 4 -23 -2 -35 -21 -21 -34 -54
-72 -63 -72 -4 0 -5 14 -2 30 2 17 2 30 -2 30 -3 0 -26 -27 -50 -60 -31 -44
-45 -56 -49 -45 -11 28 -36 15 -71 -37 -30 -47 -32 -54 -18 -65 14 -11 11 -13
-16 -13 -27 0 -32 4 -32 24 0 17 -6 26 -20 28 -19 3 -19 5 -5 32 39 74 7 74
-63 -1 -44 -49 -50 -53 -37 -25 9 18 13 42 10 53 -7 20 -7 20 -22 -3 -24 -34
-65 -78 -76 -78 -4 0 5 24 22 53 39 68 28 96 -16 40 -17 -21 -28 -43 -26 -50
3 -9 -7 -11 -35 -4 -2 1 4 11 12 22 8 12 12 28 9 35 -7 18 -33 18 -33 0 0 -8
-16 -32 -36 -53 -48 -50 -58 -27 -15 33 23 32 30 48 23 60 -7 13 -16 7 -48
-34 -21 -28 -47 -53 -57 -55 -10 -3 -17 -2 -15 1 17 31 38 83 44 108 6 25 2
23 -30 -21 -20 -27 -34 -56 -31 -64 4 -9 -1 -12 -14 -8 -11 3 -25 -1 -32 -9
-6 -8 -16 -14 -21 -14 -5 0 7 21 27 46 39 53 41 57 21 73 -11 10 -22 3 -56
-33 -24 -25 -47 -43 -53 -39 -5 3 -3 9 6 14 18 10 51 63 62 97 5 18 -7 10 -51
-31 -37 -36 -55 -60 -51 -70 7 -17 -14 -29 -32 -18 -8 6 -6 15 9 34 11 14 27
43 36 64 l15 38 -48 -51 c-60 -63 -139 -124 -162 -124 -17 0 -89 56 -80 63 2
2 26 10 52 17 53 14 74 7 34 -11 -14 -6 -28 -18 -31 -25 -17 -44 71 -7 126 54
36 39 63 101 56 124 -3 7 -13 0 -24 -17 -32 -50 -92 -108 -103 -100 -8 4 -6
11 5 22 8 9 13 24 11 34 -3 11 2 19 13 22 21 5 64 92 54 109 -7 11 -43 -27
-44 -47 0 -5 -16 -28 -35 -50 -23 -27 -37 -37 -44 -30 -8 8 -3 22 13 45 24 36
42 85 42 109 -2 29 -25 21 -36 -13 -16 -50 -66 -114 -106 -138 -38 -22 -44
-44 -14 -53 11 -3 20 -13 20 -21 0 -23 -13 -17 -54 25 l-39 40 44 11 c37 9 51
20 77 58 39 58 64 141 52 172 -10 26 -8 50 4 50 14 0 28 -22 31 -52 2 -10 3
-24 5 -30 1 -7 9 4 19 24 19 41 31 39 51 -12 21 -55 33 -60 28 -12 -3 41 -3
42 27 42 16 0 42 -6 57 -14 15 -8 36 -12 47 -9 17 4 25 -3 40 -38 19 -43 26
-38 22 17 -2 27 23 48 49 41 12 -3 24 1 29 11 7 13 12 14 24 4 29 -24 190 34
256 92 13 12 21 16 17 9 -10 -17 3 -22 91 -31 44 -5 95 -17 114 -26 44 -21 67
-25 99 -16 23 5 20 8 -30 32 -30 14 -76 33 -101 42 -26 9 -55 26 -64 36 -22
24 -43 25 -73 4 -22 -15 -23 -15 -16 13 4 15 13 35 20 44 9 10 14 39 14 80 -1
62 -1 63 -14 33 -15 -33 -84 -69 -115 -59 -9 3 -59 7 -111 9 -144 7 -216 51
-177 109 42 63 83 89 137 88 69 -2 201 -39 247 -69 29 -18 61 -9 43 13 -10 12
-9 15 8 15 11 0 27 2 34 5 8 3 30 -5 49 -19 51 -37 137 -84 143 -79 11 11 -9
34 -49 58 -61 35 -66 47 -19 44 22 -1 47 -7 57 -11 20 -10 117 17 117 33 0 5
17 8 38 6 37 -4 82 12 114 40 15 14 21 13 50 -5 29 -18 45 -20 148 -16 63 3
156 6 205 8 50 1 111 8 136 14 25 6 89 12 143 13 53 2 107 8 119 14 18 9 27 8
47 -7 48 -34 235 -19 380 32 30 10 75 24 99 30 29 8 59 26 87 53 23 23 53 50
67 59 20 14 28 32 37 87 15 81 9 115 -25 137 -37 24 -42 9 -15 -41 23 -43 24
-45 7 -80 -9 -20 -17 -42 -17 -50 0 -8 -9 -19 -20 -25 -20 -11 -30 3 -10 15 6
3 10 10 10 16 0 5 -4 9 -10 9 -5 0 -10 -6 -10 -14 0 -12 -40 -46 -56 -46 -3 0
-3 12 0 26 6 22 4 25 -15 22 -13 -2 -29 -17 -40 -37 -19 -37 -38 -53 -51 -45
-4 3 1 15 12 26 21 23 25 45 11 66 -9 15 -19 -2 -27 -48 -3 -14 -21 -41 -39
-60 l-35 -35 0 27 c0 36 -17 44 -42 21 -21 -18 -21 -18 -16 3 8 31 -10 58 -28
43 -8 -6 -14 -17 -14 -24 0 -7 -9 -23 -20 -36 l-19 -24 -1 33 c0 26 -4 33 -17
30 -10 -2 -18 -10 -18 -18 0 -8 -4 -18 -10 -22 -6 -5 -5 -11 4 -17 9 -6 10
-10 2 -16 -22 -13 -42 3 -36 28 4 15 1 28 -9 36 -13 11 -17 9 -26 -13 -12 -32
-25 -33 -41 -4 -11 21 -12 21 -40 -13 -33 -41 -45 -35 -24 13 12 30 12 38 1
47 -11 9 -18 6 -34 -14 -11 -14 -23 -25 -27 -25 -4 0 -5 32 -3 70 4 49 1 75
-8 88 -19 25 -17 32 11 32 29 0 33 15 7 29 -35 19 -54 -11 -58 -91 -6 -102 -8
-112 -28 -143 -12 -18 -23 -25 -34 -20 -9 4 -24 8 -32 9 -8 2 -16 13 -18 24
-5 30 -22 28 -48 -5 -18 -23 -25 -26 -35 -15 -21 19 -36 14 -58 -20 -19 -30
-21 -31 -21 -10 0 12 7 34 16 47 16 24 16 25 -10 25 -17 0 -24 -4 -20 -13 5
-14 -65 -102 -74 -93 -2 3 1 12 8 21 18 21 21 65 5 65 -15 0 -37 -24 -30 -32
3 -3 -1 -11 -10 -18 -12 -10 -16 -8 -24 13 -7 19 -16 25 -30 22 -12 -2 -25 3
-31 13 -9 15 -13 14 -34 -12 l-25 -30 -28 31 c-23 24 -33 29 -46 21 -9 -5 -17
-8 -17 -6 -13 98 -15 108 -29 108 -5 0 -13 -9 -16 -21 -4 -11 -16 -41 -27 -66
-18 -41 -21 -43 -33 -27 -10 15 -16 16 -28 6 -8 -7 -18 -24 -21 -37 -4 -14
-11 -25 -16 -25 -14 0 -13 27 1 36 6 3 9 18 6 32 -3 14 0 36 6 49 7 16 7 27 0
34 -7 7 -20 -15 -43 -70 -17 -44 -38 -85 -46 -92 -17 -14 -17 -13 -5 29 11 36
2 42 -17 12 -21 -34 -34 -24 -27 19 10 59 -11 61 -38 4 l-22 -48 -5 39 c-8 61
-27 56 -47 -13 -11 -36 -24 -61 -32 -61 -8 0 -11 6 -6 17 3 10 9 35 12 55 7
52 -18 51 -42 -2 -10 -22 -22 -40 -27 -40 -10 0 -10 2 1 58 13 65 -6 61 -39
-10 l-29 -63 -1 50 c0 44 -2 48 -15 34 -8 -8 -23 -38 -32 -66 -14 -41 -21 -50
-32 -43 -12 7 -11 17 7 65 27 70 28 98 5 93 -12 -2 -20 -17 -25 -47 -9 -51
-32 -91 -53 -91 -21 0 -19 13 5 28 28 17 28 71 0 69 -12 -1 -23 -12 -29 -29
-16 -44 -24 -33 -18 22 8 64 -7 65 -36 3 l-22 -48 -3 83 c-2 71 -5 82 -17 72
-9 -8 -12 -22 -8 -40 7 -35 -33 -108 -50 -91 -7 7 -7 18 1 36 12 25 7 55 -9
55 -4 0 -17 -28 -28 -62 -11 -35 -21 -58 -22 -53 -5 31 -4 102 3 116 4 9 2 24
-6 35 -13 17 -15 15 -26 -26 -21 -76 -22 -77 -32 -47 -11 31 -24 34 -49 11
-17 -15 -19 -14 -25 10 -3 14 -4 32 -1 40 3 8 -1 20 -9 26 -8 7 -14 11 -15 9
0 -2 -2 -14 -3 -27 -5 -41 -23 -47 -40 -13 -21 39 -31 39 -45 1 -16 -47 -33
-37 -27 15 6 49 -6 65 -30 40 -11 -11 -20 -13 -27 -6 -12 12 -37 3 -37 -15 0
-17 -17 -18 -23 -1 -2 6 -2 26 0 42 3 20 0 35 -10 44 -9 7 -13 19 -10 27 3 8
2 14 -1 14 -4 0 -12 -13 -17 -30 -13 -36 -25 -31 -34 12 l-8 32 -21 -27 c-26
-32 -36 -34 -36 -8 0 23 -28 54 -41 46 -5 -4 -9 -17 -9 -31 0 -38 -17 -19 -25
27 -5 26 -11 39 -19 36 -7 -3 -27 2 -45 10 -17 9 -34 14 -36 11 -4 -4 -12 -40
-14 -62 -1 -5 -9 -2 -19 7 -10 9 -27 14 -38 11 -18 -5 -25 3 -43 49 -13 33
-32 59 -47 67 -26 14 -32 30 -11 30 6 0 23 3 37 6 19 4 22 3 10 -5 -28 -19 17
-24 153 -16 73 4 161 9 197 10 87 4 160 14 160 23 0 4 -87 8 -193 10 -426 6
-563 7 -587 3 -14 -2 -43 -1 -65 3 -22 3 -47 2 -56 -4z m98 -214 c32 -7 65
-14 73 -14 8 0 53 -13 100 -30 47 -17 99 -31 115 -30 17 0 49 -5 71 -11 23 -6
77 -14 120 -17 44 -3 89 -12 102 -20 18 -12 27 -13 37 -4 10 8 19 9 32 1 17
-10 17 -10 0 -11 -10 0 -17 -6 -15 -12 3 -7 96 -73 209 -146 222 -144 232
-156 191 -212 -47 -63 -53 -155 -11 -162 12 -2 26 -13 30 -26 9 -25 8 -27 -85
-109 -26 -24 -56 -43 -67 -43 -29 0 -23 18 9 25 38 8 128 135 96 135 -3 0 -33
-21 -66 -47 -100 -79 -105 -82 -65 -29 20 27 37 53 37 57 0 21 -36 6 -75 -30
-23 -21 -53 -44 -66 -51 -18 -10 -14 -1 19 40 23 29 42 59 42 66 0 26 -32 14
-76 -26 -24 -22 -49 -40 -55 -40 -12 0 -7 9 43 68 16 18 28 39 28 48 0 12 -4
12 -32 -2 -18 -9 -54 -35 -80 -56 -27 -22 -48 -37 -48 -33 0 4 25 36 55 71 51
58 54 64 37 73 -16 8 -30 2 -77 -34 -61 -48 -78 -56 -53 -27 20 22 88 120 88
126 0 19 -81 -25 -110 -59 -7 -9 -22 -21 -33 -26 -12 -7 -5 10 23 49 54 77 49
95 -13 48 -54 -41 -61 -43 -52 -16 3 10 1 29 -5 40 -13 25 -4 42 11 20 8 -13
12 -12 24 4 16 21 20 56 7 56 -4 0 -17 -7 -29 -15 -22 -15 -58 -11 -47 6 3 5
1 9 -4 9 -5 0 -26 -27 -46 -60 -43 -69 -64 -80 -36 -17 48 104 3 102 -50 -3
-26 -52 -61 -100 -71 -100 -4 0 4 20 18 45 14 25 22 52 19 60 -11 29 -35 14
-66 -41 -29 -52 -78 -109 -87 -101 -1 2 10 28 26 58 21 38 26 56 18 61 -13 8
-37 -9 -37 -26 0 -6 -12 -22 -25 -35 -30 -28 -32 -18 -6 35 19 39 19 39 0 48
-23 11 -41 -7 -32 -31 3 -8 -2 -13 -16 -13 -24 0 -29 28 -9 48 9 9 6 12 -16
12 -23 0 -26 -3 -21 -20 4 -14 2 -20 -9 -20 -8 0 -19 -8 -25 -17 -7 -13 -11
-4 -16 40 -7 51 -10 57 -31 57 -27 0 -32 -15 -9 -27 10 -6 13 -19 8 -46 -8
-49 -19 -47 -35 6 -14 48 -22 57 -48 50 -20 -5 -17 -26 6 -53 7 -8 16 -28 19
-45 l7 -30 -32 38 c-17 20 -37 37 -45 37 -21 0 -6 -35 31 -71 31 -30 44 -59
27 -59 -5 0 -41 36 -82 80 -41 44 -78 80 -83 80 -14 0 -9 -27 7 -40 8 -7 15
-20 15 -30 0 -10 12 -28 26 -41 58 -53 64 -59 64 -69 0 -25 -30 -4 -104 73
-66 67 -81 78 -84 62 -3 -12 6 -28 24 -44 17 -14 28 -32 26 -43 -2 -11 6 -22
22 -29 14 -7 23 -16 20 -20 -5 -9 17 -34 61 -66 l30 -21 -27 5 c-15 3 -44 23
-65 44 -21 22 -50 47 -65 55 -16 8 -28 22 -28 32 0 10 -9 25 -20 35 -25 21
-70 30 -70 14 0 -19 30 -58 40 -52 10 6 29 -23 27 -40 -1 -5 15 -19 35 -30 20
-11 41 -29 46 -40 5 -11 22 -27 38 -35 16 -8 51 -29 78 -47 26 -18 52 -33 56
-33 18 0 62 21 77 36 29 29 25 5 -8 -43 -25 -35 -35 -43 -37 -31 -2 10 -16 21
-30 24 -15 4 -60 22 -100 40 -40 19 -79 34 -87 34 -7 0 -17 5 -20 10 -3 6 -1
10 6 10 8 0 9 3 0 13 -16 20 -90 51 -99 43 -10 -11 122 -132 181 -166 27 -15
44 -31 38 -34 -14 -9 -118 45 -157 80 -89 83 -177 154 -190 154 -22 0 -17 -16
19 -53 17 -19 48 -52 68 -73 89 -96 199 -162 283 -171 39 -4 40 -3 22 11 -17
14 -18 16 -3 16 9 0 17 6 17 14 0 11 39 31 47 23 1 -2 -12 -32 -29 -67 -48
-101 -128 -199 -266 -322 -29 -25 -52 -52 -52 -60 0 -7 -21 -27 -48 -45 -48
-33 -182 -96 -182 -87 0 3 8 19 18 36 14 24 22 29 45 25 15 -2 32 2 38 9 7 9
-10 19 -73 40 -81 26 -133 52 -124 61 2 2 33 -7 68 -20 86 -34 99 -38 127 -43
13 -3 26 -6 30 -6 3 -1 16 2 29 6 32 11 24 39 -13 49 -125 35 -299 106 -307
125 -6 16 -105 82 -122 82 -9 0 -34 18 -54 40 -27 29 -48 42 -76 47 -36 6 -38
5 -28 -14 13 -24 55 -53 76 -53 8 0 16 -10 18 -22 2 -12 23 -34 53 -54 28 -18
64 -45 81 -59 17 -15 45 -34 62 -42 31 -15 43 -33 22 -33 -20 0 -180 96 -200
120 -23 28 -117 90 -136 90 -17 0 -24 6 -24 18 0 33 -75 80 -107 68 -16 -7
144 -149 189 -169 15 -6 28 -17 28 -23 0 -12 86 -74 103 -74 5 0 26 -14 45
-32 20 -17 66 -45 102 -62 49 -22 60 -31 43 -34 -11 -2 -56 15 -100 37 -71 37
-116 65 -231 145 -27 18 -58 30 -89 33 l-48 4 38 -34 c21 -19 51 -37 68 -41
17 -3 28 -10 25 -14 -13 -21 156 -122 205 -122 10 0 19 -5 19 -11 0 -7 8 -18
18 -26 15 -13 15 -13 -8 -7 -14 3 -57 22 -97 40 -39 19 -81 34 -92 34 -12 0
-21 5 -21 10 0 19 -53 59 -107 81 -29 12 -50 26 -47 31 9 14 -18 40 -64 60
-24 11 -41 22 -38 25 19 20 -96 110 -121 95 -15 -10 52 -92 75 -92 9 0 24 -15
32 -33 9 -20 30 -40 56 -52 22 -11 57 -39 78 -63 21 -23 49 -45 62 -48 14 -4
28 -12 32 -18 10 -18 194 -126 213 -126 9 0 36 -7 62 -16 45 -15 48 -15 81 5
35 22 66 27 66 11 0 -5 -18 -14 -40 -20 -24 -6 -40 -17 -40 -25 0 -9 -9 -15
-22 -15 -13 0 -33 -3 -45 -6 -18 -5 -23 -2 -23 13 0 14 -29 33 -122 77 -68 32
-144 73 -171 92 -26 19 -53 34 -61 34 -8 0 -35 20 -60 45 -26 25 -58 48 -71
51 -14 3 -25 12 -25 19 0 8 -14 16 -30 20 -17 4 -30 11 -30 15 0 5 7 7 15 4 8
-4 15 -2 15 2 0 17 -15 31 -40 37 -18 4 -29 16 -35 39 -7 23 -17 34 -33 36
-12 2 -30 14 -38 28 -9 13 -21 24 -28 24 -6 0 -23 20 -38 45 -26 43 -58 60
-58 31 0 -19 27 -39 41 -31 8 5 9 1 4 -15 -6 -18 0 -28 26 -51 19 -16 37 -29
40 -29 3 0 11 -11 17 -25 6 -14 19 -25 28 -25 10 0 14 -5 11 -15 -4 -8 8 -27
30 -47 19 -18 60 -59 91 -90 30 -32 60 -58 67 -58 6 0 22 -11 35 -25 13 -14
64 -53 112 -86 48 -33 88 -62 88 -63 0 -14 -84 21 -96 39 -8 13 -27 26 -41 30
-14 3 -51 28 -83 56 -31 27 -61 49 -67 49 -6 0 -31 22 -55 50 -50 55 -104 82
-119 59 -6 -10 1 -21 24 -39 18 -13 55 -47 83 -76 28 -28 72 -60 98 -72 25
-12 46 -28 46 -35 0 -17 50 -45 73 -42 11 2 17 -3 17 -16 0 -25 -10 -24 -68 4
-67 34 -141 85 -202 140 -28 26 -62 50 -75 53 -15 4 -21 11 -18 23 3 12 -12
30 -50 59 -50 39 -87 53 -87 34 0 -13 86 -102 98 -102 7 0 18 -13 26 -28 8
-16 35 -44 60 -63 25 -19 48 -42 51 -51 4 -10 10 -18 15 -18 5 0 64 -34 131
-75 67 -41 125 -72 130 -70 4 3 10 1 14 -5 4 -6 -11 -10 -40 -10 -37 0 -46 3
-42 15 4 10 -4 17 -29 24 -19 5 -51 23 -72 39 -20 16 -53 37 -72 47 -19 10
-55 35 -79 56 -24 22 -52 39 -62 39 -11 0 -19 6 -19 13 0 7 -20 32 -44 56 -38
38 -46 42 -65 32 -30 -16 -26 -32 17 -63 59 -44 146 -120 160 -139 11 -16 11
-18 -5 -12 -10 3 -25 12 -33 18 -8 7 -30 20 -48 29 -18 9 -42 32 -55 51 -12
19 -29 37 -38 40 -9 3 -43 32 -75 65 -32 33 -67 60 -77 60 -14 0 -16 4 -8 19
8 15 6 25 -11 47 -12 16 -25 31 -28 34 -4 3 -18 30 -32 60 -20 42 -24 58 -15
68 9 12 14 10 29 -8 10 -12 18 -33 18 -46 0 -12 11 -35 25 -50 14 -15 25 -32
25 -39 0 -7 18 -33 41 -59 31 -35 48 -46 70 -46 38 0 37 16 -8 65 -47 52 -98
131 -146 228 -37 76 -38 79 -21 98 12 13 26 18 40 15 21 -6 22 -4 11 30 -9 29
-8 41 5 67 9 18 19 42 23 55 3 12 11 22 16 22 5 0 19 16 31 36 15 25 26 34 39
31 18 -5 195 108 250 160 14 13 55 38 90 54 60 28 62 28 39 6 -14 -12 -41 -32
-60 -42 -19 -11 -95 -65 -169 -120 -178 -133 -167 -123 -155 -135 8 -8 28 0
65 26 30 20 70 44 89 54 19 10 66 41 105 69 38 28 74 51 80 51 12 -1 -58 -63
-97 -87 -26 -16 -43 -41 -34 -50 9 -9 79 29 203 111 135 88 156 106 128 106
-9 0 -13 5 -10 10 4 7 13 7 26 0 15 -9 35 -2 101 33 69 36 82 47 80 65 -4 25
13 29 26 6 7 -13 22 -8 103 34 52 27 123 67 159 89 36 21 81 45 100 53 33 12
147 70 193 97 11 6 58 12 105 12 82 1 224 10 230 15 6 6 96 -4 149 -18z
m-1978 -410 c9 -11 7 -18 -12 -32 -38 -31 -164 -213 -209 -302 l-42 -84 24
-19 c15 -12 19 -19 10 -18 -8 1 -20 1 -26 0 -17 -2 -43 -69 -64 -166 -16 -77
-18 -122 -15 -310 6 -341 15 -496 31 -540 8 -23 14 -52 13 -65 -1 -23 13 -124
26 -180 3 -14 12 -63 20 -110 28 -157 65 -274 89 -278 11 -2 14 1 10 12 -3 9
-1 16 5 16 7 0 11 -23 10 -64 -1 -35 3 -72 9 -82 7 -13 7 -24 0 -38 -7 -13 -7
-31 3 -60 7 -23 11 -48 10 -55 -2 -8 -28 -50 -58 -92 -51 -72 -58 -78 -99 -84
-49 -7 -102 12 -178 65 -33 22 -48 41 -56 68 -5 20 -19 51 -30 67 -11 17 -20
35 -20 42 0 6 -5 24 -12 40 -6 15 -12 49 -13 74 -2 25 -7 61 -13 80 -6 19 -14
61 -17 94 -4 33 -8 74 -10 90 -3 17 -7 80 -10 140 -3 61 -8 126 -11 145 -8 57
-10 330 -2 395 5 33 8 98 8 145 1 54 5 87 13 92 8 5 9 17 1 48 -10 36 -9 42 7
51 14 7 19 21 19 57 0 41 5 70 25 160 4 16 1 22 -11 22 -13 0 -11 4 8 19 18
14 25 31 27 62 1 24 13 70 26 104 13 33 27 71 31 85 4 14 18 42 30 62 13 21
24 41 24 44 0 4 17 34 38 68 20 34 42 71 48 81 13 24 142 115 163 115 9 0 39
12 66 25 56 28 97 32 114 11z m-122 -586 c4 0 15 7 25 17 16 14 18 14 18 0 0
-31 -11 -45 -32 -39 -25 6 -38 -13 -38 -58 0 -19 -5 -51 -10 -70 -6 -19 -13
-64 -16 -100 -2 -36 -6 -87 -9 -115 -2 -27 -4 -68 -4 -89 -1 -27 -4 -37 -11
-30 -11 11 -14 66 -7 127 3 27 -1 45 -14 62 -24 30 -24 35 4 32 20 -2 22 3 28
68 8 85 33 217 45 236 7 10 10 7 12 -13 2 -16 6 -28 9 -28z m20 -132 c-3 -40
-10 -84 -15 -98 -8 -19 -9 -6 -5 50 4 62 8 104 12 118 1 1 4 2 7 2 4 0 4 -33
1 -72z m-598 -58 c-6 -16 -16 -30 -23 -30 -7 0 -28 -13 -46 -30 -18 -16 -37
-30 -42 -30 -12 0 -10 18 3 25 7 5 4 14 -8 27 -17 19 -17 19 10 13 23 -6 33
-2 57 24 40 41 63 42 49 1z m591 -110 c8 -14 8 -26 0 -40 -15 -28 -27 -25 -24
8 1 15 2 33 3 40 1 18 9 15 21 -8z m-590 -119 c0 -14 -65 -81 -79 -81 -16 0
-14 11 9 45 23 35 70 59 70 36z m1528 -127 c28 -19 108 -16 104 5 -2 10 4 12
20 7 13 -3 36 -6 51 -6 44 0 22 -17 -37 -30 -120 -25 -239 -29 -180 -6 15 6
15 8 -1 26 -17 19 -17 20 1 20 11 0 30 -7 42 -16z m-1608 -297 c0 -24 -136
-135 -149 -122 -5 6 130 134 142 135 4 0 7 -6 7 -13z m971 -524 c13 -16 12
-17 -3 -4 -10 7 -18 15 -18 17 0 8 8 3 21 -13z m-124 -264 c81 -30 84 -34 77
-87 -6 -41 -41 -99 -131 -211 -2 -2 -6 -2 -9 2 -3 3 14 34 39 69 56 79 77 121
77 150 -1 22 -3 21 -30 -11 -16 -19 -40 -60 -52 -91 -28 -69 -104 -157 -143
-164 -15 -3 -38 -12 -52 -21 -13 -9 -31 -14 -40 -11 -8 3 -23 1 -34 -4 -22
-12 -92 -3 -83 11 3 5 15 9 27 9 41 0 162 66 195 106 40 48 70 133 52 144 -7
4 -15 35 -17 69 l-5 61 36 0 c19 0 61 -10 93 -21z"/>
<path d="M3590 4324 c0 -14 4 -23 10 -19 6 3 10 15 10 26 0 10 -4 19 -10 19
-5 0 -10 -12 -10 -26z"/>
<path d="M3045 4330 c-3 -5 10 -21 27 -36 28 -23 33 -25 36 -10 2 9 1 23 -1
30 -6 15 -55 27 -62 16z"/>
<path d="M3335 4329 c-4 -6 -5 -13 -2 -16 7 -7 27 6 27 18 0 12 -17 12 -25 -2z"/>
<path d="M3417 4326 c-3 -8 -2 -18 3 -21 13 -8 24 15 12 27 -6 6 -11 4 -15 -6z"/>
<path d="M3485 4300 c-4 -6 -3 -16 3 -22 6 -6 12 -6 17 2 4 6 3 16 -3 22 -6 6
-12 6 -17 -2z"/>
<path d="M2810 4120 c6 -11 17 -20 25 -20 13 0 13 3 3 20 -7 11 -19 20 -26 20
-10 0 -10 -5 -2 -20z"/>
<path d="M2602 4091 c16 -25 31 -27 26 -4 -2 10 -11 19 -21 21 -16 3 -17 1 -5
-17z"/>
<path d="M2500 4051 c5 -11 24 -29 41 -41 17 -13 35 -33 40 -47 5 -13 23 -32
40 -41 18 -9 49 -33 71 -53 21 -20 51 -42 67 -48 35 -15 59 -59 36 -68 -10 -3
-29 8 -51 31 -19 20 -39 36 -44 36 -4 0 -32 20 -61 45 -29 25 -60 45 -69 45
-8 0 -20 10 -25 21 -6 12 -29 35 -53 52 -34 25 -45 28 -55 18 -9 -10 3 -27 63
-83 106 -101 168 -148 193 -148 12 0 28 -9 34 -19 18 -29 137 -92 210 -112 56
-16 65 -16 70 -3 8 20 3 23 -64 41 -32 8 -64 19 -70 25 -7 6 -19 8 -28 5 -8
-4 -17 -2 -20 2 -2 5 10 14 28 21 17 6 48 19 68 27 36 15 79 11 79 -7 0 -5
-15 -10 -32 -12 -63 -6 -32 -46 49 -63 29 -6 34 -3 45 22 7 15 21 34 30 41 26
19 22 38 -9 50 -67 25 -130 44 -159 49 -26 4 -32 1 -37 -16 -4 -17 -11 -21
-34 -17 -27 5 -59 30 -162 124 -25 23 -56 45 -67 48 -12 3 -27 15 -33 27 -13
24 -70 67 -89 67 -9 0 -10 -5 -2 -19z"/>
<path d="M2650 4032 c0 -10 5 -23 12 -30 7 -7 20 -12 30 -12 10 0 17 -3 16 -7
-5 -23 44 -78 95 -109 66 -39 72 -40 81 -18 8 21 3 29 -49 64 -24 16 -46 38
-49 48 -6 17 -107 82 -127 82 -5 0 -9 -8 -9 -18z"/>
<path d="M2300 4005 c0 -14 21 -45 30 -45 18 0 10 29 -10 40 -11 6 -20 8 -20
5z"/>
<path d="M1450 3974 c0 -8 5 -12 10 -9 6 3 10 10 10 16 0 5 -4 9 -10 9 -5 0
-10 -7 -10 -16z"/>
<path d="M2040 3974 c0 -5 25 -35 55 -67 30 -32 55 -62 55 -67 0 -6 7 -10 15
-10 8 0 20 -10 26 -22 15 -28 35 -45 74 -63 17 -7 42 -26 55 -42 60 -68 250
-176 401 -227 88 -30 101 -32 119 -19 45 31 26 44 -105 73 -57 13 -123 41
-163 68 -15 11 -44 25 -65 32 -21 6 -41 18 -44 26 -2 7 -27 27 -53 44 -27 17
-52 41 -56 52 -3 11 -26 29 -52 40 -26 11 -58 34 -71 50 -13 17 -39 37 -58 44
-18 8 -33 20 -33 27 0 8 -10 23 -22 35 -24 22 -78 40 -78 26z"/>
<path d="M2210 3953 c0 -15 137 -153 151 -153 8 0 26 -15 41 -34 36 -44 240
-185 281 -193 18 -3 48 -14 67 -24 58 -30 154 -47 165 -29 11 18 -12 34 -95
64 -95 36 -273 130 -304 161 -13 12 -37 30 -55 40 -18 9 -34 22 -37 29 -3 7
-30 26 -60 41 -30 15 -59 36 -65 47 -16 29 -89 71 -89 51z"/>
<path d="M2366 3930 c-17 -5 -14 -11 24 -41 23 -19 60 -49 81 -67 38 -33 77
-46 112 -35 17 4 17 6 2 23 -9 10 -31 24 -48 31 -18 8 -46 28 -64 45 -36 36
-79 54 -107 44z"/>
<path d="M1460 3916 c0 -19 29 -48 41 -41 14 9 11 27 -8 41 -23 17 -33 17 -33
0z"/>
<path d="M1860 3920 c0 -11 51 -60 62 -60 16 0 7 27 -15 48 -24 23 -47 29 -47
12z"/>
<path d="M1995 3910 c-10 -16 46 -73 59 -60 7 7 0 20 -21 41 -21 22 -33 27
-38 19z"/>
<path d="M1550 3906 c0 -20 22 -56 35 -56 20 0 19 12 -4 38 -17 20 -31 28 -31
18z"/>
<path d="M1670 3870 c0 -16 39 -50 57 -50 13 0 10 7 -12 30 -29 31 -45 38 -45
20z"/>
<path d="M1800 3861 c0 -16 41 -61 56 -61 21 0 17 13 -14 43 -29 28 -42 33
-42 18z"/>
<path d="M1416 3852 c-8 -13 10 -52 24 -52 18 0 19 19 2 41 -13 15 -21 19 -26
11z"/>
<path d="M1936 3842 c-6 -11 61 -78 70 -70 3 4 3 16 -1 27 -7 23 -61 56 -69
43z"/>
<path d="M1505 3830 c-4 -6 7 -24 24 -41 17 -17 31 -39 31 -49 0 -16 44 -72
112 -142 26 -28 58 -29 58 -3 0 7 -36 50 -80 95 -44 45 -80 90 -80 99 -1 37
-49 67 -65 41z"/>
<path d="M2070 3816 c0 -12 81 -66 91 -61 16 11 -40 65 -68 65 -13 0 -23 -2
-23 -4z"/>
<path d="M1735 3790 c-7 -11 72 -66 82 -56 8 8 -47 66 -63 66 -7 0 -15 -4 -19
-10z"/>
<path d="M1455 3778 c-6 -16 28 -78 47 -86 4 -2 8 -14 8 -26 0 -13 8 -30 18
-39 21 -19 68 -38 76 -30 8 8 -44 73 -59 73 -7 0 -15 12 -18 28 -3 15 -19 43
-36 62 -25 30 -30 32 -36 18z"/>
<path d="M1870 3766 c0 -14 54 -66 68 -66 4 0 15 -15 25 -32 10 -18 35 -43 57
-55 42 -25 90 -30 90 -11 0 15 -80 88 -96 88 -7 0 -22 12 -34 27 -41 52 -110
83 -110 49z"/>
<path d="M2572 3757 c-8 -10 1 -19 41 -41 29 -16 64 -40 79 -54 33 -30 215
-92 242 -82 39 14 26 28 -41 48 -37 12 -112 48 -166 82 -98 60 -135 71 -155
47z"/>
<path d="M1084 4187 c-50 -53 -84 -98 -84 -110 0 -13 68 55 99 101 31 44 22
50 -15 9z"/>
<path d="M877 3813 c-7 -13 -26 -76 -31 -103 -2 -14 -12 -65 -22 -115 -19 -96
-20 -143 -5 -158 11 -11 16 7 26 76 4 27 8 57 10 67 2 11 6 44 10 74 3 30 12
74 20 97 8 23 15 48 15 55 0 15 -16 19 -23 7z"/>
<path d="M785 3261 c-24 -142 -27 -512 -5 -569 7 -19 15 -29 19 -24 8 14 6
234 -3 303 -5 36 -4 59 2 63 7 4 7 17 2 36 -5 17 -6 42 -4 58 9 46 11 163 3
168 -4 2 -10 -14 -14 -35z"/>
<path d="M779 2638 c-14 -48 21 -220 39 -191 17 28 -4 193 -24 193 -8 0 -14
-1 -15 -2z"/>
<path d="M817 2343 c-10 -10 -8 -41 5 -84 15 -53 28 -49 28 10 0 68 -12 95
-33 74z"/>
<path d="M1007 2205 c-62 -21 -84 -49 -97 -121 -11 -57 -10 -72 5 -122 22 -70
26 -75 82 -107 55 -30 59 -30 116 -6 49 21 67 54 67 121 0 66 -51 199 -84 222
-6 4 -21 5 -34 1 -17 -4 -21 -2 -16 11 7 19 9 19 -39 1z"/>
<path d="M1310 2054 c0 -31 23 -28 28 4 2 15 -2 22 -12 22 -11 0 -16 -9 -16
-26z"/>
<path d="M4287 4953 c-2 -1 -22 -3 -45 -4 -40 -3 -70 -18 -40 -20 10 -1 292
-7 443 -10 17 0 95 1 175 3 80 2 159 0 175 -3 53 -12 245 -24 410 -24 88 -1
180 -4 205 -9 34 -5 53 -3 75 8 38 20 56 20 49 1 -5 -11 1 -15 23 -15 27 0 80
28 58 30 -5 1 -19 4 -30 7 -11 3 -78 7 -150 9 -71 2 -178 7 -237 10 -66 4
-113 2 -125 -5 -12 -6 -24 -6 -29 -1 -19 18 -133 23 -537 25 -230 0 -419 0
-420 -2z"/>
<path d="M5860 4901 c39 -22 156 -39 253 -36 97 2 174 -8 312 -40 33 -8 76
-15 95 -16 19 -1 61 -10 93 -20 63 -21 97 -24 97 -10 0 13 -102 50 -148 55
-20 2 -62 11 -92 19 -30 9 -84 19 -120 22 -36 4 -87 13 -114 21 -55 16 -403
20 -376 5z"/>
<path d="M3655 4868 c-3 -8 -1 -27 4 -41 9 -24 13 -26 30 -15 21 13 16 33 -13
57 -13 11 -17 11 -21 -1z"/>
<path d="M4090 4686 c0 -8 4 -17 9 -20 11 -7 33 18 24 27 -12 12 -33 7 -33 -7z"/>
<path d="M4226 4672 c-7 -12 3 -42 14 -42 16 0 19 17 6 35 -8 11 -15 14 -20 7z"/>
<path d="M4362 4639 c3 -37 21 -46 26 -13 2 11 -4 27 -13 34 -15 12 -16 10
-13 -21z"/>
<path d="M5974 4625 c5 -27 2 -45 -15 -75 -17 -29 -20 -43 -12 -51 8 -8 16 -6
31 9 26 26 32 152 6 152 -13 0 -15 -7 -10 -35z"/>
<path d="M4496 4615 c-3 -9 0 -15 9 -15 8 0 15 7 15 15 0 8 -4 15 -9 15 -5 0
-11 -7 -15 -15z"/>
<path d="M4695 4569 c-4 -6 -3 -15 3 -21 6 -6 11 -4 15 6 7 18 -9 31 -18 15z"/>
<path d="M5277 4560 c-3 -13 1 -24 13 -30 23 -12 30 -2 19 28 -10 27 -25 28
-32 2z"/>
<path d="M5777 4574 c-4 -4 -7 -14 -7 -23 0 -11 3 -12 11 -4 6 6 10 16 7 23
-2 6 -7 8 -11 4z"/>
<path d="M5900 4561 c-7 -13 -7 -22 0 -26 13 -8 30 3 30 20 0 23 -18 27 -30 6z"/>
<path d="M4824 4559 c-3 -6 -1 -16 5 -22 6 -6 11 -9 12 -6 0 2 2 12 4 22 4 19
-10 23 -21 6z"/>
<path d="M6254 4559 c-3 -6 0 -15 7 -20 22 -14 28 -11 22 11 -6 22 -18 26 -29
9z"/>
<path d="M4966 4551 c-4 -5 -2 -12 3 -15 5 -4 12 -2 15 3 4 5 2 12 -3 15 -5 4
-12 2 -15 -3z"/>
<path d="M5685 4539 c-10 -15 3 -25 16 -12 7 7 7 13 1 17 -6 3 -14 1 -17 -5z"/>
<path d="M6180 4536 c0 -10 9 -16 21 -16 24 0 21 23 -4 28 -10 2 -17 -3 -17
-12z"/>
<path d="M6481 4537 c-6 -8 -8 -16 -5 -20 10 -9 34 4 34 19 0 18 -14 18 -29 1z"/>
<path d="M5815 4530 c-8 -14 3 -30 21 -30 8 0 14 9 14 20 0 21 -24 28 -35 10z"/>
<path d="M5606 4505 c-3 -9 0 -15 8 -15 7 0 13 7 13 15 0 8 -4 15 -8 15 -4 0
-9 -7 -13 -15z"/>
<path d="M4495 4241 c-3 -6 -3 -11 2 -12 21 -2 50 -9 129 -34 82 -25 114 -27
114 -6 0 14 -13 20 -56 27 -22 3 -57 10 -79 15 -73 18 -103 20 -110 10z"/>
<path d="M5076 4121 c-4 -5 15 -25 41 -45 27 -19 63 -51 81 -70 35 -36 88 -64
100 -52 4 4 0 11 -8 16 -8 4 -51 38 -95 75 -92 76 -111 89 -119 76z"/>
<path d="M5280 3925 c0 -13 33 -85 39 -85 4 0 16 6 26 14 18 13 18 14 -4 45
-12 17 -31 31 -42 31 -10 0 -19 -2 -19 -5z"/>
<path d="M5260 3806 c0 -22 3 -27 11 -19 8 8 8 16 0 30 -9 16 -10 14 -11 -11z"/>
<path d="M4220 3735 c0 -22 4 -34 10 -30 6 3 10 17 10 30 0 13 -4 27 -10 30
-6 4 -10 -8 -10 -30z"/>
<path d="M5256 3718 c-9 -35 -7 -48 7 -43 12 5 18 65 6 65 -4 0 -9 -10 -13
-22z"/>
<path d="M4297 3699 c4 -15 8 -17 14 -8 8 14 3 29 -11 29 -4 0 -6 -9 -3 -21z"/>
<path d="M5187 3700 c-6 -24 8 -36 17 -14 8 22 7 34 -3 34 -5 0 -11 -9 -14
-20z"/>
<path d="M4354 3645 c4 -24 13 -27 19 -5 3 13 0 20 -8 20 -7 0 -12 -7 -11 -15z"/>
<path d="M5089 3618 c-7 -24 -5 -38 4 -35 15 5 22 37 8 37 -6 0 -11 -1 -12 -2z"/>
<path d="M4405 3580 c3 -5 8 -10 11 -10 2 0 4 5 4 10 0 6 -5 10 -11 10 -5 0
-7 -4 -4 -10z"/>
<path d="M4843 3520 c-6 -15 -7 -26 -1 -29 15 -5 20 5 16 31 l-5 23 -10 -25z"/>
<path d="M4977 3523 c-10 -9 -9 -43 1 -43 14 0 43 36 35 43 -8 9 -28 9 -36 0z"/>
<path d="M4601 3506 c-7 -8 -8 -17 -3 -20 6 -3 13 1 16 10 9 23 2 28 -13 10z"/>
<path d="M4735 3490 c-7 -12 2 -30 16 -30 5 0 9 9 9 20 0 21 -15 27 -25 10z"/>
<path d="M4897 3486 c-3 -8 -3 -17 0 -20 9 -9 34 15 27 25 -8 13 -21 11 -27
-5z"/>
<path d="M5056 3263 c4 -16 7 -30 6 -33 0 -48 -14 -53 -37 -12 l-16 27 6 -35
c5 -31 4 -33 -8 -17 -28 34 -37 20 -36 -60 1 -81 12 -131 23 -103 6 18 14 66
15 98 1 13 7 22 17 22 16 0 17 -23 3 -68 -2 -8 4 -19 13 -25 24 -16 39 1 44
49 3 22 6 47 8 57 5 23 -24 127 -36 127 -4 0 -5 -12 -2 -27z"/>
<path d="M4966 3267 c-11 -8 -15 -17 -9 -20 14 -9 54 4 50 16 -5 17 -21 18
-41 4z"/>
<path d="M4875 3240 c3 -5 12 -10 20 -10 8 0 17 5 20 10 4 6 -5 10 -20 10 -15
0 -24 -4 -20 -10z"/>
<path d="M4230 3150 c0 -5 4 -10 9 -10 6 0 13 5 16 10 3 6 -1 10 -9 10 -9 0
-16 -4 -16 -10z"/>
<path d="M3729 2995 c-7 -19 -21 -37 -31 -41 -10 -3 -21 -16 -24 -29 -3 -13
-14 -27 -24 -30 -27 -9 -32 -33 -10 -45 17 -9 22 -7 32 15 6 14 14 25 18 25
12 0 70 100 70 121 0 31 -18 22 -31 -16z"/>
<path d="M3641 3001 c-7 -13 -6 -24 4 -37 13 -18 14 -18 23 6 16 43 -7 69 -27
31z"/>
<path d="M3601 2946 c-9 -10 -8 -16 4 -26 21 -17 51 6 34 26 -6 8 -15 14 -19
14 -4 0 -13 -6 -19 -14z"/>
<path d="M3822 2858 c-14 -14 -16 -28 -3 -28 9 0 24 30 18 36 -2 2 -9 -2 -15
-8z"/>
<path d="M3936 2774 c-4 -10 -1 -14 6 -12 15 5 23 28 10 28 -5 0 -13 -7 -16
-16z"/>
<path d="M3902 2738 c-14 -14 -16 -28 -2 -28 5 0 14 9 20 20 12 22 1 27 -18 8z"/>
<path d="M4120 2543 c-14 -9 -27 -18 -29 -19 -1 -1 0 -7 3 -13 9 -15 32 -3 51
25 18 28 9 31 -25 7z"/>
<path d="M4258 2469 c-10 -5 -18 -14 -18 -19 0 -17 15 -11 28 10 14 23 13 23
-10 9z"/>
</g>
</svg>
