<svg xmlns="http://www.w3.org/2000/svg" xmlns:xlink="http://www.w3.org/1999/xlink" preserveAspectRatio="xMidYMid" width="139" height="41" viewBox="0 0 139 41">
  <defs>
    <style>
      .cls-1 {
        fill: #414141;
        fill-rule: evenodd;
      }
    </style>
  </defs>
  <path d="M134.275,23.317 L134.360,20.871 L134.103,20.805 C133.101,21.818 132.160,22.536 131.281,22.956 C130.402,23.379 129.470,23.588 128.479,23.588 C127.606,23.588 126.836,23.420 126.169,23.085 C125.502,22.750 124.991,22.276 124.632,21.666 C124.279,21.057 124.100,20.355 124.100,19.556 C124.100,17.893 124.928,16.607 126.590,15.703 C128.252,14.797 130.744,14.270 134.067,14.124 L134.067,13.010 C134.067,11.826 133.951,10.893 133.724,10.209 C133.494,9.526 133.130,9.025 132.636,8.704 C132.141,8.387 131.481,8.228 130.653,8.228 C129.755,8.228 129.034,8.459 128.487,8.928 C127.942,9.394 127.532,10.095 127.254,11.027 L124.997,11.027 L124.997,8.806 C126.100,8.238 127.019,7.820 127.754,7.550 C128.491,7.284 129.227,7.073 129.964,6.919 C130.698,6.766 131.446,6.689 132.204,6.689 C133.343,6.689 134.257,6.866 134.946,7.227 C135.636,7.587 136.153,8.137 136.499,8.876 C136.844,9.617 137.015,10.733 137.015,12.225 L137.015,18.172 C137.015,19.014 137.022,19.612 137.035,19.957 C137.044,20.306 137.079,20.626 137.137,20.923 C137.195,21.218 137.281,21.456 137.397,21.633 C137.510,21.811 137.680,21.960 137.903,22.085 C138.127,22.211 138.494,22.342 139.001,22.478 L139.001,23.317 L134.275,23.317 ZM134.067,15.523 C131.732,15.545 129.987,15.854 128.824,16.446 C127.663,17.040 127.083,17.933 127.083,19.129 C127.083,19.776 127.214,20.291 127.480,20.665 C127.744,21.043 128.078,21.302 128.479,21.446 C128.882,21.586 129.359,21.657 129.911,21.657 C130.691,21.657 131.403,21.469 132.041,21.093 C132.680,20.718 133.176,20.239 133.532,19.658 C133.889,19.077 134.067,18.502 134.067,17.933 L134.067,15.523 ZM115.146,8.216 C114.865,8.347 114.655,8.545 114.518,8.814 C114.379,9.081 114.300,9.437 114.275,9.881 C114.252,10.326 114.240,10.915 114.240,11.643 L114.240,19.094 C114.240,19.892 114.278,20.477 114.353,20.854 C114.428,21.230 114.531,21.511 114.664,21.692 C114.795,21.875 114.955,22.016 115.146,22.119 C115.337,22.221 115.654,22.342 116.103,22.478 L116.103,23.315 L109.343,23.315 L109.343,22.478 C109.929,22.330 110.352,22.156 110.612,21.957 C110.869,21.759 111.046,21.466 111.136,21.086 C111.229,20.704 111.273,20.024 111.273,19.042 L111.273,12.668 C111.273,12.121 111.258,6.823 111.258,6.823 L112.310,6.823 L116.344,6.977 L116.344,7.882 C115.827,7.974 115.427,8.086 115.146,8.216 ZM104.189,8.462 L104.193,6.823 L111.258,6.823 L111.261,8.462 L104.189,8.462 ZM104.177,19.042 C104.177,20.024 104.221,20.704 104.314,21.086 C104.404,21.466 104.582,21.759 104.840,21.957 C105.099,22.156 105.521,22.330 106.108,22.478 L106.108,23.315 L99.347,23.315 L99.347,22.478 C99.796,22.342 100.113,22.221 100.304,22.119 C100.495,22.016 100.655,21.875 100.786,21.692 C100.919,21.511 101.023,21.230 101.098,20.854 C101.172,20.477 101.211,19.892 101.211,19.094 L101.211,11.643 C101.211,10.915 101.198,10.326 101.175,9.881 C101.151,9.437 101.072,9.081 100.933,8.814 C100.795,8.545 100.585,8.347 100.304,8.216 C100.023,8.086 99.624,7.974 99.106,7.882 L99.106,6.977 L103.141,6.823 L104.192,6.823 C104.192,6.823 104.177,12.121 104.177,12.668 L104.177,19.042 ZM139.000,38.657 L93.998,38.657 L93.998,37.921 L139.000,37.921 L139.000,38.657 ZM86.892,22.623 C85.730,23.266 84.356,23.588 82.770,23.588 C80.378,23.588 78.553,22.891 77.295,21.496 C76.035,20.101 75.407,18.035 75.407,15.302 C75.407,13.422 75.736,11.833 76.397,10.534 C77.058,9.233 77.964,8.269 79.113,7.637 C80.263,7.003 81.574,6.689 83.045,6.689 C85.506,6.689 87.368,7.396 88.635,8.817 C89.898,10.233 90.529,12.272 90.529,14.925 C90.529,16.815 90.214,18.411 89.581,19.711 C88.949,21.009 88.051,21.980 86.892,22.623 ZM86.710,11.252 C86.336,10.146 85.828,9.333 85.183,8.817 C84.540,8.299 83.804,8.037 82.978,8.037 C81.586,8.037 80.519,8.637 79.778,9.831 C79.035,11.029 78.664,12.733 78.664,14.942 C78.664,17.288 79.041,19.092 79.795,20.350 C80.548,21.610 81.624,22.240 83.029,22.240 C83.798,22.240 84.453,22.056 84.994,21.684 C85.535,21.314 85.973,20.815 86.314,20.188 C86.654,19.562 86.898,18.837 87.046,18.010 C87.195,17.184 87.271,16.321 87.271,15.420 C87.271,13.746 87.084,12.356 86.710,11.252 ZM76.327,35.368 C76.574,35.269 76.861,35.221 77.191,35.221 C77.774,35.221 78.219,35.421 78.526,35.820 C78.832,36.222 78.985,36.796 78.985,37.548 C78.985,38.234 78.873,38.829 78.648,39.333 C78.423,39.836 78.107,40.228 77.699,40.508 C77.293,40.787 76.819,40.953 76.275,41.001 L76.105,40.774 L76.105,40.572 C76.494,40.572 76.832,40.486 77.117,40.315 C77.403,40.145 77.632,39.891 77.806,39.557 C77.980,39.221 78.096,38.781 78.154,38.239 L78.113,38.221 C77.879,38.386 77.648,38.509 77.421,38.584 C77.195,38.663 76.948,38.701 76.684,38.701 C76.370,38.701 76.103,38.633 75.880,38.497 C75.659,38.361 75.492,38.168 75.383,37.921 C75.269,37.675 75.215,37.385 75.215,37.055 C75.215,36.806 75.256,36.570 75.340,36.349 C75.424,36.126 75.547,35.932 75.711,35.766 C75.875,35.599 76.082,35.466 76.327,35.368 ZM76.254,37.927 C76.425,38.153 76.663,38.267 76.973,38.267 C77.078,38.267 77.180,38.258 77.276,38.240 C77.371,38.221 77.465,38.196 77.557,38.161 C77.648,38.127 77.739,38.082 77.827,38.028 C77.914,37.974 77.993,37.917 78.062,37.858 C78.088,37.834 78.111,37.806 78.129,37.769 C78.149,37.735 78.164,37.688 78.175,37.630 C78.186,37.571 78.192,37.481 78.192,37.357 C78.192,36.979 78.154,36.654 78.078,36.386 C78.001,36.117 77.884,35.915 77.727,35.779 C77.570,35.640 77.376,35.572 77.143,35.572 C76.936,35.572 76.757,35.609 76.614,35.681 C76.469,35.752 76.351,35.851 76.262,35.977 C76.170,36.102 76.105,36.250 76.062,36.420 C76.020,36.588 75.999,36.773 75.999,36.970 C75.999,37.382 76.085,37.701 76.254,37.927 ZM70.701,40.634 C71.010,40.619 71.230,40.601 71.362,40.578 C71.496,40.554 71.596,40.519 71.666,40.473 C71.735,40.426 71.787,40.359 71.819,40.273 C71.850,40.188 71.866,40.049 71.866,39.856 L71.866,36.499 C71.866,36.390 71.847,36.309 71.806,36.259 C71.768,36.206 71.712,36.182 71.636,36.182 C71.547,36.182 71.420,36.226 71.256,36.318 C71.092,36.408 70.888,36.533 70.647,36.694 L70.462,36.375 L72.417,35.221 L72.648,35.221 C72.630,35.486 72.621,35.853 72.621,36.322 L72.621,39.856 C72.621,40.015 72.630,40.136 72.649,40.219 C72.667,40.299 72.699,40.365 72.745,40.417 C72.791,40.468 72.856,40.507 72.943,40.536 C73.030,40.564 73.138,40.588 73.268,40.603 C73.399,40.618 73.572,40.628 73.787,40.634 L73.787,40.935 L70.701,40.935 L70.701,40.634 ZM67.130,39.975 L67.973,39.975 L67.973,40.935 L67.130,40.935 L67.130,39.975 ZM63.096,22.623 C61.999,23.268 60.691,23.588 59.173,23.588 C58.321,23.588 57.552,23.519 56.861,23.374 C56.173,23.232 55.538,23.042 54.965,22.803 L54.965,26.410 C54.965,27.150 54.991,27.701 55.042,28.065 C55.094,28.431 55.187,28.718 55.318,28.931 C55.450,29.139 55.640,29.314 55.888,29.450 C56.133,29.586 56.533,29.712 57.085,29.827 L57.085,30.664 L50.049,30.664 L50.049,29.827 C50.463,29.712 50.802,29.595 51.058,29.477 C51.317,29.356 51.515,29.179 51.653,28.947 C51.792,28.712 51.884,28.396 51.929,27.997 C51.975,27.597 51.999,27.069 51.999,26.410 L51.999,11.748 C51.999,10.927 51.987,10.342 51.964,9.995 C51.942,9.647 51.894,9.360 51.827,9.131 C51.757,8.905 51.656,8.716 51.523,8.569 C51.392,8.419 51.212,8.294 50.991,8.191 C50.767,8.090 50.396,7.987 49.879,7.885 L49.879,6.980 L53.928,6.826 L54.981,6.826 L54.758,9.611 L55.016,9.679 C55.729,8.961 56.291,8.439 56.707,8.114 C57.120,7.789 57.548,7.520 57.992,7.302 C58.434,7.088 58.860,6.933 59.267,6.843 C59.675,6.751 60.109,6.705 60.569,6.705 C62.468,6.705 63.923,7.410 64.942,8.815 C65.960,10.222 66.468,12.282 66.468,14.993 C66.468,16.873 66.179,18.453 65.606,19.736 C65.031,21.016 64.193,21.979 63.096,22.623 ZM59.276,8.756 C58.631,8.756 58.077,8.855 57.612,9.056 C57.146,9.254 56.684,9.576 56.224,10.019 C55.764,10.463 55.437,10.896 55.248,11.311 C55.059,11.726 54.965,12.174 54.965,12.651 L54.965,17.164 C54.965,18.256 55.035,19.101 55.172,19.693 C55.310,20.285 55.553,20.768 55.903,21.137 C56.255,21.508 56.669,21.784 57.146,21.966 C57.622,22.149 58.253,22.239 59.036,22.239 C60.425,22.239 61.472,21.666 62.172,20.520 C62.874,19.377 63.225,17.688 63.225,15.455 C63.225,10.989 61.909,8.756 59.276,8.756 ZM-0.002,37.921 L45.001,37.921 L45.001,38.657 L-0.002,38.657 L-0.002,37.921 ZM37.492,22.651 C36.433,23.275 35.183,23.588 33.738,23.588 C32.926,23.588 32.161,23.514 31.443,23.370 C30.727,23.222 30.063,22.987 29.271,22.422 C26.902,20.730 26.902,17.124 26.902,17.124 L26.902,5.629 C26.902,4.588 26.893,3.860 26.876,3.447 C26.861,3.034 26.815,2.685 26.745,2.397 C26.673,2.109 26.574,1.884 26.449,1.722 C26.322,1.557 26.151,1.426 25.941,1.329 C25.725,1.233 25.338,1.134 24.781,1.037 L24.781,0.191 L28.759,0.028 L29.726,0.028 L29.726,2.672 C29.743,2.644 29.757,2.610 29.773,2.583 C30.187,1.892 30.740,1.323 31.424,0.876 C32.029,0.480 32.640,0.248 33.256,0.180 C33.873,0.111 34.446,0.207 34.976,0.468 C35.502,0.731 35.949,1.137 36.315,1.689 C37.081,2.843 37.098,4.109 36.363,5.487 C36.016,6.139 35.491,6.818 34.807,7.521 C34.896,7.517 34.977,7.501 35.067,7.501 C36.241,7.501 37.244,7.796 38.084,8.390 C38.921,8.979 39.567,9.867 40.022,11.051 C40.476,12.234 40.704,13.684 40.704,15.398 C40.704,17.170 40.434,18.664 39.890,19.885 C39.348,21.106 38.549,22.029 37.492,22.651 ZM34.446,3.334 C34.147,2.885 33.821,2.591 33.461,2.448 C33.105,2.308 32.755,2.278 32.412,2.361 C32.065,2.444 31.702,2.612 31.322,2.862 C30.779,3.216 30.373,3.668 30.105,4.214 C29.836,4.762 29.712,5.320 29.732,5.883 C29.731,5.880 29.728,5.878 29.726,5.875 L29.726,10.318 L29.792,10.335 C30.561,9.543 31.197,8.966 31.707,8.608 C31.912,8.464 32.123,8.343 32.334,8.225 C33.356,7.438 34.072,6.689 34.475,5.980 C35.006,5.046 34.996,4.163 34.446,3.334 ZM36.686,11.077 C36.068,9.995 35.134,9.456 33.882,9.456 C33.260,9.456 32.728,9.549 32.289,9.741 C31.852,9.930 31.417,10.227 30.985,10.627 C30.550,11.030 30.233,11.424 30.031,11.817 C29.827,12.208 29.726,12.653 29.726,13.153 L29.726,17.466 C29.726,18.304 29.766,18.967 29.842,19.461 C29.919,19.957 30.048,20.365 30.228,20.691 C30.410,21.016 30.670,21.316 31.017,21.585 C31.360,21.858 31.748,22.045 32.177,22.147 C32.602,22.251 33.078,22.304 33.604,22.304 C34.919,22.304 35.915,21.771 36.596,20.708 C37.275,19.643 37.615,18.047 37.615,15.919 C37.615,13.771 37.305,12.157 36.686,11.077 ZM10.997,21.811 C11.559,21.811 12.017,21.763 12.368,21.667 C12.719,21.568 13.019,21.406 13.273,21.171 C13.526,20.936 13.750,20.631 13.946,20.256 C14.141,19.879 14.305,19.489 14.437,19.086 C14.570,18.682 14.751,18.093 14.982,17.317 L16.687,17.317 L16.358,23.315 L0.391,23.315 L0.391,22.479 C1.103,22.296 1.581,22.094 1.822,21.871 C2.063,21.649 2.222,21.332 2.296,20.923 C2.372,20.513 2.408,19.885 2.408,19.042 L2.408,4.261 C2.408,3.476 2.379,2.903 2.322,2.543 C2.265,2.187 2.170,1.906 2.038,1.706 C1.904,1.508 1.729,1.348 1.511,1.229 C1.293,1.108 0.920,0.975 0.391,0.827 L0.391,-0.010 L16.515,-0.010 L16.515,5.150 L14.825,5.150 C14.653,4.592 14.475,4.102 14.289,3.680 C14.106,3.259 13.917,2.906 13.721,2.621 C13.526,2.336 13.309,2.107 13.075,1.939 C12.838,1.766 12.560,1.651 12.238,1.588 C11.915,1.524 11.532,1.495 11.083,1.495 L5.633,1.495 L5.633,10.448 L9.324,10.448 C9.831,10.448 10.227,10.378 10.514,10.233 C10.801,10.091 11.040,9.850 11.230,9.509 C11.419,9.167 11.600,8.631 11.773,7.901 L13.393,7.901 L13.393,14.463 L11.773,14.463 C11.611,13.781 11.434,13.264 11.239,12.917 C11.042,12.569 10.810,12.321 10.540,12.174 C10.269,12.027 9.864,11.952 9.324,11.952 L5.633,11.952 L5.633,21.811 L10.997,21.811 ZM54.042,36.538 L53.633,36.538 C53.592,36.402 53.547,36.284 53.503,36.180 C53.460,36.080 53.412,35.993 53.366,35.924 C53.317,35.856 53.266,35.799 53.209,35.760 C53.152,35.718 53.084,35.689 53.006,35.674 C52.928,35.659 52.835,35.652 52.727,35.652 L51.407,35.652 L51.407,37.819 L52.301,37.819 C52.423,37.819 52.519,37.803 52.588,37.768 C52.658,37.734 52.716,37.675 52.762,37.592 C52.807,37.509 52.852,37.379 52.895,37.202 L53.285,37.202 L53.285,38.792 L52.895,38.792 C52.855,38.626 52.811,38.502 52.765,38.417 C52.716,38.333 52.661,38.273 52.595,38.239 C52.530,38.202 52.430,38.184 52.301,38.184 L51.407,38.184 L51.407,40.572 L52.705,40.572 C52.841,40.572 52.953,40.560 53.038,40.536 C53.122,40.513 53.195,40.473 53.256,40.417 C53.317,40.361 53.372,40.285 53.419,40.195 C53.467,40.105 53.506,40.009 53.538,39.912 C53.570,39.814 53.615,39.671 53.670,39.484 L54.083,39.484 L54.004,40.936 L50.137,40.936 L50.137,40.733 C50.310,40.690 50.426,40.640 50.484,40.585 C50.543,40.532 50.580,40.455 50.600,40.358 C50.616,40.257 50.626,40.107 50.626,39.901 L50.626,36.321 C50.626,36.132 50.619,35.993 50.606,35.906 C50.590,35.819 50.568,35.751 50.536,35.704 C50.504,35.655 50.460,35.616 50.409,35.588 C50.355,35.557 50.265,35.526 50.137,35.489 L50.137,35.287 L54.042,35.287 L54.042,36.538 ZM56.954,40.223 C57.048,40.365 57.171,40.468 57.322,40.536 C57.471,40.604 57.665,40.638 57.902,40.638 C58.227,40.638 58.477,40.554 58.651,40.386 C58.826,40.217 58.913,39.971 58.913,39.649 C58.913,39.442 58.877,39.268 58.803,39.128 C58.732,38.986 58.612,38.854 58.449,38.730 C58.285,38.605 58.034,38.460 57.697,38.295 C57.370,38.135 57.114,37.979 56.925,37.825 C56.736,37.673 56.594,37.506 56.501,37.326 C56.408,37.148 56.361,36.951 56.361,36.740 C56.361,36.431 56.434,36.163 56.580,35.934 C56.727,35.706 56.940,35.532 57.223,35.408 C57.507,35.284 57.830,35.221 58.194,35.221 C58.407,35.221 58.612,35.232 58.814,35.253 C59.017,35.277 59.269,35.326 59.573,35.404 L59.573,36.520 L59.159,36.520 C59.095,36.278 59.014,36.089 58.916,35.953 C58.819,35.819 58.704,35.724 58.574,35.671 C58.443,35.616 58.274,35.590 58.065,35.590 C57.883,35.590 57.721,35.622 57.578,35.689 C57.434,35.755 57.322,35.856 57.238,35.988 C57.154,36.123 57.113,36.282 57.113,36.467 C57.113,36.663 57.148,36.827 57.220,36.963 C57.290,37.097 57.401,37.223 57.551,37.340 C57.702,37.455 57.925,37.585 58.219,37.728 C58.576,37.905 58.852,38.070 59.049,38.221 C59.244,38.373 59.399,38.546 59.507,38.741 C59.618,38.936 59.673,39.162 59.673,39.421 C59.673,39.711 59.626,39.956 59.534,40.155 C59.443,40.355 59.316,40.519 59.153,40.644 C58.989,40.770 58.794,40.860 58.568,40.917 C58.341,40.973 58.092,41.001 57.823,41.001 C57.386,41.001 56.882,40.929 56.312,40.783 L56.312,39.649 L56.728,39.649 C56.785,39.893 56.859,40.083 56.954,40.223 ZM66.067,36.728 L65.658,36.728 C65.597,36.489 65.536,36.302 65.476,36.164 C65.417,36.027 65.353,35.922 65.285,35.850 C65.220,35.779 65.147,35.727 65.072,35.698 C64.994,35.667 64.880,35.652 64.727,35.652 L64.196,35.652 L64.196,39.888 C64.196,40.052 64.205,40.182 64.224,40.278 C64.242,40.375 64.270,40.451 64.308,40.508 C64.344,40.564 64.396,40.607 64.461,40.640 C64.525,40.672 64.624,40.703 64.759,40.733 L64.759,40.936 L62.852,40.936 L62.852,40.733 C62.936,40.713 63.009,40.693 63.073,40.672 C63.137,40.649 63.189,40.622 63.230,40.589 C63.270,40.558 63.303,40.517 63.329,40.468 C63.357,40.418 63.376,40.350 63.392,40.265 C63.407,40.180 63.415,40.055 63.415,39.888 L63.415,35.652 L62.889,35.652 C62.757,35.652 62.651,35.664 62.567,35.689 C62.481,35.714 62.402,35.766 62.330,35.844 C62.257,35.922 62.191,36.034 62.131,36.179 C62.070,36.325 62.016,36.507 61.962,36.728 L61.549,36.728 L61.549,35.287 L66.067,35.287 L66.067,36.728 ZM80.788,35.766 C80.954,35.599 81.159,35.466 81.405,35.368 C81.653,35.269 81.939,35.221 82.269,35.221 C82.851,35.221 83.297,35.421 83.604,35.820 C83.911,36.222 84.063,36.796 84.063,37.548 C84.063,38.234 83.950,38.829 83.726,39.333 C83.500,39.836 83.184,40.228 82.777,40.508 C82.371,40.787 81.896,40.953 81.353,41.001 L81.182,40.774 L81.182,40.572 C81.571,40.572 81.910,40.486 82.196,40.315 C82.481,40.145 82.710,39.891 82.883,39.557 C83.058,39.221 83.173,38.781 83.231,38.239 L83.190,38.221 C82.957,38.386 82.726,38.509 82.499,38.584 C82.273,38.663 82.026,38.701 81.762,38.701 C81.448,38.701 81.181,38.633 80.958,38.497 C80.737,38.361 80.570,38.168 80.460,37.921 C80.347,37.675 80.293,37.385 80.293,37.055 C80.293,36.806 80.334,36.570 80.418,36.349 C80.501,36.126 80.625,35.932 80.788,35.766 ZM81.331,37.927 C81.503,38.153 81.741,38.267 82.050,38.267 C82.155,38.267 82.258,38.258 82.354,38.240 C82.449,38.221 82.544,38.196 82.635,38.161 C82.726,38.127 82.816,38.082 82.905,38.028 C82.992,37.974 83.071,37.917 83.140,37.858 C83.166,37.834 83.189,37.806 83.207,37.769 C83.227,37.735 83.243,37.688 83.253,37.630 C83.263,37.571 83.269,37.481 83.269,37.357 C83.269,36.979 83.231,36.654 83.155,36.386 C83.079,36.117 82.962,35.915 82.804,35.779 C82.647,35.640 82.453,35.572 82.221,35.572 C82.014,35.572 81.835,35.609 81.692,35.681 C81.547,35.752 81.430,35.851 81.340,35.977 C81.248,36.102 81.182,36.250 81.139,36.420 C81.098,36.588 81.077,36.773 81.077,36.970 C81.077,37.382 81.162,37.701 81.331,37.927 ZM86.007,35.931 C86.171,35.689 86.366,35.510 86.595,35.395 C86.822,35.280 87.072,35.221 87.342,35.221 C87.952,35.221 88.404,35.454 88.703,35.921 C89.001,36.386 89.150,37.091 89.150,38.035 C89.150,39.012 88.990,39.751 88.671,40.251 C88.352,40.752 87.887,41.003 87.275,41.003 C86.674,41.003 86.227,40.768 85.932,40.299 C85.639,39.830 85.491,39.119 85.491,38.165 C85.491,37.656 85.537,37.217 85.628,36.848 C85.718,36.479 85.845,36.173 86.007,35.931 ZM86.560,40.019 C86.727,40.440 86.988,40.650 87.342,40.650 C87.678,40.650 87.928,40.452 88.092,40.056 C88.255,39.661 88.336,39.048 88.336,38.217 C88.336,37.582 88.294,37.068 88.211,36.677 C88.127,36.282 88.011,36.000 87.863,35.829 C87.713,35.659 87.533,35.572 87.321,35.572 C87.129,35.572 86.969,35.630 86.839,35.742 C86.709,35.856 86.605,36.018 86.526,36.231 C86.446,36.443 86.391,36.702 86.356,37.006 C86.323,37.311 86.306,37.656 86.306,38.039 C86.306,38.939 86.391,39.599 86.560,40.019 Z" class="cls-1"/>
</svg>
