<svg xmlns="http://www.w3.org/2000/svg" preserveAspectRatio="xMidYMid" width="139" height="41" viewBox="0 0 139 41"><defs><style>.cls-1 { fill: #414141; fill-rule: evenodd; }</style></defs><path d="M134.275 23.317l.085-2.446-.257-.065c-1.002 1.013-1.943 1.73-2.822 2.15-.878.424-1.81.633-2.8.633-.874 0-1.644-.168-2.31-.503-.668-.335-1.18-.81-1.538-1.42-.353-.608-.532-1.31-.532-2.11 0-1.662.828-2.948 2.49-3.852 1.662-.906 4.154-1.433 7.477-1.58V13.01c0-1.184-.116-2.117-.343-2.8-.23-.684-.594-1.185-1.088-1.506-.495-.317-1.155-.476-1.983-.476-.898 0-1.62.23-2.166.7-.545.466-.955 1.167-1.233 2.1h-2.257V8.805c1.103-.568 2.022-.986 2.757-1.256.737-.266 1.473-.477 2.21-.63.734-.154 1.482-.23 2.24-.23 1.14 0 2.053.176 2.742.537.69.36 1.207.91 1.553 1.65.344.74.515 1.856.515 3.348v5.947c0 .842.007 1.44.02 1.785.01.35.044.67.102.966.058.295.144.533.26.71.113.178.283.327.506.452.224.126.59.257 1.098.393v.84h-4.725zm-.208-7.794c-2.335.022-4.08.33-5.243.923-1.16.594-1.74 1.487-1.74 2.683 0 .646.13 1.16.396 1.535.264.378.598.637 1 .78.402.14.88.212 1.43.212.78 0 1.493-.188 2.13-.564.64-.375 1.136-.854 1.492-1.435.357-.58.535-1.156.535-1.725v-2.41zm-18.92-7.307c-.282.13-.492.33-.63.598-.138.267-.217.623-.242 1.067-.023.446-.035 1.035-.035 1.763v7.45c0 .8.038 1.384.113 1.76.075.377.178.658.31.84.132.182.292.323.483.426.19.1.508.222.957.358v.837h-6.76v-.837c.586-.148 1.01-.322 1.27-.52.256-.2.433-.492.523-.872.093-.382.137-1.062.137-2.044v-6.374c0-.547-.015-5.845-.015-5.845h1.052l4.034.154v.905c-.517.092-.917.204-1.198.334zm-10.958.246l.003-1.64h7.065l.003 1.64h-7.07zm-.013 10.58c0 .982.044 1.662.137 2.044.09.38.268.673.526.87.26.2.68.374 1.268.522v.837h-6.76v-.837c.448-.136.765-.257.956-.36.19-.102.35-.243.482-.426.133-.18.237-.462.312-.838.074-.377.113-.962.113-1.76v-7.45c0-.73-.012-1.318-.035-1.763-.024-.443-.103-.8-.242-1.066-.138-.27-.348-.467-.63-.598-.28-.13-.68-.242-1.197-.334v-.905l4.035-.154h1.052s-.015 5.298-.015 5.845v6.374zM139 38.657H93.998v-.736H139v.737zM86.892 22.623c-1.162.643-2.536.965-4.122.965-2.392 0-4.217-.697-5.475-2.092-1.26-1.395-1.888-3.46-1.888-6.194 0-1.88.33-3.47.99-4.768.66-1.3 1.567-2.265 2.716-2.897 1.15-.634 2.46-.948 3.932-.948 2.46 0 4.323.706 5.59 2.127 1.263 1.416 1.894 3.455 1.894 6.108 0 1.89-.316 3.486-.95 4.786-.63 1.3-1.53 2.27-2.688 2.913zm-.182-11.37c-.374-1.107-.882-1.92-1.527-2.436-.643-.518-1.38-.78-2.205-.78-1.392 0-2.46.6-3.2 1.794-.743 1.2-1.114 2.903-1.114 5.112 0 2.346.377 4.15 1.13 5.408.754 1.26 1.83 1.89 3.235 1.89.768 0 1.423-.184 1.964-.556.54-.37.98-.87 1.32-1.496.34-.626.584-1.35.732-2.178.15-.826.225-1.69.225-2.59 0-1.674-.186-3.064-.56-4.168zM76.327 35.367c.247-.1.534-.147.864-.147.584 0 1.03.2 1.336.6.306.402.46.976.46 1.728 0 .686-.113 1.28-.338 1.785-.225.503-.54.895-.95 1.175-.405.28-.88.445-1.423.493l-.17-.226v-.202c.39 0 .727-.086 1.012-.257.286-.17.515-.424.69-.758.173-.336.29-.776.347-1.318l-.04-.02c-.235.166-.466.29-.693.364-.225.08-.472.117-.736.117-.314 0-.58-.067-.804-.203-.22-.136-.388-.33-.497-.576-.114-.245-.168-.535-.168-.865 0-.25.04-.485.125-.706.084-.224.207-.418.37-.584.165-.167.372-.3.617-.398zm-.073 2.56c.17.225.41.34.72.34.104 0 .206-.01.302-.028.095-.02.19-.044.28-.08.092-.033.183-.078.27-.132.088-.054.167-.11.236-.17.026-.024.05-.052.067-.09.02-.033.034-.08.045-.138.01-.06.017-.15.017-.273 0-.378-.038-.703-.114-.97-.077-.27-.194-.472-.35-.608-.158-.14-.352-.208-.585-.208-.207 0-.386.037-.53.11-.144.07-.262.17-.35.295-.093.125-.158.273-.2.443-.043.168-.064.353-.064.55 0 .412.085.73.254.957zM70.7 40.633c.31-.015.53-.033.662-.056.134-.024.234-.06.304-.105.07-.047.12-.114.153-.2.03-.085.046-.224.046-.417V36.5c0-.11-.02-.19-.06-.24-.038-.054-.094-.078-.17-.078-.09 0-.216.044-.38.136-.164.09-.368.215-.61.376l-.184-.32 1.955-1.153h.23c-.017.266-.026.633-.026 1.102v3.534c0 .16.01.28.03.363.017.08.05.145.095.197.046.05.11.09.198.12.087.027.195.05.325.066.13.015.304.025.52.03v.302H70.7v-.3zm-3.57-.66h.843v.96h-.843v-.96zm-4.034-17.35c-1.097.644-2.405.964-3.923.964-.852 0-1.62-.07-2.312-.214-.687-.142-1.322-.332-1.895-.57v3.606c0 .74.026 1.29.077 1.655.052.366.145.653.276.866.132.21.322.384.57.52.245.136.645.262 1.197.377v.837H50.05v-.837c.413-.115.752-.232 1.008-.35.26-.12.457-.298.595-.53.14-.235.23-.55.276-.95.045-.4.07-.928.07-1.587V11.748c0-.82-.013-1.406-.036-1.753-.022-.348-.07-.635-.137-.864-.07-.225-.17-.414-.304-.56-.13-.15-.31-.276-.532-.38-.223-.1-.594-.203-1.11-.305V6.98l4.048-.154h1.053L54.76 9.61l.258.07c.713-.72 1.275-1.24 1.69-1.566.414-.325.842-.594 1.286-.812.442-.214.868-.37 1.275-.46.408-.09.842-.137 1.302-.137 1.898 0 3.353.705 4.372 2.11 1.018 1.407 1.526 3.467 1.526 6.178 0 1.88-.29 3.46-.862 4.743-.575 1.28-1.413 2.243-2.51 2.887zm-3.82-13.868c-.645 0-1.2.1-1.664.3-.466.198-.928.52-1.388.963-.46.443-.787.876-.976 1.29-.19.416-.283.864-.283 1.34v4.514c0 1.092.07 1.937.207 2.53.138.59.38 1.074.73 1.443.353.37.767.647 1.244.83.476.182 1.107.272 1.89.272 1.39 0 2.436-.574 3.136-1.72.702-1.143 1.053-2.832 1.053-5.065 0-4.466-1.316-6.7-3.95-6.7zM-.002 37.92H45v.737H0v-.736zm37.494-15.27c-1.06.625-2.31.938-3.754.938-.812 0-1.577-.074-2.295-.218-.716-.148-1.38-.383-2.172-.948-2.368-1.692-2.368-5.298-2.368-5.298V5.63c0-1.042-.01-1.77-.026-2.183-.015-.413-.06-.762-.13-1.05-.073-.288-.172-.513-.297-.675-.128-.165-.3-.296-.51-.393-.215-.097-.602-.196-1.16-.293V.19L28.76.03h.966v2.644c.017-.028.03-.062.047-.09.414-.69.967-1.26 1.65-1.706C32.03.48 32.64.248 33.257.18c.617-.07 1.19.027 1.72.288.526.263.973.67 1.34 1.22.765 1.155.782 2.42.047 3.8-.347.65-.872 1.33-1.556 2.033.09-.003.17-.02.26-.02 1.174 0 2.177.296 3.017.89.837.59 1.483 1.477 1.938 2.66.454 1.184.682 2.634.682 4.348 0 1.772-.27 3.266-.814 4.487-.542 1.22-1.34 2.144-2.398 2.766zM34.446 3.335c-.3-.45-.625-.743-.985-.886-.355-.14-.705-.17-1.048-.087-.347.084-.71.252-1.09.502-.543.354-.95.806-1.217 1.352-.27.548-.393 1.106-.373 1.67 0-.004-.004-.006-.006-.01v4.444l.066.017c.77-.792 1.405-1.37 1.915-1.727.205-.144.416-.265.627-.383 1.022-.787 1.738-1.536 2.14-2.245.532-.934.522-1.817-.028-2.646zm2.24 7.743c-.618-1.082-1.552-1.62-2.804-1.62-.622 0-1.154.092-1.593.284-.438.19-.873.487-1.305.887-.435.403-.752.797-.954 1.19-.203.39-.304.836-.304 1.336v4.313c0 .838.04 1.5.116 1.995.077.497.206.905.386 1.23.182.326.442.626.79.895.342.273.73.46 1.16.562.424.104.9.157 1.426.157 1.315 0 2.31-.533 2.992-1.596.68-1.065 1.02-2.66 1.02-4.79 0-2.147-.31-3.76-.93-4.84zM10.996 21.81c.563 0 1.02-.047 1.372-.143.35-.1.65-.26.905-.496.253-.234.477-.54.673-.914.195-.377.36-.767.49-1.17.134-.404.315-.993.546-1.77h1.705l-.33 6H.392v-.837c.713-.184 1.19-.386 1.432-.61.24-.22.4-.538.474-.947.076-.41.112-1.038.112-1.88V4.26c0-.784-.03-1.357-.086-1.717-.057-.356-.152-.637-.284-.837-.134-.198-.31-.358-.527-.477C1.294 1.107.92.974.39.826V-.01h16.125v5.16h-1.69c-.172-.558-.35-1.048-.536-1.47-.184-.42-.373-.774-.57-1.06-.194-.284-.41-.513-.645-.68-.237-.174-.515-.29-.837-.352-.323-.064-.706-.093-1.155-.093h-5.45v8.953h3.69c.508 0 .904-.07 1.19-.215.288-.142.527-.383.717-.724.19-.343.37-.88.543-1.61h1.62v6.563h-1.62c-.162-.682-.34-1.2-.534-1.546-.198-.348-.43-.596-.7-.743-.27-.147-.676-.222-1.216-.222h-3.69v9.86h5.363zM54.043 36.54h-.41c-.04-.136-.085-.254-.13-.358-.042-.1-.09-.187-.136-.256-.05-.068-.1-.125-.157-.164-.058-.042-.126-.07-.204-.086-.078-.015-.17-.022-.28-.022h-1.32v2.167h.895c.123 0 .22-.017.288-.052.07-.034.128-.093.174-.176.045-.083.09-.213.133-.39h.39v1.59h-.39c-.04-.166-.084-.29-.13-.375-.05-.084-.104-.144-.17-.178-.065-.038-.165-.056-.294-.056h-.893v2.388h1.298c.136 0 .248-.012.333-.036.084-.023.157-.063.218-.12.06-.055.116-.13.163-.22s.086-.187.118-.284c.032-.098.077-.24.132-.428h.413l-.08 1.452h-3.866v-.203c.173-.043.29-.093.347-.148.06-.053.096-.13.116-.227.016-.1.026-.25.026-.457v-3.58c0-.188-.007-.327-.02-.414-.016-.087-.038-.155-.07-.202-.032-.05-.076-.088-.127-.116-.055-.03-.145-.062-.273-.1v-.2h3.905v1.25zm2.912 3.685c.094.142.217.245.368.313.15.068.343.102.58.102.325 0 .575-.084.75-.252.174-.17.26-.415.26-.737 0-.208-.035-.382-.11-.522-.07-.142-.19-.274-.353-.398-.165-.125-.416-.27-.753-.435-.327-.16-.583-.316-.772-.47-.19-.152-.33-.32-.424-.5-.092-.177-.14-.374-.14-.585 0-.31.074-.577.22-.806.147-.228.36-.402.643-.526.284-.124.607-.187.97-.187.214 0 .42.012.62.033.204.024.456.073.76.15v1.117h-.414c-.065-.242-.146-.43-.244-.567-.097-.134-.212-.23-.342-.282-.13-.054-.3-.08-.51-.08-.18 0-.343.032-.486.1-.144.065-.256.166-.34.298-.084.135-.125.294-.125.48 0 .195.035.36.107.495.07.134.18.26.33.377.152.115.375.245.67.388.356.177.632.342.83.493.194.153.35.326.457.52.11.196.166.422.166.68 0 .29-.047.536-.14.735-.09.2-.217.364-.38.49-.164.125-.36.215-.585.272-.227.056-.476.084-.745.084-.437 0-.94-.07-1.51-.217V39.65h.415c.057.243.13.433.226.573zm9.113-3.495h-.41c-.06-.24-.12-.426-.18-.564-.06-.137-.124-.242-.192-.314-.065-.07-.138-.123-.213-.152-.078-.03-.192-.046-.345-.046h-.53v4.236c0 .164.008.294.027.39.018.097.046.173.084.23.036.056.088.1.153.132s.164.063.3.093v.203H62.85v-.203c.084-.02.157-.04.22-.06.065-.024.117-.05.158-.084.04-.032.073-.073.1-.122.027-.05.046-.118.062-.203.015-.085.023-.21.023-.377v-4.236h-.526c-.133 0-.24.012-.323.037-.086.024-.165.076-.237.154-.073.078-.14.19-.2.335-.06.145-.114.327-.168.548h-.413v-1.44h4.517v1.44zm14.72-.962c.167-.167.372-.3.618-.398.248-.1.534-.147.864-.147.58 0 1.027.2 1.334.6.307.402.46.976.46 1.728 0 .686-.114 1.28-.338 1.785-.226.503-.542.895-.95 1.175-.405.28-.88.445-1.423.493l-.17-.226v-.202c.388 0 .727-.086 1.013-.257.285-.17.514-.424.687-.758.175-.336.29-.776.348-1.318l-.04-.02c-.233.166-.464.29-.69.364-.227.08-.474.117-.738.117-.314 0-.58-.067-.804-.203-.22-.136-.388-.33-.498-.576-.113-.245-.167-.535-.167-.865 0-.25.04-.485.125-.706.083-.224.207-.418.37-.584zm.544 2.16c.173.227.41.34.72.34.105 0 .208-.008.304-.026.095-.02.19-.044.28-.08.092-.033.182-.078.27-.132.088-.054.167-.11.236-.17.026-.024.05-.052.067-.09.02-.033.036-.08.046-.138.01-.06.016-.15.016-.273 0-.378-.04-.703-.115-.97-.076-.27-.193-.472-.35-.608-.158-.14-.352-.208-.584-.208-.206 0-.385.037-.528.11-.145.07-.262.17-.352.295-.092.125-.158.273-.2.443-.042.168-.063.353-.063.55 0 .412.085.73.254.957zm4.677-1.995c.164-.24.36-.42.588-.535.227-.115.477-.174.747-.174.61 0 1.062.234 1.36.7.3.466.448 1.17.448 2.115 0 .977-.16 1.716-.48 2.216-.318.502-.783.753-1.395.753-.6 0-1.048-.235-1.343-.704-.293-.47-.44-1.18-.44-2.135 0-.51.045-.948.136-1.317.09-.37.217-.675.38-.917zm.553 4.09c.167.42.428.63.782.63.336 0 .586-.198.75-.594.163-.395.244-1.008.244-1.84 0-.634-.042-1.148-.125-1.54-.083-.394-.2-.676-.347-.847-.15-.17-.33-.258-.542-.258-.19 0-.35.058-.48.17-.13.114-.235.276-.314.49-.08.21-.135.47-.17.774-.033.305-.05.65-.05 1.033 0 .9.085 1.56.254 1.98z" class="cls-1"/></svg>